<?xml version="1.0" encoding="UTF-8" standalone="no"?>
<!-- Created with Inkscape (http://www.inkscape.org/) -->

<svg
   xmlns:dc="http://purl.org/dc/elements/1.1/"
   xmlns:cc="http://creativecommons.org/ns#"
   xmlns:rdf="http://www.w3.org/1999/02/22-rdf-syntax-ns#"
   xmlns:svg="http://www.w3.org/2000/svg"
   xmlns="http://www.w3.org/2000/svg"
   xmlns:sodipodi="http://sodipodi.sourceforge.net/DTD/sodipodi-0.dtd"
   xmlns:inkscape="http://www.inkscape.org/namespaces/inkscape"
   id="svg2"
   version="1.1"
   inkscape:version="0.92.1 r15371"
   xml:space="preserve"
   width="1250.464"
   height="1566.0806"
   viewBox="0 0 1172.31 1468.2005"
   sodipodi:docname="CDSC_logo-text.svg"><metadata
     id="metadata8"><rdf:RDF><cc:Work
         rdf:about=""><dc:format>image/svg+xml</dc:format><dc:type
           rdf:resource="http://purl.org/dc/dcmitype/StillImage" /><dc:title></dc:title></cc:Work></rdf:RDF></metadata><defs
     id="defs6" /><sodipodi:namedview
     pagecolor="#ffffff"
     bordercolor="#666666"
     borderopacity="1"
     objecttolerance="10"
     gridtolerance="10"
     guidetolerance="10"
     inkscape:pageopacity="0"
     inkscape:pageshadow="2"
     inkscape:window-width="1916"
     inkscape:window-height="1056"
     id="namedview4"
     showgrid="false"
     inkscape:zoom="0.31052485"
     inkscape:cx="450.89507"
     inkscape:cy="844.21725"
     inkscape:window-x="0"
     inkscape:window-y="20"
     inkscape:window-maximized="0"
     inkscape:current-layer="g10"
     showguides="false"
     inkscape:guide-bbox="true"
     fit-margin-top="0"
     fit-margin-left="0"
     fit-margin-right="0"
     fit-margin-bottom="0"
     showborder="false"><sodipodi:guide
       position="114.48874,314.84733"
       orientation="1,0"
       id="guide4822"
       inkscape:locked="false" /></sodipodi:namedview><g
     id="g10"
     inkscape:groupmode="layer"
     inkscape:label="logo"
     transform="matrix(1.25,0,0,-1.25,-4.765,1406.2012)"><g
       id="g4868"><path
         d="m 268.367,632.64 c 21.789,-5.171 44.434,-9.539 67.789,-13.039 V 501.969 l 68.059,110.121 c 22.394,-1.621 45.265,-2.477 68.519,-2.477 14.801,0 29.434,0.359 43.899,1.023 V 501.969 l 70.844,114.632 c 38.503,4.774 75.234,11.922 109.632,21.094 v -118.07 l 92.68,149.961 v 0.168 c 13.992,6.129 27.34,12.64 39.938,19.531 6.746,3.691 13.285,7.484 19.601,11.379 53.512,35.312 88.832,95.961 88.832,164.871 0,68.914 -35.32,129.566 -88.832,164.875 -6.32,3.894 -12.855,7.691 -19.601,11.379 -12.598,6.89 -25.946,13.402 -39.938,19.531 v 0.168 h -0.379 c -85.609,37.418 -196.066,59.973 -316.676,59.973 -120.609,0 -231.062,-22.555 -316.672,-59.973 h -0.378 v -0.168 c -13.989,-6.129 -27.34,-12.637 -39.934,-19.527 -6.75,-3.692 -13.293,-7.492 -19.613,-11.387 C 42.629,995.094 7.312,934.445 7.312,865.535 c 0,-68.906 35.313,-129.555 88.825,-164.867 6.32,-3.895 12.863,-7.696 19.613,-11.387 3.598,-1.969 7.254,-3.906 10.969,-5.809 9.301,-4.769 18.969,-9.339 28.965,-13.718 V 519.625 l 75.859,122.75"
         style="fill:none;stroke:#000000;stroke-width:7;stroke-linecap:round;stroke-linejoin:round;stroke-miterlimit:10;stroke-dasharray:none;stroke-opacity:1"
         id="path14"
         inkscape:connector-curvature="0" /><path
         d="m 353.637,839.929 22.086,-93.433 102.011,138.648 35.028,-35.027 81.992,163.992 41.359,-102.418 45.059,13.957 31.301,-69.972 26.992,20.652"
         style="fill:none;stroke:#463470;stroke-width:7;stroke-linecap:round;stroke-linejoin:round;stroke-miterlimit:10;stroke-dasharray:none;stroke-opacity:1"
         id="path16"
         inkscape:connector-curvature="0" /><path
         d="m 155.684,519.629 197.953,320.3"
         style="fill:none;stroke:#000000;stroke-width:7;stroke-linecap:round;stroke-linejoin:round;stroke-miterlimit:10;stroke-dasharray:none;stroke-opacity:1"
         id="path18"
         inkscape:connector-curvature="0" /><path
         d="M 232.254,974.445 V 716.422"
         style="fill:none;stroke:#b3b3b3;stroke-width:7;stroke-linecap:round;stroke-linejoin:round;stroke-miterlimit:10;stroke-dasharray:none;stroke-opacity:1"
         id="path20"
         inkscape:connector-curvature="0" /><path
         d="M 298.605,716.418 H 688.297"
         style="fill:none;stroke:#b3b3b3;stroke-width:7;stroke-linecap:round;stroke-linejoin:round;stroke-miterlimit:10;stroke-dasharray:none;stroke-opacity:1"
         id="path22"
         inkscape:connector-curvature="0" /><path
         d="m 232.254,716.418 h 25.254"
         style="fill:none;stroke:#b3b3b3;stroke-width:7;stroke-linecap:round;stroke-linejoin:round;stroke-miterlimit:10;stroke-dasharray:none;stroke-opacity:1"
         id="path24"
         inkscape:connector-curvature="0" /></g><g
       id="g4917"
       transform="translate(56.90668,3)"><path
         inkscape:connector-curvature="0"
         id="path4769"
         d="m 57.697523,412.10326 c -16.996763,0 -30.357481,-5.64816 -40.098837,-16.90555 C 7.8573305,383.99704 3,368.66425 3,349.17709 c 0,-19.43044 4.8573305,-34.78881 14.598686,-46.04621 9.741356,-11.20623 23.102074,-16.79766 40.098837,-16.79766 7.143068,0 13.912409,0.97324 20.299126,2.91973 6.438994,1.95095 12.529844,4.89182 18.270325,8.78925 v 9.81588 c -5.522474,-5.03641 -11.379745,-8.82929 -17.606293,-11.3753 -6.277714,-2.48928 -12.955848,-3.72392 -19.989912,-3.72392 -15.26383,0 -26.916084,4.8273 -34.980121,14.51193 -8.120762,9.68908 -12.183924,23.66711 -12.183924,41.9063 0,18.23918 4.063162,32.16048 12.183924,41.79284 8.064037,9.6368 19.716291,14.45965 34.980121,14.45965 7.034064,0 13.712198,-1.23352 19.989912,-3.72281 6.226548,-2.43812 12.083819,-6.17427 17.606293,-11.20623 v 9.34205 c -5.631478,4.11433 -11.662265,7.1731 -18.105708,9.17632 -6.386716,2.05438 -13.212784,3.08435 -20.463743,3.08435 z"
         style="fill:#000000;fill-opacity:1;fill-rule:nonzero;stroke:none;stroke-width:1.11228085" /><path
         inkscape:connector-curvature="0"
         id="path4767"
         d="M 695.50828,405.42958 V 379.62577 H 684.6324 v -6.33888 h 10.87588 v -54.6408 c 0,-11.30967 2.58939,-19.13902 7.78597,-23.47135 5.19213,-4.32677 11.51767,-6.47793 18.93436,-6.47793 h 11.59664 v 6.33889 H 721.8115 c -7.03406,0 -12.39192,3.0065 -16.07134,9.06843 -1.78633,2.75846 -2.67282,7.61579 -2.67282,14.54196 v 54.6408 h 30.75791 v 6.33888 h -30.75791 v 25.80381 z"
         style="fill:#000000;fill-opacity:1;fill-rule:nonzero;stroke:none;stroke-width:1.11228085" /><path
         inkscape:connector-curvature="0"
         id="path4765"
         d="m 144.45573,381.8248 c -11.63557,0 -20.84716,-4.32344 -27.61205,-12.93023 -6.76934,-8.60797 -10.14902,-20.17405 -10.14902,-34.73387 0,-14.93787 3.35287,-26.70699 10.06104,-35.3138 6.76489,-8.60238 16.00773,-12.9009 27.70003,-12.9009 11.58329,0 20.73213,4.3233 27.44585,12.98241 6.76489,8.60679 10.15066,20.35114 10.15066,35.23229 0,14.39848 -3.38577,25.93495 -10.15066,34.6507 -6.71372,8.65915 -15.86256,13.0134 -27.44585,13.0134 z m 0.0814,-6.59059 c 9.25418,0 16.55432,-3.7386 21.91106,-11.20643 5.41348,-7.46902 8.12052,-17.38762 8.12052,-29.7839 0,-12.76902 -2.70704,-22.89341 -8.12052,-30.36235 -5.35674,-7.41671 -12.65688,-11.12337 -21.91106,-11.12337 -9.3109,0 -16.63578,3.70666 -21.99253,11.12337 -5.36231,7.36108 -8.06349,17.48431 -8.06349,30.36235 0,12.55645 2.70498,22.507 8.114,29.86699 5.36231,7.41668 12.68784,11.12334 21.94202,11.12334 z"
         style="fill:#000000;fill-opacity:1;fill-rule:nonzero;stroke:none;stroke-width:1.11228085" /><path
         inkscape:connector-curvature="0"
         id="path4763"
         d="m 235.94053,381.82475 c -8.17304,0 -15.05917,-1.70846 -20.69065,-5.11871 -5.57475,-3.46253 -9.69353,-8.17304 -12.34298,-14.12486 v 17.04459 h -7.48231 v -90.92896 h 7.48231 v 51.38627 c 0,12.66554 3.49701,21.78958 10.4788,27.36433 6.38783,5.19658 13.74779,7.78597 22.081,7.78597 5.95293,0 10.60115,-2.32467 13.96024,-6.97845 3.35352,-4.65712 5.40251,-13.0483 5.03084,-25.16536 v -54.39276 h 7.45117 v 51.38627 c 0,12.72227 3.50257,21.87189 10.48436,27.44664 6.38672,5.1443 13.74334,7.70366 22.081,7.70366 5.73492,0 10.35311,-2.20788 13.8212,-6.64811 3.46253,-4.43577 5.55485,-12.94507 5.16988,-25.4957 v -54.39276 h 7.39445 v 54.86215 c 0,14.39958 -2.41143,24.37452 -7.22983,29.89254 -4.76167,5.5792 -11.08721,8.37325 -18.99108,8.37325 -7.90276,0 -14.72883,-1.82525 -20.46375,-5.45351 -6.06081,-3.7317 -10.47991,-9.26307 -13.29064,-16.57076 -2.59829,8.33321 -5.80499,13.89461 -9.59342,16.65752 -4.92741,3.57153 -10.04612,5.36675 -15.35059,5.36675 z"
         style="fill:#000000;fill-opacity:1;fill-rule:nonzero;stroke:none;stroke-width:1.11228085" /><path
         inkscape:connector-curvature="0"
         id="path4761"
         d="m 377.39596,381.82475 c -8.17304,0 -15.09031,-1.70846 -20.71623,-5.11871 -5.57475,-3.46253 -9.69798,-8.17304 -12.34854,-14.12486 v 17.04459 h -7.45117 v -90.92896 h 7.45117 v 51.38627 c 0,12.66554 3.50146,21.78958 10.48436,27.36433 6.38671,5.19658 13.74223,7.78597 22.07543,7.78597 5.95738,0 10.60671,-2.32467 13.96024,-6.97845 3.35464,-4.65712 5.03641,-13.04261 5.03641,-25.16536 v -54.39276 h 7.47675 v 51.38627 c 0,12.72227 3.47588,21.87189 10.45878,27.44664 6.38227,5.1443 13.76781,7.70366 22.10658,7.70366 5.73492,0 10.32753,-2.20788 13.79006,-6.64811 3.46253,-4.43577 5.58599,-12.94507 5.20102,-25.4957 v -54.39276 h 7.36886 v 54.86215 c 0,14.39958 -2.38584,24.37452 -7.20424,29.89254 -4.76167,5.5792 -11.11836,8.37325 -19.01667,8.37325 -7.90386,0 -14.70324,-1.82525 -20.43816,-5.45351 -6.06638,-3.7317 -10.5066,-9.26307 -13.32178,-16.57076 -2.59829,8.33321 -5.805,13.89461 -9.59343,16.65752 -4.9274,3.57153 -10.01942,5.36675 -15.31944,5.36675 z"
         style="fill:#000000;fill-opacity:1;fill-rule:nonzero;stroke:none;stroke-width:1.11228085" /><path
         inkscape:connector-curvature="0"
         id="path4759"
         d="m 607.68926,381.82475 c -7.73814,0 -14.80223,-2.20787 -21.1845,-6.59137 -4.33233,-2.92419 -7.83379,-7.12972 -10.48436,-12.6522 v 17.04459 h -7.48231 v -90.92896 h 7.48231 v 51.38627 c 0,12.99144 3.08881,22.11548 9.25863,27.36433 6.11754,5.19658 13.47305,7.78597 22.081,7.78597 7.35996,0 12.92136,-2.41143 16.70979,-7.22983 3.78843,-4.8184 6.06212,-13.12268 5.70044,-24.91398 v -54.39276 h 7.45117 v 54.86215 c 0,13.31733 -2.67615,23.02755 -8.03289,29.08948 -5.36231,6.11754 -12.51316,9.17631 -21.49928,9.17631 z"
         style="fill:#000000;fill-opacity:1;fill-rule:nonzero;stroke:none;stroke-width:1.11228085" /><path
         inkscape:connector-curvature="0"
         id="path4757"
         d="m 478.3043,379.62577 v -54.88883 c 0,-13.31623 2.6806,-22.99641 8.03846,-29.05834 5.35674,-6.11754 12.53874,-9.17632 21.51929,-9.17632 7.74259,0 14.80335,2.17674 21.19007,6.56135 4.33233,2.92419 7.80376,7.15975 10.45877,12.67778 v -17.0446 h 7.47676 v 90.92896 h -7.47676 v -51.38626 c 0,-12.99144 -3.06322,-22.11103 -9.23304,-27.36433 -6.11754,-5.19213 -13.5042,-7.81155 -22.10658,-7.81155 -7.35996,0 -12.92582,2.41142 -16.71536,7.22982 -3.78843,4.81841 -5.30745,13.14827 -5.66929,24.94401 v 54.38831 z"
         style="fill:#000000;fill-opacity:1;fill-rule:nonzero;stroke:none;stroke-width:1.11228085" /><g
         transform="matrix(1.1122809,0,0,1.1122809,-85.426328,-46.599137)"
         id="g4786"><path
           inkscape:connector-curvature="0"
           style="fill:#000000;fill-opacity:1;fill-rule:nonzero;stroke:none"
           d="m 671.949,415.023 v -9.199 h 6.699 v 9.199 z"
           id="path4771" /><path
           inkscape:connector-curvature="0"
           style="fill:#000000;fill-opacity:1;fill-rule:nonzero;stroke:none"
           d="m 671.949,383.199 v -81.75 h 6.699 v 81.75 z"
           id="path4755" /></g><path
         inkscape:connector-curvature="0"
         id="path4753"
         d="m 741.77583,379.62577 36.28816,-90.92896 -2.66725,-6.75599 c -2.48928,-6.38672 -5.6704,-11.21402 -9.51111,-14.51638 -2.97646,-2.54156 -6.44789,-3.81067 -10.40205,-3.81067 h -9.47997 c 0,0 -1.49409,-4.8448 0,-6.33889 2.62167,-2.62167 7.48942,-0.73813 11.12281,0 5.23778,1.06406 9.73246,2.08998 14.7633,6.25658 3.73727,3.08435 7.23873,8.65021 10.48436,16.71424 l 39.93422,99.38007 h -7.87383 l -32.39518,-81.02743 -32.30731,81.02743 z"
         style="fill:#000000;fill-opacity:1;fill-rule:nonzero;stroke:none;stroke-width:1.11228085" /></g><g
       id="g5011"><path
         inkscape:connector-curvature="0"
         id="path4747"
         d="m 432.42272,245.81728 c -12.77344,-0.0523 -22.30568,-2.84967 -28.58451,-8.42442 -6.76489,-6.00409 -10.14956,-14.62872 -10.14956,-25.8305 0,-8.985 4.14881,-16.07579 12.43085,-21.27237 5.46575,-3.41025 12.08716,-6.06082 19.88202,-7.95503 l 9.75804,-2.3636 c 8.71583,-2.11111 15.80662,-5.67041 21.27237,-10.7057 3.78843,-3.46253 5.67486,-8.22866 5.67486,-14.29059 0,-10.34087 -3.08992,-17.54845 -9.25863,-21.66278 -6.55244,-4.38461 -14.76441,-6.59138 -24.66594,-6.59138 -5.79164,0 -12.08715,1.38591 -18.85205,4.14548 -3.03318,1.24241 -8.32987,4.12656 -15.90672,8.62017 v -7.98173 c 5.03084,-3.24563 9.85814,-5.77941 14.45965,-7.62134 7.30323,-2.54157 15.57638,-3.80623 24.83056,-3.80623 8.876,0 17.52732,2.73732 25.97398,8.20307 7.73814,5.08869 11.62222,14.20828 11.62222,27.35989 0,9.09401 -4.41464,16.62748 -13.23948,22.63714 -4.70495,3.13663 -11.38753,5.84281 -20.04664,8.11965 l -9.67573,2.52932 c -8.82483,2.27239 -15.41621,5.27444 -19.79971,9.01059 -4.11433,3.51481 -6.17427,8.28649 -6.17427,14.29059 0,9.74135 2.70729,16.6019 8.12076,20.60722 5.95293,4.38461 13.6944,6.50017 23.21887,6.34 6.43899,-0.109 11.7657,-0.84311 15.98903,-2.19898 6.439,-2.05549 12.3263,-4.41019 17.63188,-7.06075 v 7.6169 c -1.19125,0.86869 -6.93062,2.98536 -17.21477,6.33888 -4.00644,1.29915 -9.77139,1.9465 -17.29708,1.9465 z"
         style="fill:#000000;fill-opacity:1;fill-rule:nonzero;stroke:none;stroke-width:1.11228085" /><path
         inkscape:connector-curvature="0"
         id="path4745"
         d="M 4.5291146,243.62441 V 122.41136 H 34.33911 c 21.971996,0 38.157256,4.913 48.550408,14.71113 10.393155,9.79697 15.571393,25.13085 15.571384,46.02165 0,20.78077 -5.14904,36.05217 -15.489915,45.79691 -10.336429,9.79364 -26.551989,14.68336 -48.631877,14.68336 z m 8.2867094,-6.89683 h 24.025918 c 18.291458,0 31.683294,-4.29577 40.182232,-12.90257 8.550101,-8.65911 12.84717,-22.28569 12.84717,-40.85188 0,-18.66964 -4.297069,-32.32475 -12.84717,-40.98385 C 68.525036,133.329 55.1332,129.00195 36.841742,129.00195 H 12.815824 Z"
         style="fill:#000000;fill-opacity:1;fill-rule:nonzero;stroke:none;stroke-width:1.11228085" /><path
         inkscape:connector-curvature="0"
         id="path4743"
         d="M 204.74022,239.17473 V 213.33979 H 193.8699 v -6.31331 h 10.87032 v -54.6408 c 0,-11.30967 2.61942,-19.13901 7.81154,-23.46579 5.19658,-4.33233 11.49654,-6.50906 18.90878,-6.50906 h 11.59664 v 6.33889 h -12.01375 c -7.03406,0 -12.39081,3.03319 -16.07134,9.094 -1.78521,2.76291 -2.66725,7.6169 -2.66725,14.54196 v 54.6408 h 30.75234 v 6.31331 h -30.75234 v 25.83494 z"
         style="fill:#000000;fill-opacity:1;fill-rule:nonzero;stroke:none;stroke-width:1.11228085" /><path
         inkscape:connector-curvature="0"
         id="path4739"
         d="m 143.5653,215.53829 c -5.57474,0 -11.4022,-0.88134 -17.46302,-2.67206 -4.1666,-1.24247 -8.6414,-3.36329 -13.4598,-6.33975 v -8.03412 c 5.52248,3.78949 9.99727,6.31924 13.4598,7.56162 5.40902,1.95097 10.73653,2.91974 15.9331,2.91974 10.50105,0 18.00498,-2.616 22.54976,-7.81255 4.60151,-5.19655 6.90016,-11.81693 6.90016,-19.88091 v -1.44852 h -18.49113 c -15.37283,0 -26.43897,-2.85384 -33.20387,-8.53756 -6.76488,-5.62592 -10.15064,-13.16043 -10.15064,-22.57583 0,-9.41882 2.58993,-16.54023 7.78651,-21.41093 5.19658,-4.81832 12.31819,-7.23086 21.35547,-7.23086 5.41346,0 10.85675,1.32215 16.3225,3.97718 6.87389,3.30123 12.37912,10.98339 16.54572,23.04833 v -24.69072 h 7.39384 v 51.8889 c 0,15.42506 -2.99669,25.93136 -9.00523,31.50614 -6.93063,6.49458 -15.75857,9.7319 -26.47317,9.7319 z m 7.62033,-41.79362 h 20.29967 v -5.61632 c 0,-8.49894 -2.50244,-17.56423 -7.53886,-27.19652 -4.97856,-9.6368 -13.16134,-14.45862 -24.52774,-14.45862 -6.00409,0 -11.18678,1.67676 -15.57139,5.03137 -4.3835,3.35353 -6.5857,9.06353 -6.5857,17.07521 0,8.22532 2.64548,14.46321 7.95106,18.73879 5.30558,4.27566 13.95476,6.42609 25.97296,6.42609 z"
         style="fill:#000000;fill-opacity:1;fill-rule:nonzero;stroke:none;stroke-width:1.11228085" /><path
         inkscape:connector-curvature="0"
         id="path4737"
         d="m 289.66459,215.53829 c -5.57475,0 -11.3999,-0.88134 -17.46628,-2.67206 -4.16661,-1.24247 -8.64258,-3.36329 -13.45654,-6.33975 v -8.03412 c 5.51803,3.78949 9.994,6.31924 13.45654,7.56162 5.41459,1.95097 10.71046,2.91974 15.90703,2.91974 10.50215,0 18.0343,-2.616 22.57908,-7.81255 4.60151,-5.19655 6.89528,-11.81693 6.89528,-19.88091 v -1.44852 h -18.49114 c -15.37171,0 -26.46503,-2.85384 -33.22992,-8.53756 -6.7649,-5.62592 -10.11807,-13.16043 -10.11807,-22.57583 0,-9.41882 2.58994,-16.54023 7.78651,-21.41093 5.19213,-4.81832 12.31211,-7.23086 21.35384,-7.23086 5.40902,0 10.85394,1.32215 16.32413,3.97718 6.87279,3.30123 12.37467,10.98339 16.54573,23.04833 v -24.69072 h 7.39384 v 51.8889 c 0,15.42506 -3.0021,25.93136 -9.01176,31.50614 -6.92506,6.49458 -15.75478,9.7319 -26.46827,9.7319 z m 7.61707,-41.79362 h 20.29804 v -5.61632 c 0,-8.49894 -2.50313,-17.56423 -7.53397,-27.19652 -4.97968,-9.6368 -13.15972,-14.45862 -24.52612,-14.45862 -6.00854,0 -11.21396,1.67676 -15.59746,5.03137 -4.38461,3.35353 -6.56615,9.06353 -6.56615,17.07521 0,8.22532 2.65038,14.46321 7.95596,18.73879 5.30002,4.27566 13.95595,6.42609 25.9697,6.42609 z"
         style="fill:#000000;fill-opacity:1;fill-rule:nonzero;stroke:none;stroke-width:1.11228085" /><path
         inkscape:connector-curvature="0"
         id="path4735"
         d="m 525.32959,215.53877 c -13.31734,0 -23.88401,-3.59378 -31.73115,-10.78913 -7.84603,-7.25541 -11.78684,-19.55612 -11.78684,-36.93106 0,-17.37049 3.94081,-29.70124 11.78684,-36.95219 7.84714,-7.1998 18.41381,-10.78913 31.73115,-10.78913 4.3835,0 8.82372,0.46938 13.31623,1.44263 4.44022,0.97769 8.73807,2.44591 12.90468,4.39685 v 7.56017 c -4.22333,-2.32467 -8.46001,-4.06205 -12.73451,-5.19658 -4.22333,-1.19014 -8.49003,-1.80745 -12.82237,-1.80745 -13.09488,0 -22.48476,3.35464 -28.1674,10.0628 -5.68264,6.71262 -8.53787,17.15805 -8.53787,31.2829 0,14.02141 2.85523,24.37897 8.53787,31.09159 5.68264,6.70928 15.07252,10.0628 28.1674,10.0628 4.60151,0 9.39766,-0.79083 14.43407,-2.36359 2.91974,-0.97325 6.63031,-2.82854 11.12281,-5.58699 v 7.95058 c -3.41137,1.95094 -7.53459,3.51036 -12.40527,4.70161 -4.86957,1.24687 -9.48887,1.86419 -13.81564,1.86419 z"
         style="fill:#000000;fill-opacity:1;fill-rule:nonzero;stroke:none;stroke-width:1.11228085" /><path
         inkscape:connector-curvature="0"
         id="path4733"
         d="m 638.86485,215.53829 c -12.82571,0 -22.86275,-4.122 -30.06254,-12.40405 -7.03407,-7.95503 -10.53681,-20.04791 -10.53681,-36.23277 0,-15.58522 3.82365,-27.38988 11.50951,-35.45395 7.09079,-7.57797 17.65697,-11.37096 31.67393,-11.37096 3.30236,0 7.77292,0.58745 13.4044,1.77754 5.62591,1.19017 11.10032,2.93008 16.46262,5.20247 v 7.86794 c -5.30558,-2.8107 -10.66189,-4.9326 -16.07647,-6.33967 -5.35675,-1.40815 -9.65368,-2.11163 -12.89931,-2.11163 -12.39637,0 -21.72426,3.26393 -28.00308,9.75968 -5.68265,5.8439 -8.53763,16.05655 -8.53763,30.66858 h 69.0179 v 4.72831 c 0,13.20831 -3.0021,23.91782 -9.01176,32.14647 -6.06082,7.84709 -15.03602,11.76204 -26.94076,11.76204 z m 0.13849,-6.56457 c 8.28093,0 14.84257,-2.616 19.66097,-7.81255 5.73492,-5.84389 8.58977,-15.14543 8.58977,-27.91994 H 606.1351 c 1.13787,13.36956 4.522,22.57999 10.14903,27.61528 6.11755,5.41012 13.67747,8.11721 22.71921,8.11721 z"
         style="fill:#000000;fill-opacity:1;fill-rule:nonzero;stroke:none;stroke-width:1.11228085" /><path
         inkscape:connector-curvature="0"
         id="path4731"
         d="m 730.15388,215.53877 c -7.73813,0 -14.80334,-2.18119 -21.19006,-6.5658 -4.32677,-2.91974 -7.80265,-7.1553 -10.45321,-12.67778 v 17.0446 h -7.48232 v -90.92896 h 7.48232 v 51.4174 c 0,12.99033 3.06322,22.08434 9.23304,27.33319 6.1131,5.19658 13.49864,7.81155 22.10658,7.81155 7.35996,0 12.92137,-2.41142 16.7098,-7.22982 3.78843,-4.81396 5.67485,-13.11268 5.67485,-24.91287 v -54.41945 h 7.47676 v 54.89328 c 0,13.31178 -2.67615,22.99641 -8.0329,29.05834 -5.3623,6.11754 -12.53985,9.17632 -21.52486,9.17632 z"
         style="fill:#000000;fill-opacity:1;fill-rule:nonzero;stroke:none;stroke-width:1.11228085" /><path
         inkscape:connector-curvature="0"
         id="path4729"
         d="m 818.99732,215.53877 c -13.31289,0 -23.90959,-3.59378 -31.75673,-10.78913 -7.84603,-7.25541 -11.76126,-19.55612 -11.76126,-36.93106 0,-17.37049 3.91523,-29.70124 11.76126,-36.95219 7.84714,-7.1998 18.44384,-10.78913 31.75673,-10.78913 4.3835,0 8.79814,0.46938 13.29064,1.44263 4.44023,0.97769 8.76366,2.44591 12.93027,4.39685 v 7.56017 c -4.21888,-2.32467 -8.48559,-4.06205 -12.76009,-5.19658 -4.22333,-1.19014 -8.49004,-1.80745 -12.82237,-1.80745 -13.09489,0 -22.48476,3.35464 -28.1674,10.0628 -5.68265,6.71262 -8.53787,17.15805 -8.53787,31.2829 0,14.02141 2.85522,24.37897 8.53787,31.09159 5.68264,6.70928 15.07251,10.0628 28.1674,10.0628 4.6015,0 9.4288,-0.79083 14.45965,-2.36359 2.92418,-0.97325 6.6303,-2.82854 11.12281,-5.58699 v 7.95058 c -3.41026,1.95094 -7.56018,3.51036 -12.43085,4.70161 -4.86957,1.24687 -9.45773,1.86419 -13.79006,1.86419 z"
         style="fill:#000000;fill-opacity:1;fill-rule:nonzero;stroke:none;stroke-width:1.11228085" /><path
         inkscape:connector-curvature="0"
         id="path4727"
         d="m 898.60737,215.53829 c -12.82565,0 -22.83176,-4.122 -30.03158,-12.40405 -7.03406,-7.95503 -10.56611,-20.04791 -10.56611,-36.23277 0,-15.58522 3.85463,-27.38988 11.54047,-35.45395 7.09079,-7.57797 17.65256,-11.37096 31.67398,-11.37096 3.3023,0 7.74748,0.58745 13.37339,1.77754 5.6315,1.19017 11.13029,2.93008 16.48709,5.20247 v 7.86794 c -5.30008,-2.8107 -10.65654,-4.9326 -16.06998,-6.33967 -5.35672,-1.40815 -9.65365,-2.11163 -12.89932,-2.11163 -12.39637,0 -21.72535,3.26393 -28.00303,9.75968 -5.68381,5.8439 -8.53765,16.05655 -8.53765,30.66858 h 69.01792 v 4.72831 c 0,13.20831 -3.00216,23.91782 -9.01181,32.14647 -6.0608,7.84709 -15.06418,11.76204 -26.97337,11.76204 z m 0.17109,-6.56457 c 8.27654,0 14.84053,-2.616 19.65451,-7.81255 5.74046,-5.84389 8.59463,-15.14543 8.59463,-27.91994 h -61.11895 c 1.13336,13.36956 4.5175,22.57999 10.14901,27.61528 6.11309,5.41012 13.67913,8.11721 22.7208,8.11721 z"
         style="fill:#000000;fill-opacity:1;fill-rule:nonzero;stroke:none;stroke-width:1.11228085" /><path
         id="path4711-3"
         d="m 573.78172,249.3048 v -10.23298 h 7.48231 v 10.23298 z"
         style="fill:#000000;fill-opacity:1;fill-rule:nonzero;stroke:none;stroke-width:1.11228085"
         inkscape:connector-curvature="0" /><path
         inkscape:connector-curvature="0"
         id="path4725"
         d="m 573.90375,213.3398 v -90.92897 h 7.48232 v 90.92897 z"
         style="fill:#000000;fill-opacity:1;fill-rule:nonzero;stroke:none;stroke-width:1.11228085" /></g><g
       id="g4931"
       transform="translate(116.84653,-3)"><path
         inkscape:connector-curvature="0"
         id="path4715"
         d="M 202.09827,82.482169 V -43.845129 h 7.48232 V 82.482169 Z"
         style="fill:#000000;fill-opacity:1;fill-rule:nonzero;stroke:none;stroke-width:1.11228085" /><path
         inkscape:connector-curvature="0"
         id="path4713"
         d="M 243.50515,82.482169 V -43.845129 h 7.47675 V 82.482169 Z"
         style="fill:#000000;fill-opacity:1;fill-rule:nonzero;stroke:none;stroke-width:1.11228085" /><path
         inkscape:connector-curvature="0"
         id="path4709"
         d="m 57.697523,79.562431 c -16.996763,0 -30.357481,-5.622579 -40.098837,-16.879974 C 7.8573305,51.47734 3,36.117853 3,16.635142 c 0,-19.4293219 4.8573305,-34.763226 14.598686,-46.02062 9.741356,-11.205118 23.102074,-16.823248 40.098837,-16.823248 7.143068,0 13.912409,0.99994 20.299126,2.946432 6.438994,1.95094 12.529844,4.861779 18.270325,8.759212 v 9.814766 c -5.522474,-5.030847 -11.379745,-8.829286 -17.606293,-11.370847 -6.277714,-2.489285 -12.955848,-3.727254 -19.989912,-3.727254 -15.26383,0 -26.916084,4.857331 -34.980121,14.54196 -8.120762,9.689079 -12.183924,23.6404176 -12.183924,41.879599 0,18.240294 4.063162,32.187183 12.183924,41.819536 8.064037,9.636801 19.716291,14.459651 34.980121,14.459651 7.034064,0 13.712198,-1.264664 19.989912,-3.753948 C 84.887229,66.72671 90.7445,62.990559 96.266974,57.955263 v 9.340935 c -5.631478,4.114327 -11.662265,7.177548 -18.105708,9.176317 -6.386716,2.059944 -13.212784,3.089916 -20.463743,3.089916 z"
         style="fill:#000000;fill-opacity:1;fill-rule:nonzero;stroke:none;stroke-width:1.11228085" /><path
         inkscape:connector-curvature="0"
         id="path4707"
         d="M 453.91643,72.914329 V 47.08383 h -10.87032 v -6.343337 h 10.87032 v -54.640797 c 0,-11.309672 2.59384,-19.107873 7.78597,-23.440207 5.19658,-4.327885 11.49653,-6.504618 18.90877,-6.504618 h 11.62779 v 6.340001 h -12.01375 c -7.03851,0 -12.39192,3.032077 -16.07134,9.092895 -1.79078,2.759569 -2.6984,7.586868 -2.6984,14.511929 v 54.640797 h 30.78349 v 6.343337 h -30.78349 v 25.830499 z"
         style="fill:#000000;fill-opacity:1;fill-rule:nonzero;stroke:none;stroke-width:1.11228085" /><path
         inkscape:connector-curvature="0"
         id="path4705"
         d="m 144.45573,49.277777 c -11.63557,0 -20.84716,-4.295768 -27.61205,-12.899316 -6.76934,-8.606802 -10.14902,-20.200077 -10.14902,-34.7598056 0,-14.9368754 3.35287,-26.7103404 10.06104,-35.3138884 6.76489,-8.606801 16.00773,-12.904154 27.70003,-12.904154 11.58329,0 20.73213,4.327051 27.44585,12.987325 6.76489,8.606801 10.15066,20.346147 10.15066,35.2307174 0,14.3951386 -3.38577,25.9621366 -10.15066,34.6734646 -6.71372,8.663611 -15.86256,12.985657 -27.44585,12.985657 z m 0.0814,-6.590515 c 9.25418,0 16.55432,-3.706564 21.91106,-11.175503 5.41348,-7.469021 8.12052,-17.413146 8.12052,-29.8084313 0,-12.7745177 -2.70704,-22.8982477 -8.12052,-30.3671857 -5.35674,-7.412212 -12.65688,-11.121697 -21.91106,-11.121697 -9.3109,0 -16.63578,3.709485 -21.99253,11.121697 -5.36231,7.35999 -8.06349,17.484805 -8.06349,30.3671857 0,12.5565383 2.70498,22.5005793 8.114,29.8605703 5.36231,7.416633 12.68784,11.123364 21.94202,11.123364 z"
         style="fill:#000000;fill-opacity:1;fill-rule:nonzero;stroke:none;stroke-width:1.11228085" /><path
         inkscape:connector-curvature="0"
         id="path4703"
         d="m 311.46241,49.277777 c -12.8257,0 -22.83178,-4.148029 -30.03158,-12.429989 -7.03406,-7.955033 -10.53516,-20.021473 -10.53516,-36.20182224 0,-15.58864376 3.82201,-27.41925276 11.50787,-35.48331676 7.09079,-7.577969 17.65252,-11.371041 31.67393,-11.371041 3.30236,0 7.77292,0.616815 13.4044,1.806983 5.62591,1.191253 11.10099,2.925076 16.45774,5.197466 v 7.871278 c -5.30002,-2.815211 -10.65812,-4.934773 -16.07159,-6.342921 -5.35675,-1.403726 -9.65368,-2.109969 -12.89931,-2.109969 -12.39637,0 -21.72537,3.236154 -28.00309,9.731902 -5.68375,5.843896 -8.53762,16.084248 -8.53762,30.69961876 h 69.0179 V 5.343239 c 0,13.208391 -3.00047,23.948853 -9.01012,32.17417 -6.06082,7.846001 -15.06418,11.760368 -26.97337,11.760368 z m 0.16946,-6.590515 c 8.27648,0 14.84213,-2.589973 19.65609,-7.786522 5.74047,-5.843979 8.59464,-15.141674 8.59464,-27.9151071 h -61.11896 c 1.13342,13.3684761 4.51754,22.5490471 10.14902,27.5843431 6.1131,5.410106 13.67747,8.117286 22.71921,8.117286 z"
         style="fill:#000000;fill-opacity:1;fill-rule:nonzero;stroke:none;stroke-width:1.11228085" /><path
         inkscape:connector-curvature="0"
         id="path4701"
         d="m 404.69801,49.278361 c -13.31178,0 -23.87845,-3.589331 -31.72559,-10.788012 -7.84714,-7.252072 -11.7924,-19.582817 -11.7924,-36.9577564 0,-17.3704896 3.94526,-29.6745406 11.7924,-36.9266116 7.84714,-7.195345 18.41381,-10.814707 31.72559,-10.814707 4.38461,0 8.82928,0.500526 13.32178,1.473772 4.43578,0.973246 8.73363,2.445906 12.90469,4.392397 v 7.533478 c -4.22333,-2.324667 -8.46446,-4.062049 -12.74007,-5.196576 -4.21888,-1.19014 -8.48448,-1.780762 -12.81681,-1.780762 -13.09933,0 -22.51479,3.353527 -28.19855,10.067254 -5.68264,6.712615 -8.50672,17.126901 -8.50672,31.2517556 0,14.0214124 2.82408,24.3789714 8.50672,31.0915864 5.68376,6.709278 15.09922,10.062805 28.19855,10.062805 4.6015,0 9.39766,-0.764137 14.43407,-2.332453 2.91973,-0.973245 6.6303,-2.859674 11.12281,-5.61813 v 7.950583 c -3.41137,1.950941 -7.53459,3.537053 -12.40527,4.727194 -4.87068,1.246867 -9.48887,1.864183 -13.8212,1.864183 z"
         style="fill:#000000;fill-opacity:1;fill-rule:nonzero;stroke:none;stroke-width:1.11228085" /><path
         inkscape:connector-curvature="0"
         id="path4699"
         d="m 666.47606,49.277777 c -12.8257,0 -22.83177,-4.148029 -30.03158,-12.429989 -7.03406,-7.955033 -10.56775,-20.021473 -10.56775,-36.20182224 0,-15.58864376 3.8546,-27.41925276 11.54046,-35.48331676 7.09079,-7.577969 17.65252,-11.371041 31.67393,-11.371041 3.2968,0 7.74197,0.616815 13.37345,1.806983 5.63147,1.191253 11.13195,2.925076 16.48868,5.197466 v 7.871278 c -5.30445,-2.815211 -10.65811,-4.934773 -16.07158,-6.342921 -5.35674,-1.403726 -9.65411,-2.109969 -12.90419,-2.109969 -12.39081,0 -21.75033,3.236154 -28.02916,9.731902 -5.68264,5.843896 -8.50666,16.084248 -8.50666,30.69961876 H 702.4286 V 5.343239 c 0,13.208391 -3.00115,23.948853 -9.00524,32.17417 -6.06638,7.846001 -15.03811,11.760368 -26.9473,11.760368 z m 0.16458,-6.590515 c 8.28204,0 14.8165,-2.589973 19.6349,-7.786522 5.73492,-5.843979 8.61909,-15.141674 8.61909,-27.9151071 H 633.7773 c 1.13341,13.3684761 4.49214,22.5490471 10.11805,27.5843431 6.11756,5.410106 13.708,8.117286 22.74529,8.117286 z"
         style="fill:#000000;fill-opacity:1;fill-rule:nonzero;stroke:none;stroke-width:1.11228085" /><g
         transform="matrix(1.1122809,0,0,1.1122809,-53.726324,-46.599137)"
         id="g4809"><path
           inkscape:connector-curvature="0"
           style="fill:#000000;fill-opacity:1;fill-rule:nonzero;stroke:none"
           d="m 506.75,116.051 v -9.2 h 6.727 v 9.2 z"
           id="path4711" /><path
           inkscape:connector-curvature="0"
           style="fill:#000000;fill-opacity:1;fill-rule:nonzero;stroke:none"
           d="M 506.75,84.226 V 2.476 h 6.727 v 81.75 z"
           id="path4697" /></g><path
         inkscape:connector-curvature="0"
         id="path4695"
         d="m 534.86601,47.08383 33.84226,-90.928959 h 9.59342 l 33.83669,90.928959 h -7.86827 L 573.51777,-35.642058 542.65198,47.08383 Z"
         style="fill:#000000;fill-opacity:1;fill-rule:nonzero;stroke:none;stroke-width:1.11228085" /></g></g></svg>