<?xml version="1.0" encoding="utf-8"?>
<!-- Generator: Adobe Illustrator 21.0.2, SVG Export Plug-In . SVG Version: 6.00 Build 0)  -->
<svg version="1.1" id="Layer_1" xmlns="http://www.w3.org/2000/svg" xmlns:xlink="http://www.w3.org/1999/xlink" x="0px" y="0px"
	 viewBox="0 0 240 119.5" style="enable-background:new 0 0 240 119.5;" xml:space="preserve">
<style type="text/css">
	.st0{fill:#FFFFFF;}
	.st1{fill:none;}
	.st2{fill:#B6ACD1;}
</style>
<g>
	<polygon class="st0" points="32.9,81 5,47.9 0,47.9 0,91.9 6.3,91.9 6.3,59.3 34.1,91.9 39.3,91.9 39.3,47.9 32.9,47.9 	"/>
	<rect x="45.2" y="47.9" class="st0" width="6.1" height="44"/>
	<path class="st0" d="M79,87c-9.5,0-17.2-7.7-17.2-17.2S69.5,52.7,79,52.7c4.5,0,8.5,1.7,11.6,4.5l4.1-4.1
		c-4.1-3.9-9.6-6.2-15.7-6.2c-12.7,0-23,10.3-23,23s10.3,23,23,23c6.1,0,11.6-2.4,15.7-6.2l-4.1-4.1C87.5,85.3,83.4,87,79,87z"/>
</g>
<g>
	<path class="st1" d="M117.4,52.6c-9.5,0-17.2,7.7-17.2,17.2S107.9,87,117.4,87c9.4,0,17.2-7.7,17.2-17.2S126.9,52.6,117.4,52.6z"/>
	<path class="st2" d="M235.3,64.3c-2.4,0-4.3,1.7-4.6,4l-90.4,0.9c0-1.9-0.4-3.7-0.8-5.6l53-14c1.1,3.1,4.1,5.3,7.6,5.3
		c4.4,0,8-3.6,8-8c0-4.4-3.6-8-8-8c-4.4,0-8,3.6-8,8c0,0.4,0.1,0.8,0.1,1.2L139,62.1c-0.8-2-1.8-4-3.1-5.8l63.9-48.5
		c0.8,0.8,1.9,1.3,3.2,1.3c2.5,0,4.6-2.1,4.6-4.6s-2.1-4.6-4.6-4.6s-4.6,2.1-4.6,4.6c0,0.8,0.2,1.5,0.6,2.1l-63.9,48.5
		c-2-2.5-4.5-4.5-7.3-5.9l5.1-11.4c0.2,0,0.4,0.1,0.6,0.1c1.8,0,3.3-1.5,3.3-3.3c0-1.8-1.5-3.3-3.3-3.3c-1.8,0-3.3,1.5-3.3,3.3
		c0,1.1,0.5,2,1.3,2.6l-5.1,11.3c-2.7-1.2-5.8-1.9-9-1.9c-12.7,0-23,10.3-23,23s10.3,23,23,23c4.2,0,8-1.1,11.4-3l12.3,19.4
		c-1.3,1.1-2.1,2.6-2.1,4.4c0,3.2,2.6,5.8,5.8,5.8c3.2,0,5.8-2.6,5.8-5.8s-2.6-5.8-5.8-5.8c-0.9,0-1.7,0.2-2.4,0.6l-12.3-19.4
		c6-3.9,10-10.6,10.2-18.3l90.4-0.9c0.4,2.2,2.3,3.8,4.6,3.8c2.6,0,4.7-2.1,4.7-4.7C240,66.4,237.9,64.3,235.3,64.3z M117.4,87
		c-9.5,0-17.2-7.7-17.2-17.2s7.7-17.2,17.2-17.2s17.2,7.7,17.2,17.2S126.8,87,117.4,87z"/>
</g>
</svg>
