<?xml version="1.0" encoding="UTF-8"?>
<svg width="72px" height="72px" viewBox="0 0 72 72" version="1.1" xmlns="http://www.w3.org/2000/svg" xmlns:xlink="http://www.w3.org/1999/xlink">
    <!-- Generator: Sketch 59.1 (86144) - https://sketch.com -->
    <title>data</title>
    <desc>Created with Sketch.</desc>
    <g id="data" stroke="none" stroke-width="1" fill="none" fill-rule="evenodd">
        <g>
            <rect id="Rectangle" x="0" y="0" width="72" height="72"></rect>
            <g id="icons8-heat_map" transform="translate(15.000000, 15.000000)" fill="#6C757D" fill-rule="nonzero">
                <path d="M0.984375,0.986205963 C0.432858843,0.994949173 -0.00755266444,1.44846818 -9.5706066e-05,2 L-9.5706066e-05,43.0001004 L41,43.0001004 C41.3606359,43.0051003 41.6960814,42.8156247 41.8778877,42.5041272 C42.0596941,42.1926296 42.0596941,41.8073704 41.8778877,41.4958728 C41.6960814,41.1843753 41.3606359,40.9948997 41,41 L2,41 L2,2 C2.00370143,1.72969968 1.89782329,1.46941339 1.7064903,1.27844834 C1.51515731,1.0874833 1.25466769,0.982106372 0.984375,0.986205963 Z M18.5,1 C15.474279,1 13,3.4742785 13,6.5 C13,9.525721 15.474279,12 18.5,12 C21.525721,12 24,9.525721 24,6.5 C24,3.4742785 21.525721,1 18.5,1 Z M7.5,3 C5.578848,3 4,4.578848 4,6.5 C4,8.421152 5.578848,10 7.5,10 C9.421152,10 11,8.421152 11,6.5 C11,4.578848 9.421152,3 7.5,3 Z M18.5,3 C20.444841,3 22,4.5551587 22,6.5 C22,8.444841 20.444841,10 18.5,10 C16.555159,10 15,8.444841 15,6.5 C15,4.5551587 16.555159,3 18.5,3 Z M29.5,3 C27.578848,3 26,4.578848 26,6.5 C26,8.421152 27.578848,10 29.5,10 C31.421152,10 33,8.421152 33,6.5 C33,4.578848 31.421152,3 29.5,3 Z M38.5,3 C36.578848,3 35,4.578848 35,6.5 C35,8.421152 36.578848,10 38.5,10 C40.421152,10 42,8.421152 42,6.5 C42,4.578848 40.421152,3 38.5,3 Z M7.5,5 C8.340272,5 9,5.6597282 9,6.5 C9,7.340272 8.340272,8 7.5,8 C6.659728,8 6,7.340272 6,6.5 C6,5.6597282 6.659728,5 7.5,5 Z M29.5,5 C30.340272,5 31,5.6597282 31,6.5 C31,7.340272 30.340272,8 29.5,8 C28.659728,8 28,7.340272 28,6.5 C28,5.6597282 28.659728,5 29.5,5 Z M38.5,5 C39.340272,5 40,5.6597282 40,6.5 C40,7.340272 39.340272,8 38.5,8 C37.659728,8 37,7.340272 37,6.5 C37,5.6597282 37.659728,5 38.5,5 Z M25.5,15 C22.474279,15 20,17.474279 20,20.5 C20,23.525721 22.474279,26 25.5,26 C28.525721,26 31,23.525721 31,20.5 C31,17.474279 28.525721,15 25.5,15 Z M8,16 C5.8027056,16 4,17.802706 4,20 C4,22.197294 5.8027056,24 8,24 C10.197294,24 12,22.197294 12,20 C12,17.802706 10.197294,16 8,16 Z M38,16 C35.802706,16 34,17.802706 34,20 C34,22.197294 35.802706,24 38,24 C40.197294,24 42,22.197294 42,20 C42,17.802706 40.197294,16 38,16 Z M25.5,17 C27.444841,17 29,18.555159 29,20.5 C29,22.444841 27.444841,24 25.5,24 C23.555159,24 22,22.444841 22,20.5 C22,18.555159 23.555159,17 25.5,17 Z M8,18 C9.116414,18 10,18.883586 10,20 C10,21.116414 9.116414,22 8,22 C6.883586,22 6,21.116414 6,20 C6,18.883586 6.883586,18 8,18 Z M38,18 C39.116414,18 40,18.883586 40,20 C40,21.116414 39.116414,22 38,22 C36.883586,22 36,21.116414 36,20 C36,18.883586 36.883586,18 38,18 Z M18.5,28 C15.474279,28 13,30.474279 13,33.5 C13,36.525721 15.474279,39 18.5,39 C21.525721,39 24,36.525721 24,33.5 C24,30.474279 21.525721,28 18.5,28 Z M7.5,30 C5.578848,30 4,31.578848 4,33.5 C4,35.421152 5.578848,37 7.5,37 C9.421152,37 11,35.421152 11,33.5 C11,31.578848 9.421152,30 7.5,30 Z M18.5,30 C20.444841,30 22,31.555159 22,33.5 C22,35.444841 20.444841,37 18.5,37 C16.555159,37 15,35.444841 15,33.5 C15,31.555159 16.555159,30 18.5,30 Z M29.5,30 C27.578848,30 26,31.578848 26,33.5 C26,35.421152 27.578848,37 29.5,37 C31.421152,37 33,35.421152 33,33.5 C33,31.578848 31.421152,30 29.5,30 Z M38.5,30 C36.578848,30 35,31.578848 35,33.5 C35,35.421152 36.578848,37 38.5,37 C40.421152,37 42,35.421152 42,33.5 C42,31.578848 40.421152,30 38.5,30 Z M7.5,32 C8.340272,32 9,32.659728 9,33.5 C9,34.340272 8.340272,35 7.5,35 C6.659728,35 6,34.340272 6,33.5 C6,32.659728 6.659728,32 7.5,32 Z M29.5,32 C30.340272,32 31,32.659728 31,33.5 C31,34.340272 30.340272,35 29.5,35 C28.659728,35 28,34.340272 28,33.5 C28,32.659728 28.659728,32 29.5,32 Z M38.5,32 C39.340272,32 40,32.659728 40,33.5 C40,34.340272 39.340272,35 38.5,35 C37.659728,35 37,34.340272 37,33.5 C37,32.659728 37.659728,32 38.5,32 Z" id="Shape"></path>
            </g>
        </g>
    </g>
</svg>