<?xml version="1.0" encoding="UTF-8"?>
<svg width="72px" height="72px" viewBox="0 0 72 72" version="1.1" xmlns="http://www.w3.org/2000/svg" xmlns:xlink="http://www.w3.org/1999/xlink">
    <!-- Generator: Sketch 59.1 (86144) - https://sketch.com -->
    <title>lecture</title>
    <desc>Created with Sketch.</desc>
    <g id="lecture" stroke="none" stroke-width="1" fill="none" fill-rule="evenodd">
        <g>
            <rect id="Rectangle" x="0" y="0" width="72" height="72"></rect>
            <g id="icons8-podium_with_speaker" transform="translate(10.000000, 10.000000)" fill="#6C757D" fill-rule="nonzero">
                <path d="M25.09375,0.874791102 C23.164063,0.859375 20.945313,1.71875 19.5625,3.96875 C18.300781,5.96875 17.882813,8.625 18.625,11.03125 C18.585938,11.101563 18.496094,11.152344 18.46875,11.21875 C18.371094,11.460938 18.34375,11.695313 18.3125,12 C18.171875,13.402344 18.722656,14.738281 19.375,15.65625 C19.386719,15.675781 19.394531,15.667969 19.40625,15.6875 C19.667969,16.058594 19.886719,16.117188 20.125,16.25 C20.226563,16.683594 20.628906,17.871094 21.71875,19.28125 C21.757813,19.527344 21.703125,19.675781 21.5625,19.84375 C21.4375,19.992188 21.328125,20.03125 21.28125,20.0625 C19.265625,20.441406 17.328125,21.140625 15.75,22.03125 C14.328125,22.835938 13.171875,23.800781 12.53125,25 L4,25 C2.355469,25 1,26.355469 1,28 L1,29.6875 C0.890625,30.042969 0.9882812,30.425781 1.25,30.6875 L5.125,37.5 C5.304688,37.8125 5.640625,38.003906 6,38 L10.4375,38 L12.40625,50.15625 C12.433594,50.53125 12.671875,50.859375 13.019531,51.003906 C13.367188,51.148438 13.769531,51.085938 14.054688,50.839844 C14.339844,50.59375 14.464844,50.210938 14.375,49.84375 L12.3125,37 C12.3125,36.980469 12.3125,36.957031 12.3125,36.9375 L12.3125,36.875 C12.304688,36.777344 12.285156,36.683594 12.25,36.59375 L12,35 L40,35 L37.625,49.84375 C37.535156,50.210938 37.660156,50.59375 37.945313,50.839844 C38.230469,51.085938 38.632813,51.148438 38.980469,51.003906 C39.328125,50.859375 39.566406,50.53125 39.59375,50.15625 L41.5625,38 L46,38 C46.359375,38.003906 46.695313,37.8125 46.875,37.5 L50.875,30.5 C50.960938,30.347656 51.003906,30.175781 51.0002444,30 L51.0002444,28 C51.0002444,26.410156 49.726563,25.117188 48.15625,25.03125 C48.109375,23.941406 47.957031,22.980469 47.53125,22.125 C47.140625,21.339844 46.554688,20.671875 45.78125,20.09375 C45.917969,19.753906 46,19.386719 46,19 C46,17.355469 44.644531,16 43,16 C41.355469,16 40,17.355469 40,19 C40,20.644531 41.355469,22 43,22 C43.519531,22 44.007813,21.859375 44.4375,21.625 C45.074219,22.082031 45.460938,22.519531 45.71875,23.03125 C45.96875,23.527344 46.101563,24.160156 46.15625,25 L39.4375,25 C38.792969,23.851563 37.648438,22.929688 36.28125,22.15625 C34.671875,21.242188 32.707031,20.542969 30.625,20.125 C30.625,20.125 30.597656,20.125 30.59375,20.125 C30.5625,20.113281 30.421875,20.042969 30.34375,19.96875 C30.300781,19.929688 30.285156,19.921875 30.28125,19.90625 C30.277344,19.890625 30.277344,19.820313 30.40625,19.5625 C30.890625,18.90625 31.304688,18.230469 31.59375,17.65625 C31.832031,17.175781 31.957031,16.828125 32.0625,16.46875 C32.453125,16.164063 33.699219,15.101563 33.8125,13.15625 C33.867188,12.226563 33.789063,11.667969 33.625,11.21875 C33.601563,11.160156 33.558594,11.117188 33.53125,11.0625 C33.835938,9.789063 33.980469,7.964844 33.5,6.125 C33.230469,5.089844 32.742188,4.074219 31.875,3.34375 C31.160156,2.738281 30.152344,2.496094 29.03125,2.53125 C28.6875,2.078125 28.25,1.699219 27.71875,1.4375 C26.960938,1.0664063 26.058594,0.882812 25.09375,0.874791102 Z M25.09375,2.87480691 C25.765625,2.878906 26.390625,3.027344 26.84375,3.25 C27.296875,3.472656 27.519531,3.769531 27.5625,3.875 C27.734375,4.316406 28.191406,4.578125 28.65625,4.5 C29.632813,4.335938 30.167969,4.515625 30.59375,4.875 C31.019531,5.234375 31.359375,5.878906 31.5625,6.65625 C31.972656,8.214844 31.738281,10.339844 31.53125,11 C31.425781,11.339844 31.511719,11.707031 31.75,11.96875 C31.765625,12.027344 31.855469,12.304688 31.8125,13.03125 C31.746094,14.171875 30.59375,15.09375 30.59375,15.09375 C30.394531,15.246094 30.261719,15.46875 30.21875,15.71875 C30.207031,15.769531 30.042969,16.226563 29.78125,16.75 C29.519531,17.273438 29.171875,17.910156 28.71875,18.5 C28.671875,18.546875 28.628906,18.601563 28.59375,18.65625 C28.324219,19.199219 28.222656,19.742188 28.3125,20.25 C28.402344,20.757813 28.6875,21.175781 28.96875,21.4375 C29.53125,21.957031 30.15625,22.0625 30.15625,22.0625 C30.175781,22.074219 30.199219,22.085938 30.21875,22.09375 C32.125,22.476563 33.929688,23.121094 35.3125,23.90625 C35.917969,24.25 36.402344,24.632813 36.8125,25 L15.03125,25 C15.476563,24.574219 16.0625,24.140625 16.75,23.75 C18.15625,22.953125 19.984375,22.332031 21.875,22 C21.984375,21.976563 22.089844,21.933594 22.1875,21.875 C22.1875,21.875 22.644531,21.617188 23.0625,21.125 C23.480469,20.632813 23.917969,19.777344 23.6875,18.78125 C23.644531,18.617188 23.558594,18.464844 23.4375,18.34375 C22.222656,16.953125 22,15.53125 22,15.53125 C21.9375,15.214844 21.730469,14.949219 21.4375,14.8125 C21.238281,14.710938 21.003906,14.488281 21.03125,14.53125 C21.019531,14.53125 21.011719,14.53125 21,14.53125 C20.65625,14.050781 20.222656,12.773438 20.28125,12.1875 C20.289063,12.113281 20.304688,12.136719 20.3125,12.09375 C20.371094,12.050781 20.414063,12.066406 20.46875,12 C20.683594,11.742188 20.6875,11.460938 20.6875,11.3125 C20.695313,11.175781 20.671875,11.035156 20.625,10.90625 C19.871094,9.066406 20.226563,6.65625 21.25,5.03125 C22.265625,3.382813 23.746094,2.863281 25.09375,2.87480691 Z M20.09375,12.1875 C20.058594,12.21875 20.078125,12.253906 20.03125,12.28125 C19.960938,12.320313 19.898438,12.332031 19.84375,12.34375 C19.886719,12.335938 20.007813,12.226563 20.09375,12.1875 Z M43,18 C43.5625,18 44,18.4375 44,19 C44,19.242188 43.914063,19.453125 43.78125,19.625 C43.710938,19.679688 43.648438,19.742188 43.59375,19.8125 C43.429688,19.929688 43.222656,20 43,20 C42.4375,20 42,19.5625 42,19 C42,18.4375 42.4375,18 43,18 Z M4,27 L38.5625,27 C38.753906,27.058594 38.964844,27.058594 39.15625,27 L48,27 C48.554688,27 49,27.445313 49,28 L49,29 L3,29 L3,28 C3,27.445313 3.445313,27 4,27 Z M3.71875,31 L48.28125,31 L45.40625,36 L41.875,36 L42,35.25 C42.203125,34.027344 41.261719,33 40.09375,33 L11.90625,33 C10.75,33 9.8125,34.132813 10,35.25 L10.125,36 L6.59375,36 L3.71875,31 Z" id="Shape"></path>
            </g>
        </g>
    </g>
</svg>