<svg xmlns="http://www.w3.org/2000/svg" id="Layer_1" version="1.1" viewBox="0 0 350.68 53.53"><defs><clipPath id="clippath"><path d="M147.57 8.78h144.31v34.4H147.57z" class="st0"/></clipPath><clipPath id="clippath-1"><path d="M147.57 8.78h144.31v34.4H147.57z" class="st0"/></clipPath><clipPath id="clippath-2"><path d="M147.57 8.78h144.31v34.4H147.57z" class="st0"/></clipPath><style>.st0,.st2{fill:none}.st4{fill:#3e3d3f}.st5,.st6{fill:#231f20}.st7{fill:#faa61a}.st2{stroke:#fff;stroke-linejoin:round;stroke-width:.61px}.st11{fill:#094268}.st6{fill-rule:evenodd}</style></defs><path d="m23.16 8.9-7.23 18.01h6.82l2.18-7.24h.09l2.17 7.24h6.75L26.79 8.9h-3.63z" style="fill:#04b0d5"/><path d="M92.81 17.91c0-4.97-4.03-9.01-9.01-9.01h-4.02v5.31h4.02c2.05 0 3.71 1.66 3.71 3.71s-1.66 3.71-3.71 3.71h-4.02v5.28h4.02c4.98 0 9.01-4.03 9.01-9" style="fill:#f6b21a"/><path d="M108.49 17.91c0-4.97 4.03-9.01 9.01-9.01h4.02v5.31h-4.02c-2.05 0-3.71 1.66-3.71 3.71s1.66 3.71 3.71 3.71h4.02v5.28h-4.02c-4.98 0-9.01-4.03-9.01-9" style="fill:#8e499c"/><path d="M61.78 15.11c0-1.87-.73-3.72-2.22-4.92C58 8.95 55.91 8.9 54.01 8.9h-5.7v4.67h6.29c1.19 0 2.23.49 2.23 1.83s-.97 1.94-2.26 1.94h-5.02l6.87 9.58h6.85l-5.07-6.36c2.29-.79 3.59-2.98 3.59-5.45" style="fill:#e41d76"/><path d="M120.13 43.29c.89 0 1.39-.43 1.39-1.02 0-1.29-1.9-.89-1.9-1.36 0-.18.2-.31.5-.31.39 0 .75.17.95.37l.34-.6c-.32-.25-.74-.44-1.28-.44-.85 0-1.31.47-1.31 1 0 1.26 1.89.83 1.89 1.35 0 .2-.17.34-.54.34-.39 0-.86-.22-1.1-.44l-.36.61c.34.31.87.5 1.42.5m-1.87-.08v-2.25c0-.62-.34-1.02-1.04-1.02-.51 0-.91.25-1.12.49v-.41h-.84v3.19h.84v-2.15c.15-.19.4-.37.73-.37.36 0 .59.15.59.6v1.93h.85Zm-5.18-.67c-.52 0-.81-.43-.81-.93s.29-.92.81-.92.82.43.82.92c0 .5-.29.93-.82.93m0 .75c1.06 0 1.69-.77 1.69-1.68s-.63-1.67-1.69-1.67-1.68.77-1.68 1.67.63 1.68 1.68 1.68m-2.17-.08V40.9c0-.66-.35-.96-.94-.96-.49 0-.91.29-1.1.57-.11-.36-.42-.57-.89-.57s-.91.31-1.04.49v-.41h-.84v3.19h.84v-2.15c.13-.17.37-.37.66-.37.34 0 .48.21.48.51v2.02h.85v-2.15c.12-.17.36-.37.66-.37.34 0 .48.21.48.51v2.02h.85Zm-5.53 0V40.9c0-.66-.35-.96-.94-.96-.49 0-.91.29-1.1.57-.11-.36-.42-.57-.89-.57s-.91.31-1.04.49v-.41h-.84v3.19h.84v-2.15c.13-.17.37-.37.66-.37.34 0 .48.21.48.51v2.02h.85v-2.15c.12-.17.37-.37.66-.37.34 0 .48.21.48.51v2.02h.85Zm-6.98-.67c-.52 0-.81-.43-.81-.93s.29-.92.81-.92.82.43.82.92c0 .5-.29.93-.82.93m0 .75c1.06 0 1.69-.77 1.69-1.68s-.63-1.67-1.69-1.67-1.68.77-1.68 1.67c0 .9.63 1.68 1.68 1.68m-3.75 0c.96 0 1.53-.54 1.84-1.08l-.8-.39c-.19.36-.58.64-1.03.64-.8 0-1.39-.61-1.39-1.45s.58-1.45 1.39-1.45c.45 0 .85.28 1.03.64l.8-.39c-.31-.55-.87-1.08-1.84-1.08-1.33 0-2.35.92-2.35 2.28 0 1.35 1.02 2.27 2.35 2.27m-6.55-.56c-.33 0-.6-.17-.6-.48s.27-.48.6-.48c.27 0 .54.1.67.28v.39c-.14.19-.41.28-.67.28m1.52.5v-2.06c0-.92-.67-1.21-1.4-1.21-.5 0-1 .15-1.39.5l.33.59c.26-.25.58-.38.92-.38.42 0 .7.21.7.54v.4c-.21-.25-.58-.39-1.01-.39-.51 0-1.1.28-1.1 1.03s.6 1.06 1.1 1.06c.42 0 .79-.15 1.01-.42v.34h.85Zm-3.82.08c.35 0 .57-.09.7-.2l-.18-.64c-.04.05-.16.1-.29.1-.19 0-.29-.15-.29-.36v-1.43h.65v-.73h-.65v-.87h-.84v.87h-.53v.73h.53v1.66c0 .57.31.88.9.88m-3.31-.58c-.33 0-.6-.17-.6-.48s.27-.48.6-.48c.27 0 .54.1.67.28v.39c-.14.19-.41.28-.67.28m1.52.5v-2.06c0-.92-.67-1.21-1.4-1.21-.5 0-1.01.15-1.39.5l.33.59c.26-.25.58-.38.92-.38.42 0 .7.21.7.54v.4c-.21-.25-.58-.39-1.01-.39-.51 0-1.1.28-1.1 1.03s.59 1.06 1.1 1.06c.42 0 .79-.15 1.01-.42v.34h.85Zm-5.64-.82h-.8v-2.75h.8c.9 0 1.37.6 1.37 1.37s-.51 1.38-1.38 1.38m.02.82c1.37 0 2.33-.87 2.33-2.21s-.96-2.2-2.34-2.2h-1.74v4.41h1.74Zm-4.64 0v-2.26c0-.62-.34-1-1.04-1-.52 0-.91.25-1.12.49v-1.62h-.85v4.41h.85v-2.15c.14-.19.39-.37.73-.37.36 0 .59.14.59.58v1.94h.84Zm-4.71.08c.66 0 1.05-.29 1.26-.58l-.55-.51c-.15.22-.38.35-.67.35-.51 0-.86-.38-.86-.93s.36-.92.86-.92c.29 0 .52.12.67.34l.55-.51c-.21-.29-.61-.57-1.26-.57-.98 0-1.69.69-1.69 1.67s.72 1.68 1.69 1.68m-2.91-.1V41.1c.14-.2.51-.36.79-.36.1 0 .17 0 .23.02v-.82c-.39 0-.79.23-1.02.51v-.43h-.84v3.19h.84Zm-3.05-.49c-.33 0-.6-.17-.6-.48s.27-.48.6-.48c.27 0 .54.1.67.28v.39c-.14.19-.4.28-.67.28m1.52.5v-2.06c0-.92-.67-1.21-1.4-1.21-.5 0-1 .15-1.39.5l.33.59c.26-.25.58-.38.92-.38.42 0 .7.21.7.54v.4c-.21-.25-.58-.39-1.01-.39-.51 0-1.1.28-1.1 1.03s.6 1.06 1.1 1.06c.42 0 .79-.15 1.01-.42v.34h.85Zm-4.07-1.9h-1.57c.03-.32.26-.68.78-.68.55 0 .77.38.79.68m-.74 1.98c.5 0 1-.15 1.31-.44l-.38-.55c-.2.2-.57.31-.85.31-.54 0-.86-.32-.92-.71h2.37v-.2c0-1.04-.64-1.75-1.6-1.75s-1.65.74-1.65 1.67c0 1.02.73 1.68 1.7 1.68m-3.37-.01c.89 0 1.39-.43 1.39-1.02 0-1.29-1.9-.89-1.9-1.36 0-.18.2-.31.5-.31.39 0 .75.17.94.37l.34-.6c-.32-.25-.74-.44-1.28-.44-.85 0-1.31.47-1.31 1 0 1.26 1.89.83 1.89 1.35 0 .2-.17.34-.54.34-.39 0-.86-.22-1.1-.44l-.36.61c.34.31.88.5 1.43.5m-2.46-1.98h-1.57c.03-.32.26-.68.78-.68.55 0 .77.38.79.68m-.74 1.98c.5 0 1-.15 1.31-.44l-.38-.55c-.2.2-.57.31-.85.31-.54 0-.86-.32-.92-.71h2.37v-.2c0-1.04-.64-1.75-1.6-1.75s-1.65.74-1.65 1.67c0 1.02.73 1.68 1.7 1.68m-3.44-2.48h-.99v-1.19h.99c.37 0 .65.22.65.59s-.28.6-.65.6m1.65 2.39-1-1.68c.48-.11.97-.54.97-1.31 0-.82-.57-1.42-1.49-1.42H47.8v4.41h.94v-1.56h.69l.86 1.56h1.08Zm-6.47 0v-2.25c0-.62-.34-1.02-1.04-1.02-.51 0-.91.25-1.12.49v-.41h-.84v3.19h.84v-2.15c.15-.19.39-.37.73-.37.36 0 .59.15.59.6v1.93h.85Zm-5.2-.49c-.33 0-.6-.17-.6-.48s.27-.48.6-.48c.27 0 .54.1.67.28v.39c-.14.19-.4.28-.67.28m1.52.5v-2.06c0-.92-.67-1.21-1.4-1.21-.5 0-1 .15-1.39.5l.33.59c.26-.25.58-.38.92-.38.42 0 .7.21.7.54v.4c-.21-.25-.58-.39-1.01-.39-.51 0-1.1.28-1.1 1.03s.6 1.06 1.1 1.06c.42 0 .79-.15 1.01-.42v.34h.85Zm-3.49-3.19h-.84v3.19h.84v-3.19Zm-.42-.34c.28 0 .5-.22.5-.5s-.22-.5-.5-.5-.5.22-.5.5.23.5.5.5m-1.14-.87h-.84v4.41h.84v-4.41Zm-3.05 3.91c-.33 0-.6-.17-.6-.48s.27-.48.6-.48c.27 0 .54.1.67.28v.39c-.14.19-.4.28-.67.28m1.52.5v-2.06c0-.92-.67-1.21-1.4-1.21-.5 0-1 .15-1.39.5l.33.59c.26-.25.58-.38.92-.38.42 0 .7.21.7.54v.4c-.21-.25-.58-.39-1.01-.39-.51 0-1.1.28-1.1 1.03s.6 1.06 1.1 1.06c.42 0 .79-.15 1.01-.42v.34h.85Zm-4.19 0V41.1c.14-.2.51-.36.79-.36.1 0 .17 0 .23.02v-.82c-.39 0-.79.23-1.02.51v-.43h-.84v3.19h.84Zm-1.93.08c.35 0 .57-.09.7-.2l-.18-.64c-.04.05-.16.1-.29.1-.19 0-.29-.15-.29-.36v-1.43h.65v-.73h-.65v-.87h-.84v.87h-.53v.73h.53v1.66c0 .57.31.88.9.88m-2.97-.01c.89 0 1.39-.43 1.39-1.02 0-1.29-1.9-.89-1.9-1.36 0-.18.2-.31.5-.31.39 0 .75.17.95.37l.34-.6c-.32-.25-.74-.44-1.28-.44-.85 0-1.31.47-1.31 1 0 1.26 1.89.83 1.89 1.35 0 .2-.17.34-.54.34-.39 0-.86-.22-1.1-.44l-.37.61c.34.31.88.5 1.43.5m-1.87-.08v-3.19h-.84v2.16c-.15.19-.4.36-.73.36-.36 0-.59-.15-.59-.59v-1.94h-.84v2.26c0 .62.33 1.01 1.03 1.01.52 0 .91-.25 1.12-.48v.4h.84Zm-4.79-1.57h-1.37l.69-1.9.69 1.9Zm1.6 1.57-1.7-4.4h-1.17l-1.7 4.4h1.06l.28-.74h1.89l.28.74h1.07Z" style="fill:#818181"/><path d="m242.45 33.09-4.66-7.11v7.11h-1.53v-10.1h1.4l4.67 7.09v-7.09h1.53v10.1h-1.41zM249.47 33.17c-1.05 0-1.96-.38-2.65-1.08-.99-.99-.98-2.11-.98-4.06s-.01-3.06.98-4.06c.7-.69 1.6-1.08 2.65-1.08 1.86 0 3.25 1.09 3.6 3.11h-1.56c-.24-1.02-.92-1.73-2.04-1.73-.6 0-1.13.23-1.49.61-.5.54-.61 1.12-.61 3.15s.11 2.61.61 3.15c.35.38.89.61 1.49.61 1.12 0 1.82-.71 2.06-1.73h1.55c-.34 2.01-1.77 3.11-3.6 3.11ZM258.63 24.37h-2.27v3.16h2.27c1.02 0 1.72-.58 1.72-1.57s-.69-1.59-1.72-1.59Zm1.78 8.72-2.13-4.25h-1.91v4.25h-1.53v-10.1h3.91c1.91 0 3.13 1.23 3.13 2.95 0 1.45-.88 2.37-2.01 2.68l2.33 4.47h-1.79ZM263.84 33.09V22.99h1.53V33.09h-1.53zM270.4 33.17c-1.52 0-2.61-.35-3.57-1.33l1.02-1.01c.74.74 1.55.96 2.58.96 1.32 0 2.08-.57 2.08-1.55 0-.44-.13-.81-.4-1.05-.26-.24-.51-.34-1.11-.43l-1.19-.17c-.82-.11-1.47-.4-1.91-.81-.5-.47-.74-1.11-.74-1.93 0-1.76 1.28-2.96 3.38-2.96 1.33 0 2.27.34 3.13 1.15l-.98.96c-.62-.6-1.35-.78-2.2-.78-1.19 0-1.84.68-1.84 1.57 0 .37.11.69.38.94.26.23.67.4 1.13.47l1.15.17c.94.14 1.46.37 1.89.75.55.48.82 1.21.82 2.07 0 1.86-1.52 2.96-3.63 2.96ZM238.37 38.4l-1.78-2.69v2.69h-.35v-3.35h.34l1.77 2.67v-2.67h.36v3.35h-.34zM240.92 37.33h-.65c-.35 0-.52.14-.52.41s.16.39.53.39c.2 0 .37-.01.52-.15.08-.08.12-.21.12-.4v-.25Zm0 1.07v-.22c-.19.19-.36.25-.67.25s-.51-.06-.65-.21a.677.677 0 0 1-.17-.47c0-.4.28-.67.8-.67h.7v-.22c0-.34-.17-.51-.59-.51-.3 0-.45.07-.58.26l-.23-.21c.21-.27.44-.34.82-.34.62 0 .92.27.92.77v1.57h-.34ZM242.73 38.4c-.39 0-.59-.28-.59-.62v-1.42h-.29v-.26h.29v-.72h.34v.72h.49v.26h-.49v1.41c0 .21.1.34.31.34h.18v.29h-.24ZM243.64 38.4v-2.31h.34v2.31h-.34Zm.17-2.95c-.13 0-.23-.1-.23-.23s.1-.23.23-.23.23.1.23.23-.11.23-.23.23ZM246.07 36.53c-.11-.11-.26-.17-.42-.17s-.31.06-.42.17c-.17.17-.19.46-.19.71s.02.54.19.71c.11.11.25.17.42.17s.31-.06.42-.17c.17-.17.18-.46.18-.71s-.01-.54-.18-.71Zm.24 1.63c-.16.16-.38.26-.66.26s-.5-.1-.66-.26c-.24-.24-.28-.56-.28-.92s.05-.68.28-.92c.16-.16.38-.26.66-.26s.5.1.66.26c.23.24.28.56.28.92s-.05.68-.28.92ZM248.8 38.4v-1.42c0-.41-.22-.62-.57-.62s-.57.21-.57.62v1.42h-.34v-2.31h.34v.25c.16-.19.39-.28.65-.28s.45.08.59.22c.16.16.24.38.24.64v1.48h-.34ZM251.27 37.33h-.65c-.35 0-.52.14-.52.41s.16.39.53.39c.2 0 .37-.01.52-.15.08-.08.12-.21.12-.4v-.25Zm0 1.07v-.22c-.19.19-.36.25-.67.25s-.51-.06-.65-.21a.677.677 0 0 1-.17-.47c0-.4.28-.67.8-.67h.7v-.22c0-.34-.17-.51-.59-.51-.3 0-.45.07-.58.26l-.23-.21c.21-.27.44-.34.82-.34.62 0 .93.27.93.77v1.57h-.34ZM253 38.4c-.4 0-.59-.26-.59-.62v-2.73h.34v2.71c0 .23.08.34.31.34h.18v.29H253ZM256.3 35.37h-.89v1.23h.89c.39 0 .67-.2.67-.61s-.28-.62-.67-.62Zm.67 3.03-.76-1.48h-.8v1.48h-.36v-3.34h1.28c.58 0 .99.35.99.93 0 .49-.3.81-.73.9l.79 1.52h-.42ZM259.43 36.69c-.09-.21-.3-.35-.54-.35s-.45.14-.54.35c-.05.13-.06.2-.07.39h1.22c0-.19-.02-.26-.07-.39Zm-1.15.64c0 .51.24.8.68.8.27 0 .42-.08.61-.26l.23.2c-.23.23-.45.36-.85.36-.61 0-1.01-.37-1.01-1.18 0-.75.36-1.18.95-1.18s.95.43.95 1.12v.16h-1.56ZM261.29 38.42c-.39 0-.7-.09-.95-.33l.23-.23c.18.19.43.27.72.27.38 0 .62-.14.62-.41 0-.2-.12-.31-.39-.34l-.38-.03c-.45-.04-.69-.24-.69-.62 0-.42.36-.68.85-.68.33 0 .62.08.83.25l-.22.22c-.16-.13-.38-.18-.62-.18-.34 0-.52.15-.52.38 0 .2.11.31.4.34l.37.03c.4.04.68.19.68.62s-.38.7-.94.7ZM264.25 36.69c-.09-.21-.3-.35-.54-.35s-.45.14-.54.35c-.05.13-.06.2-.07.39h1.22c0-.19-.02-.26-.07-.39Zm-1.15.64c0 .51.24.8.68.8.27 0 .42-.08.61-.26l.23.2c-.24.23-.45.36-.85.36-.61 0-1.01-.37-1.01-1.18 0-.75.36-1.18.95-1.18s.95.43.95 1.12v.16h-1.56ZM266.69 37.33h-.65c-.35 0-.52.14-.52.41s.16.39.53.39c.2 0 .37-.01.52-.15.08-.08.12-.21.12-.4v-.25Zm0 1.07v-.22c-.19.19-.36.25-.67.25s-.51-.06-.65-.21a.677.677 0 0 1-.17-.47c0-.4.28-.67.8-.67h.7v-.22c0-.34-.17-.51-.59-.51-.3 0-.45.07-.58.26l-.23-.21c.21-.27.44-.34.82-.34.62 0 .93.27.93.77v1.57h-.34ZM269.14 36.53c-.13-.13-.22-.17-.4-.17-.34 0-.55.27-.55.62v1.42h-.34v-2.31h.34v.28c.13-.19.38-.31.65-.31.22 0 .39.05.55.22l-.25.25ZM270.58 38.42c-.58 0-1.02-.39-1.02-1.18s.44-1.18 1.02-1.18c.32 0 .52.08.76.34l-.23.22c-.17-.19-.31-.26-.53-.26s-.41.09-.54.26c-.11.15-.15.33-.15.62s.04.47.15.62c.12.17.31.26.54.26s.36-.07.53-.26l.23.22c-.24.26-.44.34-.76.34ZM273.46 38.4v-1.43c0-.4-.22-.61-.56-.61s-.58.21-.58.61v1.43h-.34v-3.34h.34v1.29c.17-.19.39-.28.65-.28.52 0 .83.33.83.85v1.48h-.34ZM236.24 43.09v-3.34h.35v3.34h-.35zM238.98 43.09v-1.42c0-.41-.22-.62-.57-.62s-.57.21-.57.62v1.42h-.34v-2.31h.34v.25c.16-.19.39-.28.65-.28s.45.08.59.22c.16.16.24.38.24.64v1.48h-.34ZM240.55 41.05v2.04h-.34v-2.04h-.3v-.26h.3v-.44c0-.34.19-.62.59-.62h.24v.29h-.18c-.22 0-.31.13-.31.34v.43h.49v.26h-.49ZM242.91 41.22c-.13-.13-.22-.17-.4-.17-.34 0-.55.27-.55.62v1.42h-.34v-2.31h.34v.28c.13-.19.38-.31.65-.31.22 0 .39.05.55.22l-.25.25ZM244.85 42.03h-.65c-.35 0-.52.14-.52.41s.16.39.53.39c.2 0 .37-.01.52-.15.08-.08.12-.21.12-.4v-.25Zm0 1.06v-.22c-.19.19-.36.25-.67.25s-.51-.06-.65-.21a.677.677 0 0 1-.17-.47c0-.4.28-.67.8-.67h.7v-.22c0-.34-.17-.51-.59-.51-.3 0-.45.07-.58.26l-.23-.21c.21-.27.44-.34.82-.34.62 0 .93.27.93.77v1.57h-.34ZM246.74 43.12c-.39 0-.7-.09-.95-.33l.23-.23c.18.19.43.27.72.27.38 0 .61-.14.61-.41 0-.2-.12-.31-.38-.34l-.38-.03c-.45-.04-.69-.24-.69-.62 0-.42.36-.68.85-.68.33 0 .62.08.83.25l-.22.22c-.16-.13-.38-.18-.61-.18-.34 0-.52.15-.52.38 0 .2.11.31.4.34l.37.03c.4.04.68.19.68.62s-.38.7-.94.7ZM248.94 43.09c-.4 0-.59-.28-.59-.62v-1.42h-.29v-.26h.29v-.72h.34v.72h.49v.26h-.49v1.41c0 .21.1.34.31.34h.18v.29h-.24ZM251.15 41.22c-.13-.13-.22-.17-.4-.17-.34 0-.55.27-.55.62v1.42h-.34v-2.31h.34v.28c.13-.19.38-.31.65-.31.22 0 .39.05.55.22l-.25.25ZM253.29 43.09v-.26c-.16.19-.39.29-.65.29s-.46-.08-.6-.22c-.16-.16-.24-.38-.24-.65v-1.47h.34v1.42c0 .41.22.62.56.62s.58-.21.58-.62v-1.42h.34v2.31h-.33ZM255.37 43.12c-.58 0-1.02-.39-1.02-1.18s.44-1.18 1.02-1.18c.32 0 .52.08.76.34l-.23.22c-.17-.19-.31-.26-.53-.26s-.41.09-.54.26c-.11.15-.15.33-.15.62s.04.47.15.62c.12.17.31.26.54.26s.36-.07.53-.26l.23.22c-.24.26-.44.34-.76.34ZM257.42 43.09c-.4 0-.59-.28-.59-.62v-1.42h-.29v-.26h.29v-.72h.34v.72h.49v.26h-.49v1.41c0 .21.1.34.31.34h.18v.29h-.24ZM259.79 43.09v-.26c-.16.19-.39.29-.65.29s-.46-.08-.6-.22c-.16-.16-.24-.38-.24-.65v-1.47h.34v1.42c0 .41.22.62.56.62s.58-.21.58-.62v-1.42h.34v2.31h-.33ZM262.26 41.22c-.13-.13-.22-.17-.4-.17-.34 0-.55.27-.55.62v1.42h-.34v-2.31h.34v.28c.13-.19.38-.31.65-.31.22 0 .39.05.55.22l-.25.25ZM264.16 41.39c-.09-.21-.3-.35-.54-.35s-.45.14-.54.35c-.05.13-.06.2-.07.39h1.22c0-.19-.02-.26-.07-.39Zm-1.15.64c0 .51.24.8.68.8.27 0 .42-.08.61-.26l.23.2c-.24.23-.45.36-.85.36-.61 0-1.01-.37-1.01-1.18 0-.75.36-1.18.95-1.18s.95.43.95 1.12v.16h-1.56ZM266.87 41.05v2.04h-.34v-2.04h-.3v-.26h.3v-.44c0-.34.19-.62.59-.62h.24v.29h-.18c-.22 0-.31.13-.31.34v.43h.49v.26h-.49ZM269.1 41.22c-.11-.11-.26-.17-.42-.17s-.31.06-.42.17c-.17.17-.19.46-.19.71s.02.54.19.71c.11.11.25.17.42.17s.31-.06.42-.17c.17-.17.18-.46.18-.71s-.01-.54-.18-.71Zm.24 1.64c-.16.16-.38.26-.66.26s-.5-.1-.66-.26c-.23-.24-.28-.56-.28-.92s.05-.68.28-.92c.16-.16.38-.26.66-.26s.5.1.66.26c.23.24.28.56.28.92s-.05.68-.28.92ZM271.64 41.22c-.13-.13-.22-.17-.4-.17-.34 0-.55.27-.55.62v1.42h-.34v-2.31h.34v.28c.13-.19.38-.31.65-.31.22 0 .39.05.55.22l-.25.25ZM274.51 40.26l-.63 1.77h1.25l-.62-1.77Zm.99 2.83-.27-.76h-1.46l-.27.76h-.38l1.23-3.34h.3l1.23 3.34h-.38ZM277.82 43.09v-.26c-.16.19-.39.29-.65.29s-.46-.08-.6-.22c-.16-.16-.23-.38-.23-.65v-1.47h.34v1.42c0 .41.22.62.56.62s.58-.21.58-.62v-1.42h.34v2.31h-.33ZM279.73 43.12c-.39 0-.7-.09-.95-.33l.23-.23c.18.19.43.27.72.27.38 0 .61-.14.61-.41 0-.2-.12-.31-.38-.34l-.38-.03c-.45-.04-.69-.24-.69-.62 0-.42.36-.68.85-.68.33 0 .62.08.83.25l-.22.22c-.16-.13-.38-.18-.62-.18-.34 0-.52.15-.52.38 0 .2.11.31.4.34l.37.03c.4.04.68.19.68.62s-.38.7-.94.7ZM281.93 43.09c-.39 0-.59-.28-.59-.62v-1.42h-.29v-.26h.29v-.72h.34v.72h.49v.26h-.49v1.41c0 .21.1.34.31.34h.18v.29h-.24ZM284.13 41.22c-.13-.13-.22-.17-.4-.17-.34 0-.55.27-.55.62v1.42h-.34v-2.31h.34v.28c.13-.19.38-.31.65-.31.22 0 .39.05.55.22l-.25.25ZM286.08 42.03h-.65c-.35 0-.52.14-.52.41s.16.39.53.39c.2 0 .37-.01.52-.15.08-.08.12-.21.12-.4v-.25Zm0 1.06v-.22c-.19.19-.36.25-.67.25s-.51-.06-.65-.21a.677.677 0 0 1-.17-.47c0-.4.28-.67.8-.67h.69v-.22c0-.34-.17-.51-.59-.51-.3 0-.45.07-.58.26l-.23-.21c.21-.27.44-.34.82-.34.62 0 .92.27.92.77v1.57h-.34ZM287.82 43.09c-.4 0-.59-.26-.59-.62v-2.73h.34v2.71c0 .23.08.34.31.34h.18v.29h-.24ZM288.64 43.09v-2.31h.34v2.31h-.34Zm.16-2.95c-.13 0-.23-.1-.23-.23s.1-.23.23-.23.23.1.23.23-.11.23-.23.23ZM291.13 42.03h-.65c-.35 0-.52.14-.52.41s.16.39.53.39c.2 0 .37-.01.52-.15.08-.08.12-.21.12-.4v-.25Zm0 1.06v-.22c-.19.19-.36.25-.67.25s-.51-.06-.65-.21a.677.677 0 0 1-.17-.47c0-.4.28-.67.8-.67h.7v-.22c0-.34-.17-.51-.59-.51-.3 0-.45.07-.58.26l-.23-.21c.21-.27.44-.34.82-.34.62 0 .92.27.92.77v1.57h-.34Z" class="st5"/><path d="m291.57 30.58-6.41 2.81v-7.87l6.41-2.81v7.87z" class="st11"/><path d="m291.57 30.58-6.41 2.81v-7.87l6.41-2.81v7.87z" class="st2" style="clip-path:url(#clippath)"/><path d="m278.74 30.58 6.42 2.81v-7.87l-6.42-2.81v7.87z" class="st7"/><path d="m278.74 30.58 6.42 2.81v-7.87l-6.42-2.81v7.87z" class="st2"/><path d="m291.57 22.71-6.41 2.81-6.42-2.81 6.42-2.8 6.41 2.8z" style="fill:#fff"/><g style="clip-path:url(#clippath-1)"><path d="m291.57 22.71-6.41 2.81-6.42-2.81 6.42-2.8 6.41 2.8z" style="stroke:#fff;stroke-linejoin:round;stroke-width:.61px;fill:none"/></g><path d="m285.16 19.91-6.42 2.8v-7.86l6.42-2.81v7.87z" class="st11"/><path d="m285.16 19.91-6.42 2.8v-7.86l6.42-2.81v7.87z" class="st2"/><path d="m272.33 19.91 6.41 2.8v-7.86l-6.41-2.81v7.87z" class="st7"/><path d="m272.33 19.91 6.41 2.8v-7.86l-6.41-2.81v7.87z" class="st2"/><path d="m285.16 12.04-6.42 2.81-6.41-2.81 6.41-2.81 6.42 2.81z" class="st7"/><path d="m285.16 12.04-6.42 2.81-6.41-2.81 6.41-2.81 6.42 2.81z" class="st2" style="clip-path:url(#clippath-2)"/><path d="m150.42 41.43-.72-1.66-.74 1.66h1.46Zm.12.26h-1.7l-.2.47c-.07.16-.1.29-.1.39 0 .14.05.24.16.3.06.04.22.07.47.09v.13h-1.6v-.13c.17-.03.31-.1.43-.21.11-.12.25-.36.41-.73l1.72-3.84h.07l1.74 3.95c.17.37.3.61.41.71.08.07.19.12.34.13v.13h-2.33v-.13h.1c.19 0 .32-.03.39-.08.05-.04.08-.09.08-.16 0-.04 0-.09-.02-.13 0-.02-.04-.11-.11-.27l-.26-.6Z" class="st6"/><path d="M155.64 39.74v2.6c0 .25.02.41.07.48.05.06.14.1.29.12v.13h-1.35v-.44c-.16.19-.32.33-.48.42-.16.09-.34.13-.53.13s-.35-.06-.5-.17a.915.915 0 0 1-.29-.4c-.05-.15-.07-.42-.07-.81v-1.32c0-.25-.02-.41-.07-.47-.04-.06-.14-.1-.29-.12v-.13h1.35v2.27c0 .24.01.39.03.46.02.07.06.12.11.16.05.04.11.05.17.05.09 0 .16-.02.23-.07.09-.06.21-.19.34-.37v-1.78c0-.25-.02-.41-.07-.47s-.14-.1-.29-.12v-.13h1.35ZM158.32 39.65l.05 1.13h-.12c-.14-.34-.29-.57-.45-.69a.746.746 0 0 0-.46-.18c-.1 0-.18.03-.25.1-.07.06-.1.14-.1.22 0 .06.02.13.07.18.08.1.29.26.64.5.35.23.58.43.69.6.11.16.17.35.17.55 0 .18-.05.37-.14.54-.09.18-.22.31-.39.41-.17.1-.35.14-.56.14-.16 0-.37-.05-.64-.15a.412.412 0 0 0-.15-.04c-.08 0-.14.06-.2.18h-.12l-.06-1.19h.12c.11.31.25.55.44.7.19.16.36.23.53.23.11 0 .21-.03.28-.1.07-.07.11-.16.11-.26 0-.11-.04-.21-.11-.3-.07-.08-.23-.21-.48-.38-.36-.25-.6-.44-.7-.58a.97.97 0 0 1-.23-.64c0-.26.09-.49.26-.69.18-.21.43-.31.77-.31.18 0 .35.04.52.13.06.04.12.05.16.05.04 0 .08 0 .1-.02.03-.02.07-.07.12-.15h.12ZM160.08 38.53v1.22h.79v.35h-.79v2.05c0 .19 0 .32.02.37.02.05.05.1.1.14.04.03.09.05.12.05.15 0 .3-.12.44-.35l.11.08c-.19.45-.5.68-.93.68-.21 0-.39-.06-.54-.17-.14-.12-.24-.25-.28-.39-.02-.08-.04-.3-.04-.65v-1.79h-.43V40c.3-.21.55-.43.76-.66.21-.23.39-.49.55-.78h.12ZM162.49 39.74v.75c.22-.34.41-.57.58-.68.17-.11.33-.17.48-.17.13 0 .24.04.32.12.08.08.12.2.12.34 0 .16-.04.28-.12.37-.08.09-.17.13-.28.13-.13 0-.23-.04-.33-.12-.09-.08-.15-.12-.16-.14a.188.188 0 0 0-.08-.02c-.07 0-.13.03-.2.08-.1.08-.17.2-.22.35-.08.23-.11.48-.11.76v.96c0 .13.01.22.03.26.03.06.07.11.12.14.06.03.15.05.28.05v.13h-1.79v-.13c.14-.01.24-.05.29-.12.05-.07.08-.25.08-.54v-1.84c0-.19 0-.31-.03-.36a.33.33 0 0 0-.1-.15.548.548 0 0 0-.24-.06v-.13h1.36Z" class="st5"/><path d="M165.81 42.31V41.2c-.29.17-.5.35-.64.54a.69.69 0 0 0-.14.39c0 .11.04.2.12.29.06.06.14.1.25.1.12 0 .26-.07.41-.2Zm0 .26c-.41.36-.77.54-1.09.54a.64.64 0 0 1-.47-.18.626.626 0 0 1-.19-.47c0-.25.11-.48.33-.68.22-.2.69-.47 1.42-.81v-.33c0-.25-.01-.41-.04-.47a.404.404 0 0 0-.15-.17.462.462 0 0 0-.26-.07c-.15 0-.28.03-.38.1-.06.04-.09.09-.09.15 0 .05.03.11.1.18.09.1.13.2.14.29 0 .12-.04.22-.13.3-.09.08-.2.12-.34.12-.15 0-.27-.05-.38-.14-.1-.09-.15-.2-.15-.32 0-.17.07-.33.2-.49.14-.16.32-.28.56-.36.24-.08.49-.12.75-.12.31 0 .56.07.75.2.18.13.3.28.36.43.03.1.05.33.05.69v1.29c0 .15 0 .25.02.29.01.04.03.07.05.09.02.02.05.03.08.03.06 0 .12-.04.19-.13l.11.08c-.12.18-.24.3-.37.38-.13.08-.27.12-.43.12-.19 0-.34-.04-.44-.13-.11-.09-.17-.22-.19-.4Z" class="st6"/><path d="M168.69 38.25v4.13c0 .23.03.39.08.45s.16.1.32.11v.13h-1.79v-.13c.15 0 .26-.05.33-.13.05-.05.07-.2.07-.43v-3.44c0-.23-.03-.38-.08-.44-.05-.07-.16-.1-.32-.11v-.13h1.39Z" class="st5"/><path d="M170.71 39.74v2.63c0 .23.03.39.08.45s.16.1.32.11v.13h-1.79v-.13c.15 0 .26-.05.33-.13.05-.05.07-.2.07-.43v-1.94c0-.23-.03-.38-.08-.45s-.16-.1-.32-.11v-.13h1.39Zm-.49-1.61c.15 0 .28.05.39.16.11.11.16.24.16.39s-.05.28-.16.39c-.11.11-.24.16-.39.16s-.28-.05-.39-.16c-.11-.11-.16-.24-.16-.39s.05-.28.16-.39c.11-.11.24-.16.39-.16ZM173.05 42.31V41.2c-.29.17-.5.35-.64.54a.69.69 0 0 0-.14.39c0 .11.04.2.12.29.06.06.14.1.25.1.12 0 .26-.07.41-.2Zm0 .26c-.4.36-.77.54-1.09.54a.64.64 0 0 1-.47-.18.626.626 0 0 1-.19-.47c0-.25.11-.48.33-.68.22-.2.69-.47 1.42-.81v-.33c0-.25-.01-.41-.04-.47a.404.404 0 0 0-.15-.17.462.462 0 0 0-.26-.07c-.15 0-.28.03-.38.1-.06.04-.09.09-.09.15 0 .05.03.11.1.18.09.1.13.2.13.29 0 .12-.04.22-.13.3-.09.08-.2.12-.34.12-.15 0-.27-.05-.38-.14-.1-.09-.15-.2-.15-.32 0-.17.07-.33.2-.49.14-.16.32-.28.56-.36.24-.08.49-.12.75-.12.31 0 .56.07.75.2.18.13.3.28.36.43.03.1.05.33.05.69v1.29c0 .15 0 .25.02.29.01.04.03.07.05.09.02.02.05.03.08.03.06 0 .12-.04.19-.13l.11.08c-.12.18-.24.3-.37.38-.13.08-.27.12-.43.12-.19 0-.34-.04-.44-.13-.11-.09-.17-.22-.2-.4Z" class="st6"/><path d="M175.92 39.74v.43c.17-.18.33-.32.49-.4.16-.08.32-.13.5-.13a.819.819 0 0 1 .82.62c.04.14.06.39.06.78v1.29c0 .26.02.42.07.48s.14.1.29.12v.13h-1.68v-.13c.13-.02.22-.07.27-.16.04-.06.06-.21.06-.44v-1.48c0-.27-.01-.44-.03-.52a.273.273 0 0 0-.11-.16.272.272 0 0 0-.17-.06c-.2 0-.39.15-.57.44v1.78c0 .25.02.41.07.47.05.07.13.11.26.12v.13h-1.68v-.13c.14-.01.24-.06.3-.14.04-.05.06-.21.06-.46v-1.88c0-.25-.02-.41-.07-.47s-.14-.1-.29-.12v-.13h1.35ZM184.7 38.14v1.7h-.13c-.16-.46-.4-.82-.71-1.06-.32-.24-.66-.36-1.04-.36s-.66.1-.9.31c-.24.2-.41.48-.51.85-.1.36-.15.73-.15 1.12 0 .46.05.87.16 1.22s.28.6.53.77c.24.16.53.24.87.24.12 0 .23-.01.36-.04.12-.03.25-.06.38-.11v-1c0-.19-.01-.31-.04-.37a.336.336 0 0 0-.16-.15.543.543 0 0 0-.29-.07h-.12v-.13h2.34v.13c-.18.01-.3.04-.37.07-.07.04-.12.1-.16.18-.02.05-.03.16-.03.33v1a5 5 0 0 1-1.99.42c-.46 0-.84-.06-1.14-.18-.3-.13-.57-.29-.8-.49-.23-.2-.41-.43-.54-.69-.17-.33-.25-.69-.25-1.1 0-.72.25-1.34.76-1.84s1.15-.75 1.92-.75c.24 0 .45.02.65.06.1.02.27.07.5.16.23.09.37.13.42.13.07 0 .13-.02.19-.07s.11-.14.16-.28h.13Z" class="st5"/><path d="M187.02 39.89a.41.41 0 0 0-.31.14c-.08.09-.14.27-.17.54s-.04.64-.04 1.12c0 .25.02.49.05.71.03.17.08.3.17.38.09.09.18.13.29.13s.2-.03.27-.09c.09-.08.15-.19.18-.34.05-.22.07-.68.07-1.36 0-.4-.02-.68-.07-.83a.601.601 0 0 0-.2-.33.361.361 0 0 0-.24-.07Zm-.02-.25c.29 0 .56.07.81.22s.44.36.57.64c.13.27.2.58.2.9 0 .47-.12.87-.36 1.18-.29.38-.69.58-1.2.58s-.88-.18-1.15-.53c-.27-.35-.4-.76-.4-1.22s.14-.89.41-1.24c.28-.36.66-.53 1.14-.53Z" class="st6"/><path d="m190.14 43.16-1.12-2.58c-.14-.31-.24-.51-.32-.59a.422.422 0 0 0-.24-.12v-.13h1.77v.13c-.11 0-.19.02-.23.06-.06.05-.08.11-.08.19 0 .09.05.25.16.49l.55 1.25.44-1.08c.13-.31.19-.53.19-.65a.25.25 0 0 0-.08-.18c-.05-.05-.15-.07-.28-.08v-.13h1.09v.13a.42.42 0 0 0-.26.12c-.07.06-.17.25-.3.57l-1.11 2.61h-.17Z" class="st5"/><path d="M193.7 41.05c0-.38-.02-.64-.06-.79a.598.598 0 0 0-.19-.32.317.317 0 0 0-.2-.06c-.12 0-.22.06-.3.18-.14.21-.21.5-.21.87v.12h.97Zm.88.23h-1.82c.02.44.14.79.35 1.04a.724.724 0 0 0 .98.17c.12-.08.24-.22.37-.43l.12.08c-.18.37-.38.63-.6.78-.22.15-.47.23-.76.23-.49 0-.87-.19-1.12-.57-.2-.31-.3-.68-.3-1.14 0-.55.15-.99.45-1.32.3-.33.65-.49 1.06-.49.34 0 .63.14.87.42.25.28.38.68.4 1.23Z" class="st6"/><path d="M196.15 39.74v.75c.22-.34.41-.57.58-.68.17-.11.33-.17.48-.17.13 0 .24.04.32.12.08.08.12.2.12.34 0 .16-.04.28-.12.37-.08.09-.17.13-.28.13-.13 0-.23-.04-.33-.12-.09-.08-.15-.12-.16-.14a.188.188 0 0 0-.08-.02c-.07 0-.13.03-.2.08-.1.08-.17.2-.22.35-.08.23-.11.48-.11.76v.96c0 .13.01.22.03.26.03.06.07.11.12.14.06.03.15.05.28.05v.13h-1.79v-.13c.14-.01.24-.05.29-.12.05-.07.08-.25.08-.54v-1.84c0-.19 0-.31-.03-.36a.33.33 0 0 0-.1-.15c-.04-.03-.12-.05-.24-.06v-.13h1.36ZM199.22 39.74v.43c.17-.18.33-.32.49-.4.16-.08.32-.13.5-.13a.819.819 0 0 1 .82.62c.04.14.06.39.06.78v1.29c0 .26.02.42.07.48s.14.1.29.12v.13h-1.68v-.13c.13-.02.22-.07.27-.16.04-.06.06-.21.06-.44v-1.48c0-.27-.01-.44-.03-.52a.273.273 0 0 0-.11-.16.272.272 0 0 0-.17-.06c-.2 0-.39.15-.57.44v1.78c0 .25.02.41.07.47.05.07.13.11.26.12v.13h-1.68v-.13c.14-.01.24-.06.3-.14.04-.05.06-.21.06-.46v-1.88c0-.25-.02-.41-.07-.47-.04-.06-.14-.1-.29-.12v-.13h1.35ZM203.07 39.74v.44c.18-.2.35-.34.5-.42.16-.08.33-.12.51-.12.21 0 .39.05.54.15.14.1.26.25.33.45.19-.21.37-.37.54-.46.18-.09.36-.14.55-.14.23 0 .41.05.55.16.14.1.23.24.28.4.05.16.08.42.08.77v1.36c0 .26.02.41.07.48.05.06.14.1.29.12v.13h-1.72v-.13c.14-.01.23-.06.3-.16.04-.06.06-.21.06-.44V40.9c0-.3-.01-.48-.04-.57a.327.327 0 0 0-.11-.18.28.28 0 0 0-.18-.06c-.1 0-.2.04-.31.11-.1.07-.21.19-.32.33v1.78c0 .24.02.39.06.45.05.09.16.14.31.15v.13h-1.72v-.13c.09 0 .16-.03.22-.07.05-.04.09-.09.11-.15.02-.06.03-.19.03-.38v-1.43c0-.3-.01-.49-.04-.57a.322.322 0 0 0-.12-.18.28.28 0 0 0-.18-.06c-.09 0-.18.02-.26.07-.11.07-.23.2-.36.38v1.78c0 .23.02.39.07.47.05.07.14.12.29.13v.13h-1.71v-.13c.14-.01.24-.06.3-.14.04-.05.06-.21.06-.46v-1.88c0-.25-.02-.41-.07-.47s-.14-.1-.29-.12v-.13h1.35Z" class="st5"/><path d="M209.4 41.05c0-.38-.02-.64-.06-.79a.598.598 0 0 0-.19-.32.317.317 0 0 0-.2-.06c-.12 0-.22.06-.3.18-.14.21-.21.5-.21.87v.12h.97Zm.87.23h-1.82c.02.44.14.79.35 1.04a.724.724 0 0 0 .98.17c.12-.08.24-.22.37-.43l.12.08c-.18.37-.38.63-.6.78-.22.15-.47.23-.76.23-.49 0-.87-.19-1.12-.57-.2-.31-.31-.68-.31-1.14 0-.55.15-.99.45-1.32.3-.33.65-.49 1.06-.49.34 0 .63.14.87.42.25.28.38.68.4 1.23Z" class="st6"/><path d="M211.75 39.74v.43c.17-.18.33-.32.49-.4.16-.08.32-.13.5-.13a.819.819 0 0 1 .82.62c.04.14.06.39.06.78v1.29c0 .26.02.42.07.48s.14.1.29.12v.13h-1.68v-.13c.12-.02.22-.07.27-.16.04-.06.06-.21.06-.44v-1.48c0-.27-.01-.44-.03-.52a.273.273 0 0 0-.11-.16.272.272 0 0 0-.17-.06c-.2 0-.39.15-.57.44v1.78c0 .25.02.41.07.47.05.07.13.11.26.12v.13h-1.68v-.13c.14-.01.24-.06.3-.14.04-.05.06-.21.06-.46v-1.88c0-.25-.02-.41-.07-.47-.04-.06-.14-.1-.29-.12v-.13h1.35ZM215.4 38.53v1.22h.79v.35h-.79v2.05c0 .19 0 .32.03.37.02.05.05.1.1.14.04.03.09.05.12.05.15 0 .3-.12.44-.35l.11.08c-.19.45-.5.68-.93.68-.21 0-.39-.06-.54-.17-.14-.12-.24-.25-.28-.39-.02-.08-.03-.3-.03-.65v-1.79h-.43V40c.3-.21.55-.43.76-.66.21-.23.39-.49.55-.78h.12ZM176.13 29.65s-.05.07-.09.09M176.96 23.15c.1 0 .17-.08.17-.18s-.08-.18-.17-.18-.17.08-.17.18.08.18.17.18ZM184.84 19.33h-1.91v-3.36h1.91v3.36Zm0 1.6c-.03.36-.16.66-.41.83l-1.5.9V19.5h1.91v1.42Zm-2.07-1.6h-1.76v-3.36h1.76v3.36Zm0 3.43-.69.41h-.01a.28.28 0 0 1-.36-.01l-.69-.41v-3.26h1.76v3.26Zm-2.48-3.43V18.1h.54v1.23h-.54Zm.54 3.33-1.5-.9c-.25-.17-.37-.47-.41-.83v-1.42h1.91v3.16Zm-1.24-6.69v1.3h-.66v-1.3h.66Zm.16.49.08-.08-.05-.09h.1l.06-.1.06.11h.1l-.05.08.08.08-.1.02v.11l-.09-.07-.09.07v-.11l-.1-.02Zm.47 1.35s-.05-.04-.07-.04c-.06 0-.08.1-.13.1-.04 0-.06 0-.06-.04 0-.03.07-.06.1-.09-.41 0-.41.19-.48.19-.11 0 .09-.2.15-.25-.08-.01-.13-.12-.22-.17.04-.06.07-.03.12 0 0-.04.03-.09.13-.09.18 0 .13.18.16.18s0-.18.12-.18c.18 0 .41.46.2.46-.09 0-.02-.07-.02-.08Zm-.44.99h.1l.06-.1.06.11h.1l-.05.08.08.08-.1.02v.11l-.09-.07-.09.07v-.11l-.1-.02.08-.08-.05-.09Zm-.74-1.25h.1l.06-.1.06.11h.1l-.05.08.08.08-.1.02v.11l-.09-.07-.09.07v-.11l-.1-.02.08-.08-.05-.09Zm-.11 1.78V18.1h.66v1.23h-.66Zm1.51-1.61.08-.08-.05-.09h.1l.06-.1.06.11h.1l-.05.08.08.08-.1.02v.11l-.09-.07-.09.07v-.11l-.1-.02Zm.39-.46h-.54v-1.3h.54v1.3Zm4.19-1.46h-6.27v5.06c0 .49.21.92.5 1.05l2.41 1.44c.05.06.13.1.22.1.08 0 .14-.03.2-.08l2.45-1.46c.29-.13.49-.56.49-1.05V15.8Z" class="st5"/><path d="M180.73 20.66s-.24.08-.17.07c0-.07.13-.21.19-.26-.01-.08-.11 0-.22.05.36-.51.13-.3-.07-.27.32-.34.24-.34 0-.23.18-.15.22-.32.2-.37-.17.23-.33.19-.33.41 0 .14-.05.37-.12.45-.09.1-.02-.38-.27-.38-.08 0-.26 0-.32.09.05 0 .12.13.12.18s.05.19-.04.19-.18-.18-.18-.26v-.19c0-.2-.33-.49-.46-.49 0 .14.18.17.18.35-.08 0-.19-.15-.19-.06s.12.11.12.19-.13-.03-.13.06c0 .07.07.06.09.13-.05-.02-.1 0-.11.02 0 .02.02.06.06.08-.02.02-.04.06-.04.18 0 .4.25.59.43.59.13 0 .11-.09.13-.14 0 .07.07-.03.07.08s-.13.07-.13.18c0 .14.2 0 .2.15 0 .19-.02.19-.02.26 0 .05.21-.07.2-.09.05.02.05.17.14.16.06 0 .07-.15.12-.17-.03 0 .19.14.19.07 0-.19-.08-.11-.08-.24 0-.12.26-.1.22-.16-.03-.05-.06-.02-.08-.11 0 .02-.2-.3.04-.14.26.17.29-.39.27-.42ZM187.42 21.98c.11 0 .21-.08.21-.18s-.09-.18-.21-.18-.21.08-.21.18.09.18.21.18ZM186.59 22.48c.11 0 .21-.08.21-.18s-.09-.18-.21-.18-.21.08-.21.18.09.18.21.18ZM176.68 23.62c.11 0 .21-.08.21-.18s-.09-.18-.21-.18-.21.08-.21.18.09.18.21.18ZM177.32 23.68c.11 0 .21-.08.21-.18s-.09-.18-.21-.18-.21.08-.21.18.09.18.21.18ZM195.16 15.03c.31.36.37.95.15 1.37-.12-.01-.1-.16-.12-.25-.22-.41-.39-.92-.2-1.39.14.02.09.2.16.28ZM168.99 15.53c-.07.26-.07.63 0 .87-.05.06-.04-.05-.1-.04-.43-.31-.23-.91-.34-1.34.02-.03.08-.04.11-.02.2.13.28.32.33.54ZM196.1 15.56c.07.12-.06.24-.14.3-.1.02-.21-.03-.27-.12-.03-.12.03-.23.13-.29.11-.01.22.01.28.11ZM168.32 16.05c-.02.1-.05.2-.14.24-.07 0-.16 0-.21-.05-.07-.06-.08-.15-.04-.23.04-.08.13-.09.21-.1.08.03.15.06.19.14ZM196.52 16.23c.02.07.02.11 0 .18-.08.1-.19.14-.3.1-.08-.04-.1-.12-.12-.19.02-.09.11-.17.19-.2.1 0 .16.06.23.11ZM195.9 16.24c.09.04.02.15.01.22-.05.06-.13.14-.23.11-.05-.05-.12-.05-.14-.13 0-.11.04-.22.15-.25.09-.02.14.02.21.06ZM195.1 16.41c0 .12.01.28-.13.3-.13.04-.22-.07-.25-.15a.25.25 0 0 1 .16-.26c.09 0 .16.06.22.12ZM169.51 16.46c.03.11-.08.18-.14.23-.08.02-.18-.04-.22-.12-.08-.08.02-.14.04-.21.11-.1.27-.02.32.1ZM168.85 16.5c0 .09-.04.18-.12.21-.09.03-.17-.03-.22-.1-.05-.11.01-.21.1-.25.12-.04.2.07.24.14ZM192.46 16.54c.11.23.2.51.22.79-.04.21.03.48-.12.63-.15-.06-.16-.24-.26-.34-.2-.39-.02-.84.04-1.21.09-.03.09.08.12.13ZM168.34 16.67c.03.13-.07.2-.14.28-.13.03-.22-.07-.27-.15a.28.28 0 0 1 .14-.26c.11-.01.22.04.27.14ZM194.18 16.99c.14.32.15.7.05 1.06l-.07.06c-.15-.3-.37-.57-.45-.89 0-.23.04-.44.13-.63.08-.05.12.01.15.08.01.12.07.26.18.33ZM195.56 16.79c-.01.11-.06.23-.16.26-.11.02-.22-.01-.25-.13-.03-.11.03-.21.12-.26.12-.07.24.04.3.13ZM168.87 17.14c0 .09-.08.19-.16.21-.09.07-.15-.04-.23-.08-.03-.09-.05-.17 0-.25.03-.07.11-.07.18-.09.1.06.2.1.22.21ZM169.35 17.08c.04.11-.08.16-.12.22-.13.04-.2-.06-.25-.13-.02-.11.04-.18.12-.24.13-.03.2.06.25.15ZM195.87 17.05c-.01.14-.23.29-.25.43-.12.3-.38.52-.68.62-.07.06-.15.13-.25.14-.02-.22.18-.42.3-.62.23-.3.55-.48.89-.57ZM168.65 17.51c.16.19.25.35.45.52.01.04-.02.11-.08.11-.54-.03-.9-.58-1.16-.97.03-.12.17-.02.25-.03.19.14.39.19.54.37ZM196.02 17.66c-.02.47-.25.96-.68 1.19-.12.04-.25.17-.37.09.23-.47.58-.86.96-1.28h.09ZM193.92 17.98c.03.17-.05.26-.19.32-.12.01-.2-.09-.25-.18-.01-.11.05-.21.15-.24.03-.03.09-.03.13-.03.07.02.1.08.15.13ZM168.05 18.08c.21.14.39.34.59.52-.14.1-.32.01-.48.01-.37-.13-.62-.45-1.01-.56.01-.12.15-.08.23-.11.24-.02.44.09.67.14Z" class="st5"/><path d="M179.75 14.82c-.61-.24-1.02.4-1.64.32-.08.04-.05.12-.1.18-.03.03-.09.01-.12-.01-.03-.26-.12-.51-.15-.76-.07-.11-.03-.26-.09-.37-.35-.96.85-.23 1.09-.79.21-.48-.4-.54-.59-.88v-.14c-.17-.18-.36-.23-.47-.46.08-.28.11-.57.03-.85-.01-.07-.05-.15-.15-.12-.21.29-.36.52-.56.79-.21-.15-.4-.35-.64-.48-.16-.02-.32-.19-.5-.12-.03.07 0 .12.03.17.01.43.23.77.54 1.08l.03.17c-.2.45-.14.97-.2 1.45-.49 1.25-1.29 2.47-2.37 3.34-.62.7-1.37 1.39-1.46 2.36-.03.15.02.34-.1.45-.36-.13-.72-.31-1.02-.54-.5-.35-1.22-.31-1.55-.95-.13-.25.03-.51.15-.69.37-.35.32-.98.12-1.41-.04-.01-.05.04-.09.05-.03.65-.55 1.1-.35 1.82.04.21.15.34.21.54-.08-.02-.19-.02-.25-.05-.24-.03-.48-.13-.73-.1-.5.23-1.19-.06-1.6.41-.07.01-.15.02-.13.12.24 0 .47.07.71.06.38.07.63-.25.9-.4h.07c.11-.11.3-.04.44-.07.69.08 1.22.41 1.79.75v.04c-.22.1-.47.17-.69.29-.25.19-.54.43-.61.74-.17.28.05.52.16.75.01.11.02.24.12.29.35-.37.02-.84.08-1.27.09-.33.39-.48.71-.57.62-.26 1.07.24 1.57.53-.01.51.06.99-.05 1.49-.15.06-.35.09-.51.08-.86.07-1.54.54-2.32.8-.35.12-.76.11-1.11.24.27.08.56-.02.84-.03 1.07-.15 1.89-.98 3.05-.84l.02.03c-.13.28-.31.51-.51.72-.03-.12-.04-.22-.15-.29-.09-.04-.19 0-.25.09-.03.06-.03.12 0 .17.05.1.14.12.24.15-.02.1-.14.14-.21.23-.31.52-.93.31-1.29.67-.05.08-.25.12-.16.24.42.04.82-.07 1.13-.29.4-.45.83-.88 1.24-1.31.07.35-.03.72-.24 1-.1-.06-.18-.13-.3-.17-.11.02-.19.13-.2.22.04.08.09.17.16.22-.37.26-.84.29-1.27.41a21 21 0 0 1-2.38.18c-.38-.02-.82.11-1.18 0-.42.08-.86-.06-1.2.18-.04.06.01.11.01.17.5.33 1.19.07 1.76.17h4.31c.32-.01.63-.02.89-.17.56-.32.86-.89 1.15-1.45.11-.2.19-.43.23-.66.11-.37.45-.64.82-.67.05.57-.05 1.15-.19 1.67-.07.35-.3.69-.15 1.07.03.18.22.18.36.2 1.32-.02 2.65-.08 4.04.02.25.04.47.12.74.11.02-.03.1-.04.07-.11-.03-.12-.12-.28-.26-.31-.02-.07-.12-.04-.15-.09-.7-.4-1.54-.19-2.36-.18-.43.04-.85.12-1.21-.12-.16-.2-.04-.83-.04-.83 0-.25.6-1.98.68-2.12.02-.17.09-.32.07-.51.09-.22.07-.51.07-.75.04-.35.22-.68.34-1.02.07-.17.12-.34.19-.51.07-.21.09-.41.22-.57.36.23.71.22.88.62l.15.92c0 .06.04.17.12.1.28-.19.2-.61.2-.89.07-.34-.17-.51-.27-.8-.08-.05-.2-.32-.2-.32-.04-.24-.57-.41-.45-.71.07-.25.13-.48.37-.63.04.02.05.05.05.08l.13-.09v-.92c.37 0 .9.04 1.26.04.1.03.18.11.28.12l.09-.12.89-.17c-.38.04-.6-.39-.96-.39Z" class="st5"/><path d="M171.19 18.28c.01.13-.07.21-.16.25-.09-.03-.15-.04-.21-.13-.04-.12.07-.21.15-.25.09.02.2.03.22.13ZM170.48 18.28c.07.07.08.18.04.25-.08.07-.2.12-.26.03-.07-.07-.13-.14-.08-.23.08-.08.21-.14.3-.05ZM194.03 18.59c.04.12-.05.21-.14.25-.11-.03-.25-.06-.25-.2.01-.09.09-.14.16-.17.1-.03.19.04.23.11ZM194.61 18.57c.03.05.11.14.02.2-.04.03-.08.04-.11.09-.12.02-.23-.02-.26-.13-.02-.12.08-.18.16-.23.08-.02.13.03.19.08ZM167.74 18.7c-.04.13-.15.19-.29.14a.483.483 0 0 1-.09-.14c.01-.08.03-.15.12-.19.13.01.23.07.26.19ZM171.42 18.89c-.01.09-.11.17-.19.21-.11.01-.19-.08-.24-.15 0-.09.04-.2.13-.22.12-.04.25.04.3.17ZM170.78 18.81s.07.12.03.18c-.07.05-.16.15-.27.09-.07-.06-.14-.1-.12-.21.04-.04.1-.11.16-.13.09-.02.13.03.2.08ZM196.28 18.94c0 .09-.09.18-.14.21-.09.03-.19.01-.24-.06-.07-.02-.04-.11-.04-.17.05-.08.13-.12.21-.14.1.02.16.09.22.15ZM196.98 19.04c-.03.1-.11.19-.21.2-.07-.01-.19-.03-.16-.13 0-.08.04-.15.1-.18.11-.06.24 0 .27.11ZM168.99 19.2c.02.13-.02.22-.13.26-.08.04-.15-.01-.21-.06-.06-.06-.1-.14-.06-.22.02-.1.12-.08.19-.12.1.01.15.06.21.13ZM169.52 19.29c.03.09-.07.12-.09.19-.05.03-.13.07-.2.02-.08-.07-.16-.17-.09-.26.09-.16.32-.08.37.06ZM195.64 19.24c.01.11-.09.19-.15.25-.1.02-.2-.04-.22-.13-.01-.09.04-.15.12-.21.1-.01.2 0 .25.09ZM196.53 19.41c-.02.1-.01.21-.12.28-.09.02-.2.01-.26-.04-.07-.06-.08-.15-.04-.23.05-.09.15-.15.26-.13.08.04.1.1.16.13ZM168.57 19.65c.04.09-.06.11-.09.15-.08.04-.15.01-.22-.02-.08-.04-.04-.15-.03-.21.1-.19.3-.06.34.08ZM195.84 19.86s.02.08.01.1c-.26.13-.66.17-.89-.04-.13-.11-.29-.15-.44-.24.05-.14.25-.13.39-.17.32.04.57.34.92.35ZM169.1 19.76c.02.09-.04.12-.07.19-.04.07-.13.04-.19.02-.1-.07-.14-.19-.08-.28.12-.12.26-.06.33.07ZM170.06 19.82c.04.1-.02.19-.11.24-.08.04-.14-.02-.21-.03-.05-.08-.15-.17-.05-.25.1-.16.3-.08.37.04ZM182.7 20.29c-.02.22-.38-.03-.33.26.05.21.09.46.22.62.1.15.05.38.04.55-.09.16-.25.27-.42.36-.31-.03-.77.16-.91-.23-.06-.17-.18-.33-.18-.52.03-.02.07-.02.1-.05 0-.07-.08-.12-.07-.19.35-.06-.15-.38.16-.4.25.26.65.18.87.46.05.04.09.1.16.14-.04-.26-.17-.52-.21-.81-.03-.15.02-.28.13-.37.19-.15.34.06.45.18ZM171.02 20.22c.03.11-.05.18-.12.23-.1.04-.15-.07-.2-.12-.03-.11.04-.17.11-.22.08 0 .16.03.21.11ZM177.76 20.33c.13.43.09.87-.13 1.23-.01.09.02.23-.1.22-.3-.41-.08-.98.04-1.41.02-.11.15-.15.19-.04ZM187.12 20.54c.15.31.16.72.02 1.02l-.09.09c-.12-.25-.22-.51-.25-.78.06-.2.12-.37.13-.58.15-.03.14.17.19.25ZM171.87 20.66c-.07.13-.25.17-.37.25-.26.2-.64.24-.97.19.28-.4.72-.63 1.25-.52.02.04.08.02.1.08ZM167.38 21.06c.4.29.51.68.75 1.08.03.04.14.06.1.14-.09.07-.17-.07-.3-.04-.42-.19-.68-.65-.67-1.13 0-.04.07-.04.11-.04ZM186.69 21.4c.01.11-.01.22-.1.25-.12.03-.22-.03-.25-.13-.03-.08.03-.12.06-.18.09-.09.24-.04.29.06Z" class="st5"/><path d="M191.31 21.98c0-.21.05-.41.08-.61.03-.07.06-.14.04-.23.26-.35.8-.24 1.21-.21.16.09.37.08.55.12.08-.05.19-.07.27-.05.35-.19.12-.59.14-.91l-.13-.33c-.03-.07-.07-.14-.09-.22-.07-.08-.11-.22-.17-.3-.19-.48-.55-.76-.85-1.14-.56-.73-1.43-1.13-2.31-1.42-.86-.3-1.74.09-2.51.36-.24-.07-.36-.25-.43-.46-.04-.42.04-.83.21-1.17.03-.28.22-.48.29-.74.2-.62.4-1.22.45-1.89.02-.41-.28-.69-.59-.87-.21-.06-.45-.04-.6.12-.14.3-.45.5-.71.64-.02.19.21.07.28.13.24.04.51-.03.71.12.02.44-.23.8-.46 1.13-.37.55-.76 1.11-.99 1.72l-.04-.04.05 2.69c.35.58.78 1.24 1.43 1.46.35.29.79.63 1.26.37.25-.08.27.28.39.42.13.41-.16.69-.19 1.07l-.28.61c-.33.64-.62 1.32-1.13 1.86-.16 0-.26.18-.43.19-.09.12-.26.03-.37.08-.34.14-.82.06-1.05.37.02.03.05.04.09.06.67.01 1.41.06 2.12.02.09-.03.16-.11.17-.21-.1-.19.03-.35.12-.5.05-.26.23-.43.31-.68.23-.45.49-.89.74-1.34l.34-.55c.08-.19.21-.42.34-.62.09-.09.13-.19.2-.3.01-.11-.04-.15-.11-.23.08-.08.2-.06.3-.08.27.17.56.43.61.73l.1.29.04.13-.02.36.04.34c.05.53-.04 1.07-.1 1.6-.19.64-.92.57-1.44.72-.13.09-.38.04-.38.26.63.13 1.38.06 2.05.04.11-.04.13-.14.19-.24.02-.14.16-.26.12-.42-.12-.15-.01-.4-.04-.61.02-.06.02-.13 0-.21.09-.32.07-.7.13-1.01l.04-.42ZM196.69 21.55c-.35.5-.72 1.06-1.33 1.23-.04 0-.09.02-.11-.03.37-.4.57-1.01 1.15-1.16.09-.04.21-.09.29-.04ZM166.84 22.09c-.05.04-.01.14-.11.15-.09.04-.19-.01-.23-.1-.04-.11.05-.22.14-.24.09.04.17.08.2.19ZM169.99 22.24c.03.1-.08.1-.13.12-.46.17-.93.01-1.26-.32 0-.04 0-.09.04-.1.45.11.97.02 1.34.3ZM167.45 22.1s.03.12.02.17c-.07.1-.16.12-.27.1-.07-.03-.1-.08-.14-.14.01-.11.1-.18.19-.21.09.01.15.03.21.09ZM177.69 22.16c.02.1-.07.17-.13.21-.1.02-.19-.02-.23-.09-.03-.08 0-.19.08-.21.1-.02.25-.01.28.09ZM197.1 22.2c.03.11-.06.17-.14.23-.07.03-.14 0-.21-.03-.01-.06-.08-.1-.05-.18.04-.1.14-.14.25-.13.05.04.1.06.15.11ZM197.82 22.16c.07.1.01.18-.04.25-.04.08-.13.1-.2.07-.07-.07-.15-.1-.16-.2 0-.09.1-.15.16-.19.11-.04.15.07.24.07ZM166.38 22.48c.01.08-.05.12-.08.19-.05.02-.11.07-.18.04-.08-.03-.13-.1-.16-.18.02-.1.09-.19.2-.22.09.02.19.07.22.17Z" class="st5"/><path d="M189.41 22.48s.01.1.01.14c-.07.09-.15.17-.26.11-.07-.07-.14-.13-.11-.23.09-.12.27-.16.36-.02ZM168.14 22.64c-.02.08-.05.15-.15.16-.1.01-.13-.08-.19-.12 0-.1-.01-.2.09-.25.13-.04.25.07.25.21ZM167.1 22.66c.03.11-.04.19-.11.24-.13.04-.24-.06-.29-.15.01-.1.09-.22.2-.25.1 0 .15.11.21.17ZM190.13 22.64c.02.11-.01.22-.12.26-.13.04-.24-.07-.29-.15.05-.09.07-.21.2-.23.1 0 .16.04.22.12ZM167.61 22.69c.03.08-.03.11-.06.17-.05 0-.09.07-.15.04-.04-.06-.13-.08-.14-.15-.01-.11.07-.17.14-.21.11-.01.18.07.21.15ZM196.5 22.77c-.03.09-.1.13-.19.18-.09.02-.14-.06-.21-.09-.06-.04-.03-.14-.01-.2.11-.19.4-.1.4.11ZM197.33 22.82c-.03.12-.15.18-.26.19-.1-.04-.21-.12-.13-.25.04-.04.07-.09.13-.1.13-.04.23.06.26.17ZM192.14 22.89c.05.14-.08.19-.16.25a.435.435 0 0 1-.21-.09c-.02-.12.03-.23.15-.29.1 0 .15.04.22.12ZM189.13 23.03c.05.02.03.1.02.13-.07.04-.15.15-.25.09-.08-.04-.13-.11-.11-.21.06-.12.28-.13.34-.01ZM189.75 23.1c.01.09-.01.13-.09.18-.08.08-.16-.01-.24-.03-.02-.04-.04-.11-.01-.17.03-.04.09-.08.14-.09.08.02.16.02.2.11ZM171.19 23.11c.07.07-.01.14-.02.21-.05.07-.17.12-.27.05-.11-.04-.1-.19-.08-.28.07-.02.07-.1.15-.1.1.01.15.06.22.11ZM193.31 23.16c.02.11-.09.15-.16.18-.13.04-.2-.06-.25-.14 0-.07.07-.11.09-.16.15-.07.25.04.33.13ZM192.72 23.16c.04.11-.08.17-.12.22-.08.03-.17.02-.24-.04-.05-.03-.05-.1-.05-.17.07-.06.1-.12.18-.14.1 0 .2.06.24.13ZM197.65 23.29c.02.15-.18.08-.25.12-.46.28-1.05.07-1.49-.1.03-.14.2-.09.28-.14.47-.3.95.07 1.42.09l.03.03ZM167.73 23.16l-.04.08c-.4.24-.93.41-1.41.25l-.04-.07c.4-.3.94-.37 1.46-.3l.03.03ZM194.42 23.24c0 .09-.04.16-.11.21-.11.03-.25 0-.28-.12-.03-.09.05-.18.14-.21.08 0 .21.01.25.12ZM169.69 23.28c-.04.09-.02.18-.13.22-.11.04-.24-.05-.27-.14-.03-.12.05-.15.11-.21.13-.07.23.03.3.13ZM168.91 23.33c.03.08-.03.12-.06.18-.06.07-.15.06-.22.03-.08-.07-.15-.14-.12-.26.07-.06.1-.09.18-.12.1.02.2.07.22.18ZM195.19 23.59c-.01.1-.09.18-.17.2-.09.01-.16-.05-.21-.11a.186.186 0 0 1 .04-.21c.02-.03.1-.03.14-.05.1.01.18.09.2.18ZM168.1 23.47c.03.09-.04.12-.06.19-.03.19-.15.31-.24.47-.21.25-.5.25-.8.33l-.04-.09c.32-.41.66-.73 1.1-.92l.03.02ZM194.64 23.71c.02.13-.09.15-.16.21-.1 0-.17-.05-.22-.13-.03-.12.08-.17.14-.22.11-.02.21.06.24.14ZM169.36 23.71s.01.04.03.06c-.01.12-.1.15-.16.21-.1 0-.17-.03-.24-.11-.04-.1 0-.22.11-.25.1-.01.23 0 .26.1ZM196.65 24.04c.11-.01.13-.14.25-.17.11-.02.21.04.26.12.04.13-.06.2-.14.25-.08.05-.24-.07-.23.08.08.05.14.13.15.22-.02.04-.1.03-.13.01-.32-.13-.66-.35-.79-.68-.04-.1-.25-.18-.13-.26.32-.02.58.23.75.43ZM197.7 23.7c.05.05.03.15-.01.21-.06.11-.22.07-.32.05-.06-.05-.11-.11-.09-.2.04-.07.09-.11.16-.14.1-.02.17.02.25.08ZM193.73 24.29c.1.12.2.31.24.44-.02.03-.08.02-.1.02-.37-.21-.85-.44-1-.88-.03-.04-.12-.1-.11-.18.28-.06.56.15.75.31.08.11.16.17.21.29ZM168.75 23.87c.04.1-.04.18-.1.22a.243.243 0 0 1-.25-.09c-.08-.12.07-.22.15-.26.09-.01.14.08.2.13ZM195.1 24.13c.01.07-.08.11-.11.15-.09.01-.17.04-.25-.03-.02-.06-.08-.14-.01-.2.12-.15.29-.03.37.08ZM197.82 24.28c.03.13-.07.22-.15.28-.11.03-.2-.04-.26-.1-.06-.07-.01-.13 0-.21.08-.07.17-.12.28-.08.04.03.09.05.13.11ZM190.26 25.8c0 .13-.24.1-.34.2-.34.18-.74.18-1.15.17v-.07c.39-.33.96-.45 1.49-.3ZM174.31 26.27c-.01.1-.07.15-.16.19-.08 0-.15-.04-.19-.11-.04-.13.07-.19.14-.24.1.01.19.09.21.17ZM190.07 26.4c-.02.1-.05.21-.16.25-.1.02-.16-.03-.24-.08-.05-.04-.02-.12-.03-.18.08-.2.36-.2.44 0ZM192.25 26.44c-.27.18-.58.39-.94.39h-.59l-.05-.06c.36-.44 1.02-.44 1.59-.4v.07ZM171.31 26.7c0 .1-.04.18-.14.21-.11.02-.19-.02-.23-.1-.04-.1 0-.2.09-.25.12-.08.24.05.28.14ZM171.86 26.81c.03.06-.02.09-.04.14-.07.03-.15.06-.21 0a.142.142 0 0 1-.07-.19c.03-.07.1-.06.13-.1.08.03.15.07.19.14ZM167.67 27.93c-.11.13-.28-.03-.4-.1-.38-.22-.37-.65-.75-.9.04-.13.14.01.22-.01.07.04.15.09.23.12.37.21.46.56.71.89Z" class="st5"/><path d="M182.16 27.72c-.04.13-.13.24-.12.39l-.04.02c.03-.17-.13-.26-.09-.44-.09-.13-.09-.3-.16-.44-.1-.18.09-.25.16-.37.15.07.21.21.32.34.07.19-.08.33-.07.51Zm17.38-4.07c-.17-.32-.47-.45-.82-.45-.28.02-.49.21-.61.45-.07.24.02.46.21.61.08.03.17.02.22-.05.05-.14-.1-.14-.12-.25a.38.38 0 0 1 .12-.39c.11-.11.3-.06.43-.06.13.09.26.17.33.32.07.19.07.4 0 .58-.12.28-.39.5-.68.55-.91.13-10.87.09-10.87.09-1.17.11-2.5-.22-3.51.4-.46.22-.69.73-.81 1.18-.3.26-.61.57-.85.87l-.03-.03c.05-.26.17-.5.23-.76.16-.22.16-.52.28-.76.42-.67.81-1.35 1.45-1.83.27-.36.75-.3 1.17-.3.45.21.97.28 1.52.22.02-.02.03-.04.03-.08-.15-.14-.4-.2-.58-.34-.44-.21-.85.07-1.31.03-.02-.02-.04-.03-.03-.07.42-.31.89-.53 1.36-.73.38-.21.79-.32 1.19-.47.16 0 .32-.14.47-.04l.58-.15s.04.04.09.03c.49-.17 1.11-.01 1.67-.02l.08.07.52.13c.2.02.28.25.49.26.11-.15-.12-.22-.17-.32.24-.06.51.01.73.11l-.11.12c-.07.12.03.21.13.25.08.02.13-.03.19-.05.14-.1-.01-.2.03-.29.81.14 1.59.34 2.33.66.21.07.4.22.63.21-.23-.21-.55-.32-.83-.44-.19-.11-.45-.12-.59-.28.03-.06.11-.03.14-.08.37-.04.69-.32.95-.62.02-.07.14-.04.13-.13-.1-.11-.26.03-.39.02-.46.09-.66.63-1.12.73-.56-.13-1.13-.26-1.68-.41-.27-.04-.57-.07-.82-.18l-.61-.06h-1.12s-.04-.03-.03-.07c.39-.1.73-.33 1.13-.43l2.93-1.34c.31-.28.58-.58.83-.9.01-.09-.04-.18-.12-.21-.08-.03-.16-.02-.22.04-.13.1 0 .22 0 .34-.13.18-.34.33-.5.43-.04-.01-3.02 1.35-3.02 1.35-.44.19-.87.4-1.33.5l-.63.1c-.04.13-.15.21-.27.25-.17.03-.32.14-.5.14-1.42.55-2.9 1.13-4.02 2.26.07-.13.1-.3.11-.46-.02-.17-.01-.35-.12-.48-.03-.06-.11-.24-.08-.3l-.16.1c-.1.24-.19.68-.09.94.03.2.2.43.04.61-.53.64-.82 1.41-1.17 2.14-.13-.02-.2-.14-.25-.26.37-.47.67-1 .78-1.61.08-.06.02-.2.1-.26-.02-.18.1-.35.01-.5.07-.24-.32-.46-.07-.62l-.21.1c-.47.62.24 1.54-.29 2.14v.04c-.15.2-.23.4-.44.53-.26-.11-.36-.41-.51-.63-.24-.23-.24-.7-.1-1.02.1-.32-.07-.59-.1-.88l-.11-.07c-.26.34-.36.88-.15 1.29.11.2.12.47.28.64.1.32.29.53.47.81.04.11-.07.13-.12.19-.12-.08-.1-.25-.21-.33-.36-.77-.83-1.39-1.4-2.01-.02-.1-.12-.19-.07-.3.21-.2.25-.58.14-.84-.02-.06-.09-.12-.08-.18l-.16-.13c.02.39-.23.73-.12 1.13v.02a21.11 21.11 0 0 0-3.64-2.2l-.1.28c.32.08 1.17.6 1.17.6.38.14.73.37 1.09.58 1.49.83 2.47 2.19 3.14 3.71.01.12.12.25.04.37-.23-.35-.56-.55-.83-.84-.08-.52-.38-1.01-.83-1.22-.16-.24-.51-.26-.79-.34l-3.98-.02c-3.24-.04-6.19.1-9.4.04-.45-.04-1-.2-1.13-.67a.723.723 0 0 1 0-.61c.12-.21.34-.28.56-.3.17.02.3.19.37.31 0 .14-.12.28-.18.4.01.04.06.13.13.1.14-.05.25-.21.28-.35.01-.08.04-.19-.03-.24-.07-.23-.31-.4-.51-.45-.27-.02-.56.06-.74.25-.26.22-.25.62-.17.92.17.48.69.81 1.18.88l10.64.04c1.04.05 2.21-.12 3.26.09.38.12.79.41.89.84-.01.02-.04.01-.08.01-.86-.56-2-.77-3.1-.64-.44-.02-.83.14-1.22.25-.21.04-.4-.06-.54-.18-.39-.35-1.08-.33-1.58-.2 0 .03-.01.07.01.08.54-.04.85.42 1.33.47.11.02.2-.1.3-.01-.5.24-.98.53-1.52.68-.16-.03-.25-.19-.38-.28-.21-.23-.59-.13-.87-.15-.1.02-.19-.04-.25 0 .09.18.28.28.47.36.27.12.59-.01.84.15-.07.08-.15.1-.23.15-.51.2-.94.66-1.51.63-.6.07-1.21-.11-1.62-.53-.17-.43-.62-.66-1.1-.64-.03.02-.08.02-.07.08.24.14.43.43.67.6.15.19.45 0 .59.21.21.14.47.26.71.31.17.08.37.11.57.15l-.08.04c-.99.33-2.14.36-3.26.32-.33-.01-.65-.11-.97-.1.05.07.16.12.26.15a.62.62 0 0 1-.3.09c-.13.03-.28.04-.42.11-.17-.01-.33.06-.47.11-.19.2-.4.41-.62.51 0 .04-.01.11.04.11.21-.09.47-.02.68-.11.36-.03.57-.43.85-.59.31-.24.74-.19 1.11-.13.22.06-.02.14.04.29.09.08.16.17.28.13.02-.02.04-.04.08-.06.07-.09.05-.19.01-.28.15-.1.36.01.52-.05.42-.01.83-.1 1.24-.11.07-.01.14-.08.21-.01-.03.09-.14.1-.1.22.02.1.13.14.22.17.11-.04.21-.12.16-.26-.02-.08-.11-.09-.16-.12.23-.11.49-.14.72-.25.16-.03.32-.09.46-.15.14-.01.26-.14.39-.09-.05.19-.13.36-.23.53-.17.58-.31 1.35 0 1.92.03.01.04-.01.07-.02-.23-.58-.1-1.26.1-1.81.15-.94 1.12-1.21 1.8-1.56l.03.04c-.19.48-.46.95-.42 1.53.02.1-.04.2 0 .26.19-.1.31-.32.4-.51.08-.5-.21-1.11.3-1.48.9-.35 1.74-.81 2.78-.83.03.03.11-.02.12.04-.22.24-.54.47-.63.77-.35.48-.34 1.31-.19 1.9.1.34-.2.53-.34.79-.07.09-.09.25-.15.36l.22.02c.19-.2.36-.44.37-.73.02.11.12.2.21.22.08-.12-.07-.21-.08-.33.18-.1.25.12.39.17.23.06.43.15.67.15l.08-.08c-.24-.37-.72-.44-1.14-.46-.22-.36-.22-.81-.2-1.25.04-.23.09-.47.22-.68.05-.15.21-.3.31-.42.2-.19.45-.32.69-.37h.03l.01.03c-.29.23-.33.55-.5.84-.19.28-.27.65-.1.96.07.14.03.36.19.46.14-.2.15-.45.23-.67-.03-.36-.25-.7-.04-1.06.11-.28.34-.39.59-.48.6-.06 1.13.25 1.65.48.11.08.3.14.32.3a.94.94 0 0 1-.4.74c-.3.18-.72.2-1-.01a.748.748 0 0 1-.17-.67c.12-.13.28-.24.48-.18.11.06.21.17.35.1.05-.03.08-.12.04-.18-.12-.07-.16-.23-.33-.25-.21-.03-.46-.02-.6.12-.23.2-.32.5-.25.77.08.35.34.61.68.7.5.12 1.03-.03 1.34-.46.13-.14.16-.3.24-.47.52.32.92.88 1.13 1.45 0 .19.05.39.01.55l.38.03c-.03-.09 0-.19.03-.26.14-.73.59-1.33 1.13-1.81.19-.11.14.14.19.22.16.42.55.72.95.84.46.08.9-.03 1.18-.39.14-.26.32-.65.08-.92a.744.744 0 0 0-.6-.29c-.28 0-.46.2-.6.41 0 .09-.01.19.07.23.04 0 .13.01.16-.06.02-.17.16-.24.3-.33.12-.07.25 0 .35.07.12.1.14.26.15.43-.02.21-.16.43-.36.52-.32.17-.78.09-1.05-.1-.13-.14-.21-.31-.31-.48-.02-.18-.09-.33 0-.51.48-.29.98-.5 1.56-.55.23.04.43.2.58.36.5.52-.11 1.26.24 1.83.13-.02.13-.2.19-.31.16-.4-.04-.83-.14-1.21-.13-.24-.21-.45-.42-.65.06-.02.08-.02.13-.02.23.15.48.33.67.57.32.52.48 1.13.43 1.81-.09.33-.44.48-.71.61-.11.09-.24.22-.3.35.13.08.32 0 .45-.06.21-.08.33-.34.47-.46.02.01.01.04.02.07.01.12-.05.29.05.32.06-.15.07-.37.1-.56.14.15.16.35.21.55.1.2.26.46.52.5.07-.1-.01-.2-.03-.29-.03-.28-.26-.42-.42-.62-.38-.53-.21-1.35-.5-1.95-.11-.32-.34-.55-.59-.81l.04-.04c.54-.01.98.17 1.48.26.6.3 1.48.23 1.76 1.01.12.44.32.85.62 1.19l.03-.02c.07-.11.07-.3 0-.41-.07-.55-.55-.68-.8-1.15l.03-.04c.26.08.54.14.8.25.87.24 1.49 1.1 1.6 1.99 0 .7-.13 1.29-.4 1.88-.03.09-.19.19-.09.26.12-.09.14-.23.21-.33.36-.61.55-1.44.36-2.21-.01-.14-.18-.25-.1-.4.06.07.12.08.19.1.07-.04.16-.04.21-.12.01-.07.05-.14 0-.2-.07-.1-.21-.1-.32-.08-.06.07-.12.15-.13.24-.11-.19-.22-.43-.39-.58l.02-.03c.49.17.94.41 1.44.54.11.07.23.12.38.12.43.17.9.23 1.34.34.33-.03.6.12.93.04v-.02h-.01c-.12-.14-.38 0-.52-.11-.75-.08-1.48-.28-2.15-.54.01-.03.05-.02.09-.02.11-.06.19-.15.17-.28-.05-.08-.14-.12-.25-.12-.07.03-.15.11-.16.19.01.09.09.19.16.21-.02.02-.07.01-.1.01-.34-.15-.67-.3-.99-.45-.12-.02-.22-.12-.34-.14-.25-.12-.5-.24-.75-.34-.7-.36-1.48-.56-2.22-.83-.16-.04-.32-.09-.47-.13-.27-.08-.55-.14-.82-.22-.93-.23-2.18-.25-2.98.25-.13-.04-.21.17-.27.03.23-.61.9-.8 1.5-.83 4.38-.04 8.49-.08 12.81-.14.5 0 .99-.18 1.26-.63.19-.26.22-.72.08-1.01Z" class="st5"/><path d="M194.02 27.02s.07.04.04.1c-.38.34-.92.44-1.46.46-.04.01-.09.04-.14.03-.03-.02-.04-.06-.02-.08.39-.43.99-.65 1.58-.52ZM192.26 27.2c.04.15-.05.24-.18.3-.12-.01-.19-.09-.24-.18-.03-.09.04-.13.08-.19.09-.09.29-.09.34.07ZM171.48 27.22c.02.08.01.18-.05.23-.04.06-.14.07-.2.06-.08-.01-.12-.1-.14-.17 0-.1.05-.15.14-.21.09 0 .19-.01.25.09ZM169.52 27.94v.08a.822.822 0 0 1-.71-.17c-.15-.22-.33-.44-.58-.55 0-.03-.07-.08 0-.1.55 0 .87.44 1.29.74ZM195.68 27.21c-.25.37-.47.84-.92 1-.08 0-.14.11-.21.03.18-.42.55-.87.97-1.05.04 0 .11-.01.15.01ZM172.11 27.34c.01.12-.08.14-.15.21-.09.01-.13-.06-.19-.12-.04-.11.05-.15.11-.21.09-.02.19.04.23.12ZM197.06 27.41c-.1.14-.06.35-.15.51-.22.25-.4.54-.75.59-.05-.11.08-.22.13-.32.15-.33.37-.7.72-.85l.06.07ZM166.13 27.51c.03.08.07.15 0 .24-.07.06-.16.08-.25.04-.1-.06-.13-.18-.09-.26.07-.1.26-.15.34-.02ZM165.51 27.64c.01.06.04.1.03.15-.03.06-.09.12-.15.13-.12.02-.2-.04-.25-.14-.01-.1.02-.19.11-.23.1-.04.21.01.26.09ZM166.8 27.71c.02.09.04.24-.09.26-.15.07-.24-.04-.33-.13 0-.1.05-.18.13-.22.11-.01.21 0 .28.09ZM168.59 27.85c-.01.08.01.19-.08.21-.05.06-.15.03-.21.02-.02-.07-.14-.12-.08-.2.04-.05.09-.09.15-.12.07.03.16 0 .21.09ZM198.11 27.93c-.03.08-.08.18-.16.18-.1-.01-.2-.02-.25-.12-.04-.12.05-.19.14-.22.11 0 .25.04.27.17ZM196.11 27.98c.01.09-.09.15-.13.19-.15.07-.28-.04-.34-.17.02-.1.1-.16.19-.2.14-.01.22.07.28.18ZM197.46 27.96c0 .08-.04.15-.1.19-.09.03-.2.02-.26-.04-.1-.09-.02-.17.04-.23.1-.06.28-.04.32.09ZM165.85 28.15c.02.12-.02.23-.13.28-.1 0-.21-.06-.24-.15-.01-.1.02-.2.11-.23.11-.03.2.03.26.11ZM195.56 28.27c.03.12-.03.23-.15.29-.09.02-.14-.02-.21-.08-.04-.05-.1-.18-.01-.23.09-.17.31-.1.37.02ZM171.73 28.39c.04.12-.09.14-.12.21-.04.02-.13.03-.16-.01-.05-.07-.12-.13-.09-.23.05-.04.08-.09.14-.11.12-.03.16.08.23.14ZM197.91 28.47c.02.08-.04.11-.05.17a.28.28 0 0 1-.25.04c-.1-.06-.1-.14-.1-.24.07-.04.08-.1.15-.12.1 0 .22.04.25.15ZM197.23 28.5c.04.13-.08.2-.16.23-.04.01-.11-.02-.12.04.28.14.46.37.68.58v.09c-.39-.01-.8-.11-1.08-.42-.08-.05-.21-.05-.29-.13.14-.14.4-.09.6-.1.14-.15-.16-.26.02-.4.07-.01.11-.08.2-.06.08.03.12.09.16.15ZM192.76 28.51c.02.06-.04.12-.05.18a.2.2 0 0 1-.24.04c-.05-.08-.14-.14-.11-.25.09-.17.37-.13.4.03ZM168.32 28.89c-.03.1-.08.17-.19.18-.09-.01-.16-.04-.2-.13-.01-.08.04-.12.05-.18.12-.1.34-.03.33.13ZM169.2 28.75c0 .15-.16.24-.22.4-.16.36-.46.69-.87.73-.04-.1.14-.22.19-.32.17-.37.52-.57.84-.8h.07ZM192.5 28.91c.01.12-.1.21-.19.25-.1.03-.18-.04-.23-.09-.09-.09-.03-.18.01-.26.13-.13.32-.02.4.1ZM193.18 28.98c-.01.12-.09.21-.2.24-.02-.03-.08-.01-.11-.02-.08-.04-.14-.11-.14-.2.06-.06.08-.14.15-.15.1-.01.26 0 .3.13ZM170.9 28.97c.01.12-.08.19-.16.23-.1.01-.16-.05-.21-.13-.02-.1.08-.17.13-.22.13-.04.16.06.24.12ZM171.65 29.02c-.03.1-.1.17-.21.19-.08-.02-.16-.04-.2-.13-.01-.11.08-.17.15-.22.11 0 .23.04.25.17ZM195.53 29.79c.05.04.15.1.13.18-.17.08-.32-.12-.48-.15-.26-.26-.46-.55-.57-.88.1-.1.21.02.29.06.25.21.49.48.62.8ZM195.93 29.02c.03.08.02.17-.02.24-.07.11-.21.09-.31.07-.06-.07-.15-.15-.09-.25.03-.09.13-.11.21-.14.08-.01.13.06.21.09ZM172.66 29.3c.01.09.03.22-.08.28-.1.02-.23-.01-.26-.13-.05-.13.07-.15.13-.22.09-.02.14.02.21.08ZM193.15 30.02c.15.22.26.5.28.78-.03.08.06.15-.01.21h-.04c-.49-.35-.6-.85-.79-1.34-.04-.02-.05-.07-.04-.11.11-.1.19.1.29.13l.31.33ZM174.08 29.64s0 .02.01.02c-.44.31-1.05.5-1.55.2-.01-.03.01-.09.05-.1.32-.1.62-.25.96-.21l.52.09ZM171.59 29.7c-.37.23-.71.68-1.17.79-.09.03-.14.15-.25.09.2-.6.84-.91 1.42-.97v.09ZM192.5 30.19c.03.09 0 .21-.09.23-.05.06-.16.06-.21 0-.1-.04-.1-.14-.1-.22.03-.08.11-.09.16-.12.1.02.18.02.23.11ZM191.59 30.25c-.07.15-.25.24-.39.29-.37.13-.71-.04-1.04-.13.01-.09.12-.06.17-.11.36-.08.73-.15 1.11-.05.03-.02.11-.03.14.01ZM171.59 30.57s-.04.14-.13.18c-.08.03-.15 0-.22-.04-.02-.07-.1-.12-.04-.2.02-.08.11-.1.17-.12.11.01.2.08.22.19ZM172.23 30.67c-.03.07-.07.17-.15.21-.09.02-.15-.02-.22-.08-.03-.07-.07-.14-.03-.22.02-.06.1-.07.15-.1.11-.01.21.1.25.19ZM192.29 30.78c.01.09-.03.14-.08.21-.05.08-.16.09-.24.04-.08-.01-.1-.1-.13-.15-.07-.09.04-.14.08-.22.12-.1.32-.04.37.12ZM192.77 30.76c.01.05.04.11.02.15-.07.06-.11.2-.24.14-.07.02-.1-.07-.13-.09-.04-.11-.01-.28.13-.3.1-.03.16.06.22.09ZM171.84 31.07c.02.12-.02.23-.11.3-.12.02-.27.02-.32-.12-.01-.11 0-.25.13-.32.11-.01.24.01.3.14ZM172.46 31.03c-.02.31-.09.68-.39.86-.18.03-.35.2-.52.09v-.06c.23-.33.65-.58.92-.89ZM190.58 31.28c.04.07-.03.12-.07.18-.07.08-.19.04-.26.01-.08-.03-.09-.14-.06-.22.02-.07.09-.1.14-.12.1-.01.19.08.24.15ZM173.56 31.79c.15.25.07.59.15.87-.19.02-.26-.19-.38-.3-.24-.33-.21-.77-.32-1.16.02-.03.05-.03.08-.02.16.11.28.32.42.46-.02.08.07.08.05.14ZM191.12 31.37c0 .09-.1.11-.15.17a.373.373 0 0 1-.21-.1c-.03-.11.05-.14.11-.2.11-.04.22.01.25.13ZM192.42 32.35s-.01.1-.07.08h-.04c-.32-.29-.63-.61-.59-1.05h.07c.3.24.62.52.63.97ZM191.6 32c.01.09-.04.15-.1.21-.12.03-.31.02-.33-.14-.01-.11.11-.17.16-.22.13-.03.22.05.26.15ZM190.88 32.23c-.15.41-.57.62-.85.92-.05-.03-.03-.12-.02-.17.11-.42.44-.83.84-.99.17.02 0 .14.03.23ZM191.7 32.56c0 .1-.1.14-.15.2-.09-.01-.17-.03-.24-.12-.01-.11.08-.14.14-.2.11-.02.21.03.25.12ZM183.58 12.66h-.12c-.32 0-.05.38.12.38.21 0 .22-.38 0-.38Zm-.98.38c.32 0 .02-.38-.15-.38h-.32c-.32 0-.02.38.15.38h.32Zm-1.32 0c.32 0 .02-.38-.15-.38h-.32c-.32 0-.02.38.15.38h.32Zm2.29-.47c.15 0 .27.12.27.27s-.12.27-.27.27h-3.24c-.15 0-.27-.12-.27-.27s.12-.27.27-.27h3.24ZM183.59 17.6c0 .14.19.05.33.05s.33.1.33-.05c0-.2-.19-.13-.33-.13s-.33-.07-.33.13Zm.61.34c.14 0 .15-.19.15-.36 0-.38-.3 0-.45-.35-.11.3-.42.02-.42.34 0 .22 0 .37.22.37h.5Zm-.92-1.65.62.24.61-.24-.24.91.48-.1-.17.55.17.53-.43-.12.19.98-.61-.24-.62.24.25-.98-.49.14.13-.55-.13-.53.47.08-.23-.91ZM181.83 17.63v-.11l-.1-.02.08-.09-.05-.09.11.01.06-.11.06.11.11-.01-.05.09.08.09-.1.02v.11l-.1-.07-.1.07zM181.35 18.25v-.11l-.1-.02.08-.09-.05-.09.11.01.06-.11.06.11.11-.01-.05.09.08.09-.1.02v.11l-.1-.07-.1.07zM182.17 18.17v-.11l-.11-.02.09-.09-.05-.09.1.01.07-.11.06.11.11-.01-.05.09.08.09-.11.02v.11l-.09-.07-.1.07zM182.26 18.64v-.07l-.05-.01.04-.05-.03-.05h.06l.04-.06.04.06h.06l-.03.05.04.05-.05.01v.07l-.06-.05-.06.05zM181.51 19.16v-.19l-.18-.04.14-.14-.09-.16.18.02.12-.2.1.19.19-.01-.09.16.14.14-.18.04v.19l-.16-.12-.17.12zM181.89 8.78l.39.95.97-.29-.49.89.83.59-1 .17.06 1.02-.76-.69-.75.69.06-1.02-1-.17.83-.59-.5-.89.98.29.38-.95zM178.37 30.01c-.12.04-.16.08-.13.2l.14.58c.03.11.03.28-.04.38-.08.12-.27.2-.4.24-.1.02-.3.06-.47 0-.11-.05-.18-.1-.23-.29l-.14-.61c-.04-.15-.09-.14-.22-.12v-.05l.72-.18v.05c-.13.04-.2.06-.16.22l.14.61c.02.1.08.35.4.28.38-.09.32-.37.29-.49l-.13-.55c-.03-.11-.07-.17-.26-.13v-.05l.47-.11v.05h.01ZM179.45 30.13c-.07-.12-.24-.3-.5-.24-.11.03-.22.11-.19.23.02.1.07.13.27.17l.35.06c.08.01.27.08.31.28.03.16-.06.41-.46.5-.21.05-.32 0-.39.02-.05.01-.05.05-.05.08h-.06l-.1-.44h.06c.08.16.26.34.53.28.26-.06.23-.24.23-.27-.03-.12-.14-.14-.29-.17l-.16-.03c-.41-.07-.44-.22-.46-.31-.02-.11-.01-.37.4-.47.17-.04.29 0 .35-.02.05-.01.05-.04.06-.08h.07l.09.38h-.06ZM180.89 30.85l-.79.08v-.05c.16-.03.21-.04.19-.19l-.09-.98c-.15.02-.38.05-.4.36h-.06l-.03-.37 1.33-.13.04.37h-.06c-.07-.29-.3-.28-.46-.27l.09.98c.02.16.07.16.23.15v.05ZM181.78 30.19c.29 0 .41-.04.41-.28 0-.19-.09-.27-.26-.27-.12 0-.13.02-.14.08v.48Zm.97.66h-.46l-.45-.6h-.06v.37c0 .15.05.16.19.18v.05l-.75-.01v-.05c.15-.01.2-.02.2-.17l.02-.83c0-.16-.07-.17-.19-.18v-.05l.72.01c.16 0 .63.03.62.34 0 .23-.24.28-.36.31l.44.54s.06.04.09.04v.05Z" class="st5"/><path d="m183.59 30.52-.17-.48-.26.43.43.05Zm.62.52-.72-.09v-.05c.14 0 .18.01.19-.05 0-.05-.05-.2-.07-.26l-.5-.06c-.08.13-.12.2-.13.23 0 .07.1.09.17.1v.05l-.46-.06v-.05c.13 0 .17-.06.25-.19l.62-.96h.06l.37 1.05c.07.21.1.28.21.29v.05ZM185.51 31.31l-1.27-.23v-.05c.13 0 .2.02.22-.1l.16-.89c.02-.12-.07-.14-.17-.17v-.05l.77.14v.05c-.16-.02-.23-.03-.26.13l-.16.87c-.02.09.03.11.18.14.33.06.48-.07.62-.26h.06l-.17.41ZM186.35 31.49l-.76-.16v-.05c.13.02.22.03.24-.09l.18-.89c.02-.12-.08-.15-.18-.17v-.05l.77.16v.05c-.11-.02-.22-.04-.24.09l-.18.89c-.02.12.06.14.18.17v.05ZM187.27 31.18l-.18-.48-.25.43.43.04Zm.63.51-.72-.07v-.05c.14 0 .18 0 .19-.05 0-.05-.05-.2-.08-.26l-.5-.05c-.08.13-.12.2-.12.23 0 .07.1.09.17.1v.05l-.45-.05v-.05c.13 0 .16-.06.24-.2l.6-.97h.06l.39 1.04c.08.21.11.28.22.28v.05ZM181.81 16.68c-.13 0-.31.09-.31-.07 0-.22.15-.17.28-.17s.33-.05.33.17c0 .16-.18.07-.31.07Zm.39-.09c0-.45-.25-.03-.39-.41-.1.32-.41.05-.41.4 0 .13.03.21.1.25v.13s.03.06.06.06h.48s.06-.03.06-.06v-.14c.06-.05.1-.13.1-.23ZM186.11 22.11c.11 0 .21-.08.21-.18s-.09-.18-.21-.18-.21.08-.21.18.09.18.21.18ZM185.14 15.45s-.1.16-.1.19c0 .06.04.11.1.11s.1-.05.1-.11l-.1-.19ZM178.54 15.45s-.1.16-.1.19c0 .06.04.11.1.11s.1-.05.1-.11l-.1-.19ZM180.19 15.45s-.1.16-.1.19c0 .06.04.11.1.11s.1-.05.1-.11l-.1-.19ZM181.84 15.45s-.1.16-.1.19c0 .06.04.11.1.11s.1-.05.1-.11l-.1-.19ZM183.49 15.45s-.1.16-.1.19c0 .06.04.11.1.11s.1-.05.1-.11l-.1-.19ZM178.54 17.72s.1.16.1.19c0 .06-.04.11-.1.11s-.1-.05-.1-.11l.1-.19ZM178.54 19.92s.1.16.1.19c0 .06-.04.11-.1.11s-.1-.05-.1-.11l.1-.19ZM178.81 21.66s.1.16.1.19c0 .06-.04.11-.1.11s-.1-.05-.1-.11l.1-.19ZM180.19 22.59s.1.16.1.19c0 .06-.04.11-.1.11s-.1-.05-.1-.11l.1-.19ZM185.23 17.72s-.1.16-.1.19c0 .06.04.11.1.11s.1-.05.1-.11l-.1-.19ZM185.23 19.92s-.1.16-.1.19c0 .06.04.11.1.11s.1-.05.1-.11l-.1-.19ZM184.96 21.66s-.1.16-.1.19c0 .06.04.11.1.11s.1-.05.1-.11l-.1-.19ZM183.58 22.59s-.1.16-.1.19c0 .06.04.11.1.11s.1-.05.1-.11l-.1-.19ZM181.89 23.57s-.1.16-.1.19c0 .06.04.11.1.11s.1-.05.1-.11l-.1-.19ZM184.58 20.29s.07.04.14.02l.06-.18s-.07-.08-.12-.07c-.18.04-.36.06-.47.23 0 .11.08.22.17.27.06-.02.07.04.11.07.01.05-.02.09-.07.09-.13-.13-.34.04-.44-.12.04-.16.12-.33-.01-.48.01-.03.06-.06.03-.09-.05-.15-.21-.03-.3-.03-.16-.02-.28.06-.37.19.01.05.03.1.08.16.04-.01.06 0 .07.04l-.1.06s.03.07.04.11c-.07.03-.15-.07-.18-.13 0-.08.01-.23-.1-.25-.02 0-.09.03-.09.03-.03.03-.04.1-.04.17s.04.19.04.19.32.24.39.38c-.09.19-.09.45-.31.55-.06.04-.06.1-.06.17l.05.04c.14-.07.39-.09.37-.32.05-.09.1-.2.2-.27.1-.02.2.03.24.12-.03.16-.13.26-.28.31-.02.02-.01.05-.01.08.04.07.16.04.22.03.18-.12.25-.32.4-.39.02.1-.21.14-.06.24.09-.02.22.01.28-.12-.07-.18.25-.26.05-.42 0-.16.17-.22.16-.39-.06-.17-.26-.17-.31-.32.06-.04.16-.03.22 0ZM176.99 22.19c.11 0 .21-.08.21-.18s-.09-.18-.21-.18-.21.08-.21.18.09.18.21.18ZM166.29 28.45c.11 0 .2-.09.2-.19s-.09-.19-.2-.19-.2.09-.2.19.09.19.2.19ZM173.07 29.94h.01Zm.03.02h-.01v-.02h-.02v.02h-.02v-.02h.02s.02 0 .02.01v.02h.01Z" class="st5"/><path d="M173.13 29.94h-.01v.01c0 .01 0 .01-.02.01h-.01c-.01 0 0 0 0 0v-.01s0 .01.01.01-.01-.01-.01-.01 0-.01.01-.01h.01v.01ZM173.2 29.93h-.01l-.01.03-.01-.02-.01.02h-.01l-.01-.03h.01l.01.02.01-.01-.01-.01h.02v.02l.01-.02h.01zM173.22 29.95v-.01.01Zm-.02.01s.01 0 .02-.01-.01 0-.01-.01c0 0 0-.01.01-.01 0 0 .01 0 .01.02 0 0 0 .02-.03.02ZM173.24 29.94h.01v.01s0 .01-.02.01h.01-.01v-.02h.03-.02ZM185.48 21.09c-.04.44-.19.81-.49 1.01l-2.87 1.83h-.02c-.06.05-.14.08-.22.08s-.16-.03-.23-.08l-2.87-1.82c-.3-.21-.45-.57-.49-1.01v-5.7h7.19v5.7Zm.21-5.9h-7.62v5.82c0 .59.26 1.11.6 1.27l2.93 1.86c.06.07.16.12.27.12.09 0 .18-.04.24-.09l2.98-1.89c.35-.16.6-.68.6-1.27v-5.82ZM182.91 23.68l.09-.04s-.07.03-.09.04ZM176.44 31.27l-.28-.43-.16.48.43-.05Zm.72.36-.72.08v-.05c.13-.03.17-.03.16-.09 0-.05-.09-.18-.13-.24l-.5.06c-.05.14-.07.22-.07.25 0 .07.12.06.19.06v.05l-.44.05v-.05c.11-.03.14-.1.19-.24l.37-1.08h.06l.61.91c.12.19.17.25.27.23v.05Z" class="st5"/><path d="M189.49 29.32c-.1.2-.25.34-.47.37.01-.26.25-.45.16-.75-.14-.21-.43-.28-.69-.22-.1.07-.05.18-.09.28l-.04.36c-.22 0-.23-.2-.3-.35.01-.23.11-.46.34-.57.17-.09.46-.08.63.02.14.03.31.1.36.23.16.15.12.43.09.63Zm-.88.11c.12-.12-.03-.82.31-.36 0 .09.01.22-.08.29-.05.04-.14.13-.23.08Zm.12.28c.01.18-.15.13-.24.2h-.26c-.05-.09-.03-.22-.03-.31.17.03.37.03.54.11Zm.3 1.34c-.09.11-.01.29-.12.39 0 .2-.16.3-.31.37-1.3.29-2.58-.15-3.84-.37-1.76-.39-3.82-.5-5.61-.09-.84.15-1.66.35-2.47.58-.5.07-1.05.14-1.53-.01-.39-.19-.23-.69-.35-1.05.02-.28-.08-.5-.09-.76a.728.728 0 0 1-.04-.29c.16.02.33.14.5.19.92.18 1.74-.12 2.59-.28.82-.18 1.66-.32 2.53-.39.98-.01 1.99-.07 2.93.1.31.01.57.09.86.11.61.08 1.18.24 1.8.29.1.03.22.03.33.05.98.15 2.09.43 3.03 0 0 .4-.16.76-.22 1.14Zm-5.55.81c.05.15.15.3.1.48-.11.21-.33.21-.52.25-.1.01-.18-.02-.25-.08.01-.04-.01-.08-.04-.11.03-.14-.25-.29-.05-.41.17-.17.59-.54.78-.14Zm.24.04c.13.03.14.18.15.29-.01.24-.14.45-.37.54-.12.07-.31.09-.43.04.26-.01.55-.11.66-.37v-.5h-.01Zm.29 1.46s-.02.03-.02.04c-.32.01-.52-.18-.76-.34V33c.28.02.52.21.79.35Zm-.41 1.02s-.07.03-.09.01c-.33-.42-.48-.86-.69-1.32h.04c.26.42.47.89.73 1.31Zm-.55-.27-.05.02c-.05-.04-.03-.17-.02-.23.07.05.12.13.08.21Zm-.3-.66c.01.11.12.15.06.25-.02-.04-.09-.14-.06-.25Zm-.07-.69v-.03h.02v.03h-.02Zm-.63 1.58c-.21.01-.52.13-.72-.04.01-.09-.09-.13-.08-.22.17-.07.33.14.49-.01.25.01.51-.03.76.02.12.03.31-.2.33.03-.09.36-.52.11-.79.22Zm-.48-1.31.05-.09c-.09.26-.22.54-.36.79-.07-.26.21-.47.31-.7Zm.3-.2c.14-.15.27.09.33.21.16.24.59.46.43.79-.21.19-.54.01-.77.15-.12-.01-.33.02-.39-.1.12-.35.23-.75.4-1.06Zm-.03-.42h-.04l.07-.07s-.01.04-.02.07Zm.25.02c.04-.07.1-.17.17-.17 0 .01.01.02.02.03-.07.05-.12.11-.2.13Zm.16.16s.08-.02.1 0h-.1Zm.29.35s.01.05-.02.08l-.25-.2c.12-.02.21.03.27.12Zm-.02-.68v.03h-.01v-.03h.01Zm.46-.68c-.13.04-.23.2-.36.23.07-.12.23-.24.36-.23Zm-.55-.14c-.02-.1.1-.02.14-.07l.34.02c-.17-.02-.39.39-.48.04Zm-.8.31c.05-.15.07-.29.16-.41.11 0 .21 0 .29.04.02.22.3.52 0 .71-.1.04-.24.14-.35.04-.14-.12-.16-.23-.11-.39Zm-.16.68.03-.15c.05-.06.11.04.13.08-.03.06-.1.09-.16.08Zm-.01-.51h-.01v-.12h.01v.12Zm-.13-.33c-.14-.03-.22-.2-.37-.2.13-.04.26-.03.42-.01.05.08-.03.14-.04.21Zm-.12.89c.03-.14.1-.33.17-.46-.01.14-.08.34-.17.46Zm-.24 0c-.19-.02-.36-.08-.52-.13-.11-.11 0-.23 0-.35.15-.24.59-.36.8-.14-.03.24-.12.45-.27.63Zm.1.3v.04h-.02v-.04l.04-.01c-.01 0-.03 0-.04.01h.02Zm-.28.64c-.15.35-.33.69-.54 1.03-.02.06-.11.07-.17.08 0-.15.15-.28.22-.41.23-.3.3-.62.56-.9.07.07-.07.11-.07.2Zm-1.04-.11c.26-.11.54-.34.83-.24-.21.17-.55.23-.83.24Zm.4-.76c-.05-.39.1-.72.35-.99.15-.03.33-.07.47.02-.28.08-.65.14-.71.51.01.14-.03.22.03.34.12.21.39.12.55.29 0 .06-.04.12-.1.13-.19-.11-.42-.15-.59-.3Zm-5.13-3.53c.03-.09 0-.22.12-.24.08-.02.2-.02.21.07-.01.13-.02.26-.05.39-.15.01-.23-.08-.27-.21Zm.03.37c.16.12.39.07.59.1.03.12.03.28-.05.37-.19-.04-.43-.02-.52-.2.02-.08-.03-.19-.01-.28Zm-.51-.32c.03-.2.08-.41.26-.55.26-.14.62-.11.86.03.08.04.13.11.18.21.05.19-.03.39-.16.5h-.11c0-.18 0-.35.07-.5-.01-.13-.12-.14-.21-.2-.19-.06-.35.03-.49.11-.11.13-.21.3-.14.48.08.12.01.29.05.42l-.03.04c-.13-.14-.31-.3-.27-.55Zm10.26 4.68c.26.12.79.23 1.17.28-.03.15-.3 0-.27.22-.34-.13-.73-.2-.98-.46.02-.01.04-.04.09-.03Zm-6.83.18-.15-.14c.08-.1.24-.04.36-.11.28-.09.61-.2.93-.13-.33.26-.75.3-1.14.39Zm11.81-5.02c-.13-.34-.4-.57-.74-.68-.35-.08-.72-.02-.95.24-.39.32-.12.85-.11 1.28 0 .09.01.15-.08.2-1.58-.14-3.06-.54-4.63-.7-.36-.06-.72-.05-1.07-.12l-.44-.05c-1.37.04-2.73.12-4.01.45-.27.09-.58.11-.85.21-.2-.03-.36.11-.55.06l-.36.08h-.12c-.17-.45.35-.73.19-1.17-.14-.25-.43-.5-.75-.45-.37-.04-.7.17-.87.45-.25.55.07 1.12.16 1.66-.02.18.18.37 0 .52-.35-.24-.81-.37-1.23-.25-.13.07-.37-.02-.44.13.47.25 1.07.22 1.6.2.07-.02.11-.03.16.01.04.29-.05.67.12.92.2.26.52.33.84.36 1.01-.03 1.9-.33 2.82-.56.14-.01.25-.09.4-.09.49-.11 1.03-.2 1.55-.21-.23.3-.36.63-.46.99-.13.3.23.34.34.51-.34.1-.58.33-.9.46-.7-.02-1.29.24-1.95.32-.01.14.23.1.25.24-.03.1-.13.11-.21.17-.01.07 0 .08.07.09.07-.08.21-.02.27-.1.22 0 .4-.07.61-.08.19-.08.39-.09.56-.22.23-.07.37-.22.6-.29.33 0 .62-.11.93-.13v.07c-.25.41-.51.83-.78 1.21-.04.08.01.15.08.18.15.04.31 0 .43-.07.23-.4.44-.77.62-1.18.08-.37.35-.57.62-.83.04-.02.11-.09.15-.02-.22.25-.36.5-.52.77-.09.31-.11.7.16.96.13.11.33.08.5.09.43-.22.97.13 1.3-.29.2-.03.23.2.34.31.19.06.38.24.57.11-.01-.12-.14-.23-.21-.34-.13-.23-.3-.42-.42-.63-.05-.15-.15-.25-.18-.41.2.07.37.2.59.23.19.08.42.07.59.18.14.19.36.3.55.42.27.13.58.15.86.26.11.01.27.1.35 0-.04-.06-.1-.09-.16-.12-.03-.14.2-.07.27-.18a.156.156 0 0 0-.13-.08c-.16-.08-.55-.11-.65-.17-.13-.02-.25-.08-.38-.12-.66 0-1.02-.6-1.54-.81.12-.11.31-.2.38-.36.1-.15.13-.41.03-.58-.1-.34-.54-.3-.79-.48l.03-.03c.43-.02.8.08 1.18.15 1.05.14 2.02.54 3.12.56.6 0 1.36.03 1.65-.55.05-.34.12-.68.17-1.02.13-.55.49-1.06.44-1.66ZM226.27 43.18h-.31V8.78h.31v34.4z" class="st5"/><path d="m310.57 26.63-.41-1.02h-2.34l-.41 1.02h-.64l1.85-4.61h.71l1.86 4.61h-.64Zm-1.58-4.1-1 2.56h2l-1-2.56ZM314.48 26.63l-1.17-1.83h-.92v1.83h-.57v-4.61h1.85c.84 0 1.44.54 1.44 1.39s-.57 1.29-1.2 1.34l1.24 1.88h-.68Zm-.89-4.1h-1.21v1.76h1.21c.55 0 .92-.37.92-.88s-.37-.88-.92-.88ZM316.01 26.63v-4.61h1.58c1.43 0 2.36 1 2.36 2.31s-.93 2.3-2.36 2.3h-1.58Zm.58-.52h1c1.12 0 1.77-.8 1.77-1.79s-.63-1.8-1.77-1.8h-1v3.59ZM320.67 24.32c0-1.42 1.04-2.38 2.35-2.38.84 0 1.4.39 1.77.91l-.48.27c-.26-.39-.74-.67-1.29-.67-.99 0-1.76.77-1.76 1.87s.77 1.87 1.76 1.87c.55 0 1.02-.28 1.29-.67l.49.27c-.39.53-.94.91-1.78.91-1.31 0-2.35-.97-2.35-2.38ZM327.21 22.37c0-.19.16-.35.35-.35s.35.15.35.35-.16.35-.35.35-.35-.16-.35-.35Zm.09 4.26v-3.34h.52v3.34h-.52ZM328.83 25.81c.22.26.64.48 1.1.48.51 0 .79-.23.79-.55 0-.37-.41-.48-.86-.59-.57-.13-1.21-.28-1.21-.97 0-.52.45-.96 1.24-.96.57 0 .97.21 1.24.48l-.24.36c-.2-.24-.57-.42-1-.42-.46 0-.74.21-.74.5 0 .32.38.43.82.53.58.13 1.25.3 1.25 1.04 0 .56-.45 1.01-1.31 1.01-.55 0-1.01-.17-1.35-.53l.27-.37ZM308.69 31.11c1.01 0 1.6.79 1.6 1.79v.13h-2.7c.04.63.48 1.15 1.2 1.15.38 0 .77-.15 1.03-.42l.25.34c-.33.33-.78.51-1.33.51-.99 0-1.7-.71-1.7-1.76 0-.97.69-1.75 1.64-1.75Zm-1.1 1.54h2.19c0-.5-.34-1.11-1.1-1.11-.71 0-1.06.6-1.09 1.11ZM313.38 34.53v-2.18c0-.59-.3-.77-.75-.77-.41 0-.79.25-.99.52v2.44h-.52V31.2h.52v.48c.23-.28.69-.57 1.19-.57.7 0 1.06.35 1.06 1.08v2.34h-.52ZM317.03 34.53v-.38c-.28.3-.66.46-1.11.46-.57 0-1.17-.38-1.17-1.11s.6-1.1 1.17-1.1c.46 0 .84.15 1.11.46v-.6c0-.45-.36-.71-.84-.71-.4 0-.73.15-1.02.46l-.24-.36c.36-.37.79-.55 1.33-.55.71 0 1.29.32 1.29 1.13v2.29h-.52Zm0-1.33c-.2-.28-.55-.42-.92-.42-.48 0-.82.3-.82.73s.34.73.82.73c.37 0 .72-.14.92-.42v-.63ZM318.59 34.53v-4.61h.52v1.78c.27-.37.67-.59 1.13-.59.87 0 1.49.69 1.49 1.76s-.62 1.75-1.49 1.75c-.47 0-.88-.24-1.13-.58v.5h-.52Zm.52-.9c.18.29.59.53 1 .53.68 0 1.08-.55 1.08-1.29s-.4-1.29-1.08-1.29c-.41 0-.82.25-1 .54v1.51ZM322.56 34.53v-4.61h.52v4.61h-.52ZM325.57 31.11c1.01 0 1.6.79 1.6 1.79v.13h-2.7c.04.63.48 1.15 1.2 1.15.38 0 .77-.15 1.03-.42l.25.34c-.33.33-.78.51-1.33.51-.99 0-1.7-.71-1.7-1.76 0-.97.69-1.75 1.64-1.75Zm-1.1 1.54h2.19c0-.5-.34-1.11-1.1-1.11-.71 0-1.06.6-1.09 1.11ZM330.43 34.53v-.5c-.25.34-.66.58-1.13.58-.87 0-1.49-.66-1.49-1.75s.61-1.76 1.49-1.76c.45 0 .86.22 1.13.59v-1.78h.52v4.61h-.52Zm0-2.42c-.19-.29-.59-.54-1-.54-.67 0-1.07.55-1.07 1.29s.4 1.29 1.07 1.29c.42 0 .82-.24 1-.53v-1.51ZM307.24 42.44v-4.61h.52v1.78c.27-.37.67-.59 1.13-.59.87 0 1.49.69 1.49 1.76s-.62 1.75-1.49 1.75c-.47 0-.88-.24-1.13-.58v.5h-.52Zm.51-.91c.18.29.59.53 1 .53.68 0 1.08-.55 1.08-1.29s-.4-1.29-1.08-1.29c-.41 0-.82.25-1 .54v1.51ZM311.11 43.27c.08.04.2.06.28.06.23 0 .38-.08.5-.35l.22-.5-1.4-3.37h.56l1.11 2.74 1.11-2.74h.57l-1.67 4.02c-.2.48-.54.67-.98.68-.11 0-.28-.02-.38-.05l.08-.47ZM319.67 42.44l-2.69-3.72v3.72h-.57v-4.61h.59l2.65 3.64v-3.64h.57v4.61h-.55ZM321.12 40.14c0-1.42 1.04-2.38 2.35-2.38.84 0 1.4.39 1.77.91l-.48.27c-.26-.39-.74-.67-1.29-.67-.99 0-1.76.77-1.76 1.87s.77 1.87 1.76 1.87c.55 0 1.02-.28 1.29-.67l.49.27c-.39.53-.94.91-1.78.91-1.31 0-2.35-.97-2.35-2.38ZM328.65 42.44l-1.17-1.83h-.92v1.83h-.57v-4.61h1.85c.84 0 1.44.54 1.44 1.39s-.57 1.29-1.2 1.34l1.24 1.88h-.68Zm-.89-4.1h-1.21v1.76h1.21c.55 0 .92-.37.92-.88s-.37-.88-.92-.88ZM330.19 42.44v-4.61h.57v4.61h-.57ZM331.9 41.35c.3.34.8.66 1.45.66.82 0 1.08-.44 1.08-.79 0-.55-.56-.71-1.17-.87-.74-.19-1.56-.4-1.56-1.31 0-.76.68-1.28 1.58-1.28.7 0 1.25.24 1.64.64l-.35.42c-.35-.38-.83-.55-1.33-.55-.55 0-.95.3-.95.73 0 .46.53.6 1.12.76.75.2 1.61.44 1.61 1.4 0 .67-.46 1.35-1.7 1.35-.8 0-1.39-.3-1.77-.73l.34-.44Z" class="st4"/></svg>