<?xml version="1.0" encoding="utf-8"?>
<!-- Generator: Adobe Illustrator 23.1.1, SVG Export Plug-In . SVG Version: 6.00 Build 0)  -->
<svg version="1.1" id="Layer_1" xmlns="http://www.w3.org/2000/svg" xmlns:xlink="http://www.w3.org/1999/xlink" x="0px" y="0px"
	 viewBox="0 0 485.5 105.6" style="enable-background:new 0 0 485.5 105.6;" xml:space="preserve">
<style type="text/css">
	.st0{fill:#FFFFFF;}
</style>
<title>sicss-logo</title>
<g>
	<g id="Layer_1-2">
		<rect x="118.1" class="st0" width="22.9" height="105.2"/>
		<path class="st0" d="M88.5,0c7.3,2.9,14,6.9,15.9,15c1.2,5.2,1.1,10.8,1.6,16.5H82.6c-0.2-2.6-0.3-5.1-0.5-8H23.2v17.6h5.4
			c17.8,0,35.7,0,53.5,0c14.4,0,23.4,8.9,23.5,23.3c0,6.8,0.1,13.7-0.1,20.5c-0.3,10.9-9.1,20.3-20,20.4c-21.8,0.3-43.6,0.3-65.5,0
			C9.5,105.2,1.2,97,0.2,86.5c-0.4-3.9-0.1-7.9-0.1-12.3h22.4c0.2,2.5,0.5,5.1,0.7,8H82V64.7c-1.9-0.1-3.8-0.2-5.7-0.2
			c-17.2,0-34.3,0-51.5,0C8.1,64.4,0,56.3,0,39.6v-13C0,11.1,3.4,5.9,17.5,0H88.5z"/>
		<path class="st0" d="M351.1,0c7.3,2.9,14,6.9,15.9,15c1.2,5.2,1.1,10.8,1.6,16.5h-23.4c-0.1-2.6-0.3-5.1-0.5-8h-58.9v17.6h5.4
			c17.8,0,35.7,0,53.5,0c14.4,0,23.4,8.9,23.5,23.3c0,6.8,0.1,13.7-0.1,20.5c-0.3,10.9-9.1,20.3-20,20.4c-21.8,0.3-43.6,0.3-65.5,0
			c-10.5-0.2-18.8-8.4-19.8-18.8c-0.4-3.9-0.1-7.9-0.1-12.3h22.4c0.2,2.5,0.5,5.1,0.7,8h58.7V64.7c-1.9-0.1-3.8-0.2-5.7-0.2
			c-17.1,0-34.3,0-51.5,0c-16.7,0-24.8-8.2-24.8-24.9v-13c0-15.5,3.4-20.7,17.5-26.6L351.1,0z"/>
		<path class="st0" d="M467.9,0c7.3,2.9,14,6.9,15.9,15c1.2,5.2,1.1,10.8,1.6,16.5h-23.4c-0.1-2.6-0.3-5.1-0.5-8h-58.9v17.6h5.4
			c17.8,0,35.6,0,53.5,0c14.4,0,23.4,8.9,23.4,23.3c0,6.8,0.1,13.7-0.1,20.5c-0.3,10.9-9.1,20.3-20,20.4c-21.8,0.3-43.6,0.3-65.5,0
			c-10.5-0.2-18.8-8.4-19.8-18.8c-0.4-3.9-0.1-7.9-0.1-12.3H402c0.2,2.5,0.5,5.1,0.7,8h58.7V64.7c-1.9-0.1-3.8-0.2-5.7-0.2
			c-17.1,0-34.3,0-51.5,0c-16.7,0-24.8-8.2-24.8-24.9v-13c0-15.5,3.4-20.7,17.5-26.6L467.9,0z"/>
		<path class="st0" d="M252.1,0v23h-82.5v59.4h82v22.8c-1.9,0.1-3.7,0.3-5.4,0.3c-25.5,0-51,0-76.4,0c-14.8,0-23.4-8.8-23.5-23.7
			c0-18.5,0-37,0-55.5c0-15.2,3.8-20.8,17.9-26.3L252.1,0z"/>
		<path class="st0" d="M118.1,0h23C141,33,141,66,141,99v6.2h-22.8"/>
	</g>
</g>
</svg>
