<?xml version="1.0" encoding="utf-8"?>
<!-- Generator: Adobe Illustrator 24.0.1, SVG Export Plug-In . SVG Version: 6.00 Build 0)  -->
<svg version="1.1" id="Layer_1" xmlns="http://www.w3.org/2000/svg" xmlns:xlink="http://www.w3.org/1999/xlink" x="0px" y="0px"
	 viewBox="0 0 521 121" style="enable-background:new 0 0 521 121;" xml:space="preserve">
<g>
	<path d="M75.8,88.9c0,21.8-20.7,30.5-31.8,30.5c-12.7,0-26.9-7.5-26.9-26.5c0-1.5,0.2-3,0.5-4.4h13.2v-1.9l-5.4-0.3
		c-3.2-0.2-4.3-0.6-4.7-5c3.2-4.7,8.3-7.7,14.1-7.7h0.8c1.7,4.9,3,7.3,4.7,9.6c1.7,2.1,3.9,3.9,6.4,5.1c-0.4,1.2-1.1,2.2-1.9,2.8
		c-1.6,0.8-2.3,1-4.4,0.6c-2.4-0.4-3.7-3-3.9-1.4c0,2,2.2,4.2,4.6,4.2c2.3,0,5.5-2.1,7-5.6C50,89.6,52,90,54,90
		c3.4,0,4.6-0.7,9.2-4.9c0.3-0.4,0.9-0.9,1.7-1.6L63.7,82c-2.6,2.3-4.6,3.4-6.2,3.4c-4,0-8.6-3.5-10.6-8.1l-2.5-5.9
		c-1.6-3.6-4-7.3-6-9.4c-1.6-1.6-3.1-2.3-6.4-2.9c3.2-0.4,4.1-0.6,6-1.1c4.5-1.3,7.3-4.6,8-9.3c0.9,1.2,1.8,2.3,2.9,3.3
		c9.4,9.5,22.6,16,26,29.9c-0.4,3.7-1.5,4.1-4.6,4.3l-5.9,0.3v1.9h11.2C75.8,88.6,75.8,88.8,75.8,88.9z M20.5,74V59h2.2
		c3.1,0,4.4,0.3,6,1.4c2.4,1.7,3.3,3.4,6.2,11.5h-0.2c-6.1,0-10.9,2.7-14.2,6.9V74z M20.5,42.1c0-0.7,0.1-1.8,0.2-3.3
		c0-0.6,0-1.5,0.1-2.7c1.6-0.2,2.3-0.3,3.1-0.3c7.3,0,13.4,4.9,13.4,10.9c0,2.8-1.3,5.5-3.6,7.2c-3,2.2-6.3,3-13.3,3
		C20.5,56.7,20.5,42.1,20.5,42.1z M105.6,31.7h-1.7l-0.2,0.4c-0.2,0.7-0.4,0.9-0.7,1c-0.4,0.2-0.7,0.2-2.4,0.2l-2.5,0.1H65.3v1.9
		l5,0.3c4.5,0.2,4.8,1,4.8,12.3v12.7c-1.3-1.5-2.6-3-4-4.4c-8.8-8.9-24.3-16.6-24.3-31.1c0-10.9,8.8-22.2,22.1-22.2
		c10.3,0,17.3,6.1,17.3,13.5c0,1.2-0.2,5.5-3.4,7.9c0.2-4.2-3-6.1-4.6-6.1c-2.8,0-3.6,2.4-3.6,4c0,3.4,2.6,4.6,5.2,4.6
		c3.4,0,8-3.4,8-9.9c0-11.7-11.9-16-19.5-16c-12.5,0-28.4,10.7-28.4,30.5c0,1.4,0.2,3,0.5,4.6c-3.3-1.9-8-2.7-14.6-2.7H2v1.9
		l5.5,0.3c4.5,0.2,4.9,1,4.9,12.3V74c0,11.3-0.3,12.1-4.9,12.3l-6.7,0.3v1.9h15.1c-0.3,1.7-0.5,3.5-0.5,5.2
		c0,18.4,13.9,27.3,28.8,27.3c18.8,0,35.3-13.7,38.5-32.5h9.7v-1.9l-4.5-0.3c-3.1-0.2-4.2-0.6-4.6-4.2V82c0-1.3-0.1-2.5-0.2-3.7
		V60.8H85c7.3,0,7.9,0.7,8.5,11.3h1.9c0.3-10.8,0.3-13.3,0.3-23v-2h-2.1c-1.3,8.8-1.5,9.7-2.2,10.3c-0.5,0.5-3.1,0.8-5.5,0.8
		c-0.8,0-1.6,0-2.8-0.1V46.8c0-3.4,0.2-5.5,1.1-10.7c2.4-0.2,3.8-0.3,6.5-0.3c5.5,0,10,0.4,10.8,1c1.2,0.8,2.9,4.6,4.5,9.9h0.9v-1.2
		C107,39.9,106.6,36.2,105.6,31.7L105.6,31.7z"/>
	<path d="M125.2,65.8l1.9-0.2l3.2,5.3h4.5l-4.1-6.3c2.1-0.8,3.2-2.4,3.2-4.6c0-3.1-2.2-5-6.4-5h-6.4v15.9h4L125.2,65.8z M125.1,62.8
		v-4.5h1.7c2,0,3,0.7,3,2.1c0,1.5-0.9,2.2-2.7,2.4H125.1z M153.7,64.5v-9.4h-4v9.4c0,2.5-1,3.5-2.9,3.5c-2.1,0-3.1-1.2-3.1-3.6v-9.2
		h-4v9.7c0,4.5,2.9,6.5,7,6.5C151,71.3,153.7,69.1,153.7,64.5z M165.3,68c-1.9,0-3.8-0.6-5.4-1.5l-0.8,3.3c1.5,0.8,3.8,1.4,6.1,1.4
		c4.2,0,6.5-2.1,6.5-5.1s-2.5-4.1-5-4.8c-1.9-0.5-3.3-0.9-3.3-2c0-0.9,0.7-1.3,2.1-1.3c1.6,0,3.5,0.6,5.1,1.4l0.8-3.3
		c-1.5-0.8-3.5-1.4-5.9-1.4c-3.9,0-6.1,1.9-6.1,4.9c0,3.2,2.8,4.2,5.1,4.9c2.1,0.6,3.2,0.9,3.2,2C167.8,67.4,166.8,68,165.3,68
		L165.3,68z M182.9,68c-1.9,0-3.8-0.6-5.4-1.5l-0.8,3.3c1.5,0.8,3.8,1.4,6.1,1.4c4.2,0,6.5-2.1,6.5-5.1s-2.5-4.1-5-4.8
		c-1.9-0.5-3.3-0.9-3.3-2c0-0.9,0.7-1.3,2.1-1.3c1.6,0,3.6,0.6,5.1,1.4l0.8-3.3c-1.5-0.8-3.5-1.4-5.9-1.4c-3.9,0-6.1,1.9-6.1,4.9
		c0,3.2,2.8,4.2,5.1,4.9c2.1,0.6,3.2,0.9,3.2,2C185.4,67.4,184.4,68,182.9,68L182.9,68z M206.7,70.9v-3.2h-7.6v-3.1h6.1v-3.2h-6.1
		v-3h7.6v-3.2h-11.6v15.9L206.7,70.9z M223.3,70.9v-3.4h-6.7V55h-4v15.9H223.3z M239.7,70.9v-3.4H233V55h-4v15.9H239.7z M259.6,68
		c-2,0-3.9-0.6-5.4-1.5l-0.8,3.3c1.5,0.8,3.8,1.4,6.1,1.4c4.2,0,6.5-2.1,6.5-5.1s-2.5-4.1-5-4.8c-1.9-0.5-3.3-0.9-3.3-2
		c0-0.9,0.7-1.3,2.1-1.3c1.6,0,3.6,0.6,5.1,1.4l0.8-3.3c-1.5-0.8-3.5-1.4-5.9-1.4c-3.9,0-6.1,2-6.1,4.9c0,3.2,2.8,4.2,5.1,4.9
		c2.1,0.6,3.2,0.9,3.2,2C262,67.4,261,68,259.6,68L259.6,68z M280.9,55.1h-5L270.3,71h4l1.1-3.4h5.9l1.2,3.4h4L280.9,55.1z
		 M280.4,64.4h-4.1l2.1-6.2L280.4,64.4z M305,69.8V62h-7.6v3.2h3.9v2.3c-0.7,0.3-1.6,0.5-2.5,0.5c-3,0-4.6-1.9-4.6-5
		c0-2.9,1.8-4.8,4.7-4.8c1.5,0,3.1,0.5,4.6,1.3l1.3-3.4c-1.5-0.9-3.9-1.4-6-1.4c-5.2,0-8.6,3.2-8.6,8.4s3.5,8.2,8.5,8.2
		C301,71.3,303.3,70.8,305,69.8L305,69.8z M322.7,70.9v-3.2h-7.6v-3.1h6.1v-3.2H315v-3h7.6v-3.2h-11.5v15.9L322.7,70.9z M337.6,70.9
		h4v-6h5.9v-3.3h-5.9v-3.3h7.4V55h-11.5L337.6,70.9z M370.1,62.9c0-5.4-3.6-8.3-8.3-8.3s-8.3,3.3-8.3,8.3c0,5.4,3.6,8.3,8.3,8.3
		C366.5,71.3,370.1,68,370.1,62.9z M366.1,63c0,3-1.6,5-4.2,5c-2.7,0-4.3-2.1-4.3-5.1s1.5-5,4.2-5S366.1,60,366.1,63z M389.8,64.5
		v-9.4h-4v9.4c0,2.5-1,3.5-2.9,3.5c-2.1,0-3.1-1.2-3.1-3.6v-9.2h-4v9.7c0,4.5,2.8,6.5,7,6.5C387.1,71.3,389.8,69.1,389.8,64.5z
		 M407.1,65.4l-6.6-10.3h-4.4V71h3.8V60.7l6.7,10.4h4.3v-16h-3.8V65.4z M432.1,62.9c0-4.7-3.2-7.8-8.8-7.8h-6V71h5.7
		C428.8,70.9,432.1,67.8,432.1,62.9L432.1,62.9z M428,63c0,3.2-1.8,4.7-4.8,4.7h-1.9v-9.4h1.7C426.3,58.3,428,59.8,428,63L428,63z
		 M446.7,55.1h-5.1L436,71h4l1.1-3.4h5.9l1.2,3.4h4L446.7,55.1z M446.2,64.4h-4.1l2.1-6.2L446.2,64.4z M468.5,58.4V55h-14.1v3.4h5.1
		v12.5h4V58.4H468.5z M478,70.9V55.1h-4V71L478,70.9z M500.4,62.9c0-5.4-3.6-8.2-8.3-8.2s-8.3,3.3-8.3,8.3c0,5.4,3.6,8.3,8.3,8.3
		S500.4,68,500.4,62.9z M496.4,63c0,3-1.6,5-4.2,5c-2.7,0-4.3-2.1-4.3-5.1s1.5-5,4.2-5S496.4,60,496.4,63z M517.2,65.4l-6.6-10.3
		h-4.4V71h3.8V60.7l6.7,10.4h4.3v-16h-3.8V65.4z"/>
</g>
<image style="overflow:visible;" width="1244" height="383" xlink:href="Sloan_logo.jpg"  transform="matrix(0.4171 0 0 0.4171 1.1697 122.7637)">
</image>
<image style="overflow:visible;" width="393" height="128" xlink:href="SSRC_logo.png"  transform="matrix(1.3193 0 0 1.3193 1.5 286.1247)">
</image>
</svg>
