<svg height="121" viewBox="0 0 521 121" width="521" xmlns="http://www.w3.org/2000/svg"><g><path d="m75.8 88.9c0 21.8-20.7 30.5-31.8 30.5-12.7 0-26.9-7.5-26.9-26.5 0-1.5.2-3 .5-4.4h13.2v-1.9l-5.4-.3c-3.2-.2-4.3-.6-4.7-5 3.2-4.7 8.3-7.7 14.1-7.7h.8c1.7 4.9 3 7.3 4.7 9.6 1.7 2.1 3.9 3.9 6.4 5.1-.4 1.2-1.1 2.2-1.9 2.8-1.6.8-2.3 1-4.4.6-2.4-.4-3.7-3-3.9-1.4 0 2 2.2 4.2 4.6 4.2 2.3 0 5.5-2.1 7-5.6 1.9.7 3.9 1.1 5.9 1.1 3.4 0 4.6-.7 9.2-4.9.3-.4.9-.9 1.7-1.6l-1.2-1.5c-2.6 2.3-4.6 3.4-6.2 3.4-4 0-8.6-3.5-10.6-8.1l-2.5-5.9c-1.6-3.6-4-7.3-6-9.4-1.6-1.6-3.1-2.3-6.4-2.9 3.2-.4 4.1-.6 6-1.1 4.5-1.3 7.3-4.6 8-9.3.9 1.2 1.8 2.3 2.9 3.3 9.4 9.5 22.6 16 26 29.9-.4 3.7-1.5 4.1-4.6 4.3l-5.9.3v1.9h11.2c.2.2.2.4.2.5zm-55.3-14.9v-15h2.2c3.1 0 4.4.3 6 1.4 2.4 1.7 3.3 3.4 6.2 11.5h-.2c-6.1 0-10.9 2.7-14.2 6.9zm0-31.9c0-.7.1-1.8.2-3.3 0-.6 0-1.5.1-2.7 1.6-.2 2.3-.3 3.1-.3 7.3 0 13.4 4.9 13.4 10.9 0 2.8-1.3 5.5-3.6 7.2-3 2.2-6.3 3-13.3 3 .1-.2.1-14.8.1-14.8zm85.1-10.4h-1.7l-.2.4c-.2.7-.4.9-.7 1-.4.2-.7.2-2.4.2l-2.5.1h-32.8v1.9l5 .3c4.5.2 4.8 1 4.8 12.3v12.7c-1.3-1.5-2.6-3-4-4.4-8.8-8.9-24.3-16.6-24.3-31.1 0-10.9 8.8-22.2 22.1-22.2 10.3 0 17.3 6.1 17.3 13.5 0 1.2-.2 5.5-3.4 7.9.2-4.2-3-6.1-4.6-6.1-2.8 0-3.6 2.4-3.6 4 0 3.4 2.6 4.6 5.2 4.6 3.4 0 8-3.4 8-9.9 0-11.7-11.9-16-19.5-16-12.5 0-28.4 10.7-28.4 30.5 0 1.4.2 3 .5 4.6-3.3-1.9-8-2.7-14.6-2.7h-23.8v1.9l5.5.3c4.5.2 4.9 1 4.9 12.3v26.2c0 11.3-.3 12.1-4.9 12.3l-6.7.3v1.9h15.1c-.3 1.7-.5 3.5-.5 5.2 0 18.4 13.9 27.3 28.8 27.3 18.8 0 35.3-13.7 38.5-32.5h9.7v-1.9l-4.5-.3c-3.1-.2-4.2-.6-4.6-4.2v-.1c0-1.3-.1-2.5-.2-3.7v-17.5h1.9c7.3 0 7.9.7 8.5 11.3h1.9c.3-10.8.3-13.3.3-23v-2h-2.1c-1.3 8.8-1.5 9.7-2.2 10.3-.5.5-3.1.8-5.5.8-.8 0-1.6 0-2.8-.1v-11.3c0-3.4.2-5.5 1.1-10.7 2.4-.2 3.8-.3 6.5-.3 5.5 0 10 .4 10.8 1 1.2.8 2.9 4.6 4.5 9.9h.9v-1.2c.1-5.6-.3-9.3-1.3-13.8z"/><path d="m125.2 65.8 1.9-.2 3.2 5.3h4.5l-4.1-6.3c2.1-.8 3.2-2.4 3.2-4.6 0-3.1-2.2-5-6.4-5h-6.4v15.9h4zm-.1-3v-4.5h1.7c2 0 3 .7 3 2.1 0 1.5-.9 2.2-2.7 2.4zm28.6 1.7v-9.4h-4v9.4c0 2.5-1 3.5-2.9 3.5-2.1 0-3.1-1.2-3.1-3.6v-9.2h-4v9.7c0 4.5 2.9 6.5 7 6.5 4.3-.1 7-2.3 7-6.9zm11.6 3.5c-1.9 0-3.8-.6-5.4-1.5l-.8 3.3c1.5.8 3.8 1.4 6.1 1.4 4.2 0 6.5-2.1 6.5-5.1s-2.5-4.1-5-4.8c-1.9-.5-3.3-.9-3.3-2 0-.9.7-1.3 2.1-1.3 1.6 0 3.5.6 5.1 1.4l.8-3.3c-1.5-.8-3.5-1.4-5.9-1.4-3.9 0-6.1 1.9-6.1 4.9 0 3.2 2.8 4.2 5.1 4.9 2.1.6 3.2.9 3.2 2 .1.9-.9 1.5-2.4 1.5zm17.6 0c-1.9 0-3.8-.6-5.4-1.5l-.8 3.3c1.5.8 3.8 1.4 6.1 1.4 4.2 0 6.5-2.1 6.5-5.1s-2.5-4.1-5-4.8c-1.9-.5-3.3-.9-3.3-2 0-.9.7-1.3 2.1-1.3 1.6 0 3.6.6 5.1 1.4l.8-3.3c-1.5-.8-3.5-1.4-5.9-1.4-3.9 0-6.1 1.9-6.1 4.9 0 3.2 2.8 4.2 5.1 4.9 2.1.6 3.2.9 3.2 2 .1.9-.9 1.5-2.4 1.5zm23.8 2.9v-3.2h-7.6v-3.1h6.1v-3.2h-6.1v-3h7.6v-3.2h-11.6v15.9zm16.6 0v-3.4h-6.7v-12.5h-4v15.9zm16.4 0v-3.4h-6.7v-12.5h-4v15.9zm19.9-2.9c-2 0-3.9-.6-5.4-1.5l-.8 3.3c1.5.8 3.8 1.4 6.1 1.4 4.2 0 6.5-2.1 6.5-5.1s-2.5-4.1-5-4.8c-1.9-.5-3.3-.9-3.3-2 0-.9.7-1.3 2.1-1.3 1.6 0 3.6.6 5.1 1.4l.8-3.3c-1.5-.8-3.5-1.4-5.9-1.4-3.9 0-6.1 2-6.1 4.9 0 3.2 2.8 4.2 5.1 4.9 2.1.6 3.2.9 3.2 2 0 .9-1 1.5-2.4 1.5zm21.3-12.9h-5l-5.6 15.9h4l1.1-3.4h5.9l1.2 3.4h4zm-.5 9.3h-4.1l2.1-6.2zm24.6 5.4v-7.8h-7.6v3.2h3.9v2.3c-.7.3-1.6.5-2.5.5-3 0-4.6-1.9-4.6-5 0-2.9 1.8-4.8 4.7-4.8 1.5 0 3.1.5 4.6 1.3l1.3-3.4c-1.5-.9-3.9-1.4-6-1.4-5.2 0-8.6 3.2-8.6 8.4s3.5 8.2 8.5 8.2c2.3 0 4.6-.5 6.3-1.5zm17.7 1.1v-3.2h-7.6v-3.1h6.1v-3.2h-6.2v-3h7.6v-3.2h-11.5v15.9zm14.9 0h4v-6h5.9v-3.3h-5.9v-3.3h7.4v-3.3h-11.5zm32.5-8c0-5.4-3.6-8.3-8.3-8.3s-8.3 3.3-8.3 8.3c0 5.4 3.6 8.3 8.3 8.3 4.7.1 8.3-3.2 8.3-8.3zm-4 .1c0 3-1.6 5-4.2 5-2.7 0-4.3-2.1-4.3-5.1s1.5-5 4.2-5 4.3 2.1 4.3 5.1zm23.7 1.5v-9.4h-4v9.4c0 2.5-1 3.5-2.9 3.5-2.1 0-3.1-1.2-3.1-3.6v-9.2h-4v9.7c0 4.5 2.8 6.5 7 6.5 4.3-.1 7-2.3 7-6.9zm17.3.9-6.6-10.3h-4.4v15.9h3.8v-10.3l6.7 10.4h4.3v-16h-3.8zm25-2.5c0-4.7-3.2-7.8-8.8-7.8h-6v15.9h5.7c5.8-.1 9.1-3.2 9.1-8.1zm-4.1.1c0 3.2-1.8 4.7-4.8 4.7h-1.9v-9.4h1.7c3.3 0 5 1.5 5 4.7zm18.7-7.9h-5.1l-5.6 15.9h4l1.1-3.4h5.9l1.2 3.4h4zm-.5 9.3h-4.1l2.1-6.2zm22.3-6v-3.4h-14.1v3.4h5.1v12.5h4v-12.5zm9.5 12.5v-15.8h-4v15.9zm22.4-8c0-5.4-3.6-8.2-8.3-8.2s-8.3 3.3-8.3 8.3c0 5.4 3.6 8.3 8.3 8.3s8.3-3.3 8.3-8.4zm-4 .1c0 3-1.6 5-4.2 5-2.7 0-4.3-2.1-4.3-5.1s1.5-5 4.2-5 4.3 2.1 4.3 5.1zm20.8 2.4-6.6-10.3h-4.4v15.9h3.8v-10.3l6.7 10.4h4.3v-16h-3.8z"/></g></svg>